<svg id="admin-with-cogwheels" xmlns="http://www.w3.org/2000/svg" width="13.902" height="14.759" viewBox="0 0 13.902 14.759">
  <path id="Path_439" data-name="Path 439" d="M232.469,93.077c-.019-.352-.379-.292-.73-.292A3.108,3.108,0,0,1,232.469,93.077Z" transform="translate(-224.96 -89.895)" fill="#66766f"/>
  <path id="Path_440" data-name="Path 440" d="M89.165,73.928a1.453,1.453,0,0,0-.9,2.593,3.146,3.146,0,0,1,2.08-1.985A1.454,1.454,0,0,0,89.165,73.928Z" transform="translate(-85.41 -71.629)" fill="#66766f"/>
  <path id="Path_441" data-name="Path 441" d="M14.706,4.622a3.023,3.023,0,0,0,.213.511l-.448.448a.308.308,0,0,0,0,.436l.789.789a.31.31,0,0,0,.436,0l.447-.448c.067.036.142.057.211.088,0-.005,0-.01,0-.015A4.591,4.591,0,0,1,16.471,5.4,1.947,1.947,0,1,1,19.214,2.8a3.4,3.4,0,0,1,1.1.032,2.938,2.938,0,0,0-.19-.457l.448-.448a.307.307,0,0,0,0-.436L19.783.705a.307.307,0,0,0-.435,0l-.449.448a2.885,2.885,0,0,0-.511-.212V.308A.307.307,0,0,0,18.08,0H16.964a.308.308,0,0,0-.308.308V.941a2.916,2.916,0,0,0-.511.212L15.7.706a.308.308,0,0,0-.436,0l-.79.789a.309.309,0,0,0,0,.436l.448.448a2.948,2.948,0,0,0-.212.511h-.633a.308.308,0,0,0-.308.308V4.314a.308.308,0,0,0,.308.308Z" transform="translate(-13.766)" fill="#66766f"/>
  <path id="Path_442" data-name="Path 442" d="M283.958,247.764a1.585,1.585,0,1,0-1.6-2.737,5.732,5.732,0,0,1-.678,1.623A4.768,4.768,0,0,1,283.958,247.764Z" transform="translate(-273.35 -237.17)" fill="#66766f"/>
  <path id="Path_443" data-name="Path 443" d="M309.235,169.1a.333.333,0,0,0-.332-.333h-.683a3.153,3.153,0,0,0-.23-.552l.483-.483a.332.332,0,0,0,0-.47l-.851-.851a.332.332,0,0,0-.47,0l-.484.484a3.1,3.1,0,0,0-.552-.229v-.683a.332.332,0,0,0-.332-.332h-1.2a.328.328,0,0,0-.21.08,4.528,4.528,0,0,1,.157,1.2,5.76,5.76,0,0,1-.061.822,2.058,2.058,0,0,1,.715-.134,2.083,2.083,0,0,1,1.126,3.837,4.756,4.756,0,0,1,.969,1.616.341.341,0,0,0,.11.021.332.332,0,0,0,.235-.1l.851-.851a.334.334,0,0,0,0-.47l-.484-.484a3.138,3.138,0,0,0,.23-.552h.683a.333.333,0,0,0,.333-.333Z" transform="translate(-295.333 -160.5)" fill="#66766f"/>
  <path id="Path_444" data-name="Path 444" d="M30.892,329.594a4.023,4.023,0,0,0-3.456-2.706,2.475,2.475,0,0,1-3.839,0,4.023,4.023,0,0,0-3.457,2.706l-.285.84a.792.792,0,0,0,.75,1.046h9.823a.791.791,0,0,0,.75-1.046Z" transform="translate(-19.626 -316.722)" fill="#66766f"/>
  <path id="Path_445" data-name="Path 445" d="M120.842,115.425c0,1.884,1.147,3.906,2.561,3.906s2.562-2.022,2.562-3.906C125.965,111.52,120.842,111.512,120.842,115.425Z" transform="translate(-117.512 -108.995)" fill="#66766f"/>
</svg>
