<svg id="Face_Detection" data-name="Face Detection" xmlns="http://www.w3.org/2000/svg" width="11.995" height="15.646" viewBox="0 0 11.995 15.646">
  <path id="Path_129" data-name="Path 129" d="M24,15.086a2.086,2.086,0,0,1,4.172,0H27.39l-.522-.782-1.043.782Z" transform="translate(-20.088 -10.132)" fill="#66766f"/>
  <path id="Path_130" data-name="Path 130" d="M25.3,38.977v.37H18v-.37a1.568,1.568,0,0,1,1.153-1.51L20.868,37a.782.782,0,0,0,1.565,0l1.716.467A1.568,1.568,0,0,1,25.3,38.977Z" transform="translate(-15.653 -27.873)" fill="#66766f"/>
  <g id="Group_3" data-name="Group 3">
    <path id="Path_131" data-name="Path 131" d="M19.691,2H10.3A1.305,1.305,0,0,0,9,3.3V16.342a1.305,1.305,0,0,0,1.3,1.3h9.388a1.305,1.305,0,0,0,1.3-1.3V3.3A1.305,1.305,0,0,0,19.691,2Zm.782,14.342a.782.782,0,0,1-.782.782H10.3a.782.782,0,0,1-.782-.782V3.3a.782.782,0,0,1,.782-.782h9.388a.782.782,0,0,1,.782.782Z" transform="translate(-9 -2)" fill="#66766f"/>
    <path id="Path_132" data-name="Path 132" d="M31,6h.522v.522H31Z" transform="translate(-25.263 -4.957)" fill="#66766f"/>
    <path id="Path_133" data-name="Path 133" d="M24,56h4.172v.522H24Z" transform="translate(-20.088 -41.919)" fill="#66766f"/>
    <path id="Path_134" data-name="Path 134" d="M24.823,20.866V20.5a1.833,1.833,0,0,0-1.345-1.761l-1.524-.414v-.309a2.347,2.347,0,0,0,1.3-2.1V14.347a2.347,2.347,0,0,0-4.694,0v1.565a2.347,2.347,0,0,0,1.3,2.1v.309l-1.524.415A1.833,1.833,0,0,0,17,20.5v.37a.261.261,0,0,0,.261.261h7.3A.261.261,0,0,0,24.823,20.866Zm-3.911-8.345a1.825,1.825,0,0,1,1.8,1.565h-.361l-.443-.666a.261.261,0,0,0-.374-.064l-.973.73H19.107a1.825,1.825,0,0,1,1.8-1.565Zm-1.825,3.39v-1.3h1.565a.261.261,0,0,0,.156-.052l.822-.617.369.553a.261.261,0,0,0,.217.116h.522v1.3a1.825,1.825,0,0,1-3.651,0Zm1.825,2.347a2.339,2.339,0,0,0,.522-.06v.321a.522.522,0,1,1-1.043,0V18.2a2.339,2.339,0,0,0,.522.06Zm3.39,2.347h-6.78V20.5a1.31,1.31,0,0,1,.96-1.258l1.444-.393a1.036,1.036,0,0,0,1.972,0l1.443.391A1.311,1.311,0,0,1,24.3,20.5Z" transform="translate(-14.914 -9.392)" fill="#66766f"/>
    <path id="Path_135" data-name="Path 135" d="M28,23h.522v.522H28Z" transform="translate(-23.045 -17.524)" fill="#66766f"/>
    <path id="Path_136" data-name="Path 136" d="M34,23h.522v.522H34Z" transform="translate(-27.481 -17.524)" fill="#66766f"/>
    <path id="Path_137" data-name="Path 137" d="M29,28h1.565v.522H29Z" transform="translate(-23.785 -21.22)" fill="#66766f"/>
    <path id="Path_138" data-name="Path 138" d="M13.522,11.522H14.3V11H13.261a.261.261,0,0,0-.261.261V12.3h.522Z" transform="translate(-11.957 -8.653)" fill="#66766f"/>
    <path id="Path_139" data-name="Path 139" d="M47.043,11H46v.522h.782V12.3H47.3V11.261A.261.261,0,0,0,47.043,11Z" transform="translate(-36.352 -8.653)" fill="#66766f"/>
    <path id="Path_140" data-name="Path 140" d="M13.522,46H13v1.043a.261.261,0,0,0,.261.261H14.3v-.522h-.782Z" transform="translate(-11.957 -34.526)" fill="#66766f"/>
    <path id="Path_141" data-name="Path 141" d="M46.782,46.782H46V47.3h1.043a.261.261,0,0,0,.261-.261V46h-.522Z" transform="translate(-36.352 -34.526)" fill="#66766f"/>
  </g>
</svg>
