<svg id="Component_16_1" data-name="Component 16 – 1" xmlns="http://www.w3.org/2000/svg" width="17.608" height="15.302" viewBox="0 0 17.608 15.302">
  <path id="Icon_awesome-hand-holding" data-name="Icon awesome-hand-holding" d="M17.28,22.748a1.012,1.012,0,0,0-1.3,0l-2.824,2.259a1.946,1.946,0,0,1-1.223.428H8.314a.489.489,0,0,1,0-.978h2.393a1.018,1.018,0,0,0,1.018-.813A.979.979,0,0,0,10.76,22.5H5.869a3.6,3.6,0,0,0-2.265.8L2.183,24.456H.489A.491.491,0,0,0,0,24.945V27.88a.491.491,0,0,0,.489.489H11.4a1.959,1.959,0,0,0,1.223-.428l4.622-3.7A.978.978,0,0,0,17.28,22.748Z" transform="translate(0 -13.067)" fill="#66766f"/>
  <path id="Icon_ionic-md-home" data-name="Icon ionic-md-home" d="M6.657,12.377V9.752H8.627v2.626h2V8.439h1.28L7.642,4.5,3.375,8.439h1.28v3.939Z" transform="translate(1.183 -4.5)" fill="#66766f"/>
</svg>
