<svg id="societyrun-logo_1_" data-name="societyrun-logo (1)" xmlns="http://www.w3.org/2000/svg" width="164" height="33.689" viewBox="0 0 164 33.689">
  <g id="Layer_x0020_1">
    <g id="_402824640">
      <path id="_360187488" d="M10.851,30.266c-.05-.287-.128-.664-.173-.944-.052-.317-.1-.627-.15-.935C8.4,14.433,11.938,7.851,11.938,7.851L6.084.725,4.754,4.436,9.345,9.529l-.417,1.425L4.065,6.632l-.972,3.505,5.3,3.232L8.15,14.932,2.639,12.021l-.688,3.485,5.979,1.754L7.842,18.7,1.69,17.4l-.4,3.263,6.555.886L7.923,23.2,1.1,22.49.912,25.83l7.31.434.19,1.369-7.45.53L.908,31.357l8.027-.842,1.917-.25h0Z" transform="translate(12.543 0.196)" fill="#2ca01c" fill-rule="evenodd"/>
      <path id="_360187560" d="M2.166,4.158,12.364.68s-1.438,3.373-1.907,4.459L.53,7.554l1.636-3.4h0Z" transform="translate(5.155 -0.68)" fill="#2ca01c" fill-rule="evenodd"/>
      <path id="_360187632" d="M11.364,1.016,1.535,2.59.443,5.452,10.3,4.383Z" transform="translate(3.469 5.896)" fill="#2ca01c" fill-rule="evenodd"/>
      <path id="_360187704" d="M11.161,1.277l-9.979.9L.374,4.88l10.132-.355Z" transform="translate(2.122 10.978)" fill="#2ca01c" fill-rule="evenodd"/>
      <path id="_360187776" d="M11.226,1.539l-.392,3.171L.32,4.351.928,1.725Z" transform="translate(1.058 16.098)" fill="#2ca01c" fill-rule="evenodd"/>
      <path id="_360187848" d="M.721,1.764l10.708.348-.217,3.363L.281,4.3Z" transform="translate(0.299 20.499)" fill="#2ca01c" fill-rule="evenodd"/>
      <path id="_360187896" d="M11.849,3.872.575,1.973.253,4.594,11.912,7.229Z" transform="translate(-0.253 24.585)" fill="#2ca01c" fill-rule="evenodd"/>
    </g>
  </g>
  <g id="Layer_x0020_1_0" transform="translate(30.248 8.253)">
    <path id="path17" d="M14.1,6.58H10.457A2.553,2.553,0,0,0,9.77,4.936a2.142,2.142,0,0,0-1.6-.62,2.157,2.157,0,0,0-1.509.539,1.837,1.837,0,0,0-.593,1.428,1.833,1.833,0,0,0,.782,1.55,8.411,8.411,0,0,0,2.4,1.091q5.2,1.7,5.2,6.118a5.671,5.671,0,0,1-1.617,3.975,6.02,6.02,0,0,1-4.635,1.738A6.494,6.494,0,0,1,3.68,19.192,6.284,6.284,0,0,1,1.726,14.8h3.8q.323,2.83,2.722,2.83a2.307,2.307,0,0,0,2.426-2.372,2.406,2.406,0,0,0-.768-1.846,6.859,6.859,0,0,0-2.547-1.28Q2.346,10.46,2.346,6.337A4.661,4.661,0,0,1,4.016,2.618,6.2,6.2,0,0,1,8.194,1.19a5.951,5.951,0,0,1,4.2,1.469,5.425,5.425,0,0,1,1.7,3.921h0Zm2.452,7.115a6.633,6.633,0,0,1,1.967-4.932,6.738,6.738,0,0,1,4.932-1.94,6.661,6.661,0,0,1,6.9,6.872,6.8,6.8,0,0,1-1.954,4.9,6.585,6.585,0,0,1-4.945,2.021,6.643,6.643,0,0,1-4.932-1.994,6.747,6.747,0,0,1-1.967-4.932h0Zm3.665.027a3.789,3.789,0,0,0,.93,2.628,2.97,2.97,0,0,0,2.3,1.038,2.9,2.9,0,0,0,2.331-1.038,3.933,3.933,0,0,0,.876-2.628,3.986,3.986,0,0,0-.862-2.614,2.872,2.872,0,0,0-2.345-1.051,2.944,2.944,0,0,0-2.358,1.024,3.921,3.921,0,0,0-.876,2.641h0Zm18.6-6.9a5.975,5.975,0,0,1,4.15,1.428,5.818,5.818,0,0,1,1.94,3.288H41.288a2.347,2.347,0,0,0-2.506-1.644,2.82,2.82,0,0,0-2.3,1.038,4.227,4.227,0,0,0-.849,2.762A4.231,4.231,0,0,0,36.5,16.43a2.9,2.9,0,0,0,2.385,1.091,2.526,2.526,0,0,0,2.56-1.779h3.692a6.959,6.959,0,0,1-2.169,3.517,6.107,6.107,0,0,1-4.137,1.361,6.776,6.776,0,0,1-4.918-1.927,6.7,6.7,0,0,1-1.981-5.026,6.774,6.774,0,0,1,1.886-4.878,6.59,6.59,0,0,1,4.986-1.967h0Zm8.786,13.34V7.253h3.638V20.162Zm-.081-15.6V1.082H51.34V4.558H47.514ZM60.342,6.822a6.128,6.128,0,0,1,4.824,1.967,6.994,6.994,0,0,1,1.752,4.824,6.741,6.741,0,0,1-.054.97H57.269A3.359,3.359,0,0,0,60.611,17.9,2.949,2.949,0,0,0,63.2,16.551h3.53a6.523,6.523,0,0,1-2.223,2.937,6.4,6.4,0,0,1-3.921,1.132,6.681,6.681,0,0,1-4.9-1.954,6.812,6.812,0,0,1-1.967-5.053A6.888,6.888,0,0,1,55.5,8.776a6.242,6.242,0,0,1,4.837-1.954h0Zm-.027,2.533a2.855,2.855,0,0,0-2.089.809,3.052,3.052,0,0,0-.93,1.94h6.037a3.142,3.142,0,0,0-.957-1.954,2.847,2.847,0,0,0-2.062-.8h0Zm7.788.97V7.253h1.563V3.13h3.665V7.253h3.045v3.072H73.332v5.013a2.31,2.31,0,0,0,.364,1.509,1.626,1.626,0,0,0,1.253.4,5.473,5.473,0,0,0,1.563-.216V20a9.083,9.083,0,0,1-2.533.35,4.088,4.088,0,0,1-3.315-1.2,5.241,5.241,0,0,1-1-3.436v-5.39H68.1ZM89.852,7.253,82.791,26.5l-3.45.022,2.349-6.531L77.024,7.253H80.8l1.855,5.606a28.716,28.716,0,0,1,.867,3.135H83.6q.2-1.321.665-3.18l2-5.561h3.584ZM100.443,12.4l5.686,7.761h-4.581l-4.99-7.223H95.35v7.223H91.5V1.782h5.713q3.638,0,5.309,1.563a5.285,5.285,0,0,1,1.671,4.042,5.031,5.031,0,0,1-1.051,3.234,5.114,5.114,0,0,1-2.695,1.779h0Zm-.216-4.851A2.6,2.6,0,0,0,99.5,5.582a2.912,2.912,0,0,0-2.1-.7H95.35V10.11h2.075a2.891,2.891,0,0,0,2.048-.7,2.417,2.417,0,0,0,.755-1.86h0Zm19.458-.3V20.162h-3.611V18.545h-.081a4.354,4.354,0,0,1-3.773,2.048,4.591,4.591,0,0,1-3.288-1.347,5.8,5.8,0,0,1-1.4-4.339V7.253h3.638v7.2a3.366,3.366,0,0,0,.606,2.156,2.04,2.04,0,0,0,1.684.755,2.326,2.326,0,0,0,1.9-.835,3.734,3.734,0,0,0,.687-2.425V7.253h3.638Zm3.342,12.909V7.253h3.584V8.87h.108a4.213,4.213,0,0,1,3.827-2.021,4.56,4.56,0,0,1,3.6,1.509,6.438,6.438,0,0,1,1.334,4.393v7.411H131.84V12.993a3.312,3.312,0,0,0-.633-2.183,2.21,2.21,0,0,0-1.792-.755,2.52,2.52,0,0,0-1.994.862,3.564,3.564,0,0,0-.755,2.425v6.818h-3.638Z" transform="translate(-1.726 -1.082)" fill="#66766f"/>
  </g>
</svg>
