<svg id="Support" xmlns="http://www.w3.org/2000/svg" width="10.613" height="15.163" viewBox="0 0 10.613 15.163">
  <g id="Group_2" data-name="Group 2" transform="translate(0.253 1.264)">
    <path id="Path_121" data-name="Path 121" d="M20.086,46.615H12V44.128a1.517,1.517,0,0,1,.983-1.42l2.555-.958v2.59L17.054,45.6,18.57,44.34V41.75l2.555.958a1.517,1.517,0,0,1,.983,1.42v2.487Z" transform="translate(-12 -32.969)" fill="#66766f"/>
    <path id="Path_122" data-name="Path 122" d="M43.011,17.505v2.022a.505.505,0,1,1-1.011,0V17.505a.505.505,0,1,1,1.011,0Z" transform="translate(-34.419 -14.473)" fill="#fafafa"/>
    <path id="Path_123" data-name="Path 123" d="M19.011,19.527a.505.505,0,0,1-1.011,0V17.505a.505.505,0,1,1,1.011,0Z" transform="translate(-16.484 -14.473)" fill="#fafafa"/>
    <path id="Path_124" data-name="Path 124" d="M15.011,19v2.022h-.505A.507.507,0,0,1,14,20.516V19.505A.507.507,0,0,1,14.505,19Z" transform="translate(-13.495 -15.968)" fill="#fafafa"/>
    <path id="Path_125" data-name="Path 125" d="M46.505,19a.507.507,0,0,1,.505.505v1.011a.507.507,0,0,1-.505.505H46V19Z" transform="translate(-37.408 -15.968)" fill="#fafafa"/>
    <path id="Path_126" data-name="Path 126" d="M27.054,10.032v1.011c-.766,0-.975-.432-1.317-1.117l-.2-.4-.634.543a4.048,4.048,0,0,1-2.631.973H22V9.527a2.527,2.527,0,0,1,5.054,0Z" transform="translate(-19.473 -7)" fill="#66766f"/>
  </g>
  <path id="Path_127" data-name="Path 127" d="M20.466,12.763l-2.9-1.085v-.89A2.788,2.788,0,0,0,19,8.99a.747.747,0,0,0,.339.084.758.758,0,0,0,.712-.505H20.1v1.516h-.046a.758.758,0,1,0,0,.505H20.1a.505.505,0,0,0,.505-.505V8.521a.758.758,0,0,0,.505-.712V6.8a.758.758,0,0,0-.516-.715,4.29,4.29,0,0,0-8.571,0,.758.758,0,0,0-.516.715V7.81a.758.758,0,0,0,.758.758h.3a.758.758,0,0,0,.712.505.747.747,0,0,0,.339-.084,2.788,2.788,0,0,0,1.43,1.8v.89l-2.9,1.085A1.779,1.779,0,0,0,11,14.42v2.487a.253.253,0,0,0,.253.253H21.361a.253.253,0,0,0,.253-.253V14.42A1.778,1.778,0,0,0,20.466,12.763ZM19.339,10.59a.253.253,0,1,1,.253-.253A.253.253,0,0,1,19.339,10.59Zm-5.307-4.3V5.788a2.274,2.274,0,1,1,4.549,0V7.026c-.4-.082-.553-.382-.838-.952l-.2-.4a.253.253,0,0,0-.391-.079l-.633.543a3.794,3.794,0,0,1-2.468.913h-.02Zm5.559,2.022a.253.253,0,0,1-.505,0V6.294a.253.253,0,1,1,.505,0ZM20.6,7.81a.253.253,0,0,1-.253.253H20.1V6.546h.253A.253.253,0,0,1,20.6,6.8ZM16.307,2.5a3.792,3.792,0,0,1,3.778,3.538h-.034a.746.746,0,0,0-.975-.455,2.776,2.776,0,0,0-5.539,0,.746.746,0,0,0-.975.455h-.034A3.792,3.792,0,0,1,16.307,2.5Zm-4.3,5.307V6.8a.253.253,0,0,1,.253-.253h.253V8.063h-.253A.253.253,0,0,1,12.011,7.81Zm1.264.758a.253.253,0,0,1-.253-.253V6.294a.253.253,0,1,1,.505,0V8.315A.253.253,0,0,1,13.274,8.568Zm.758-.253V7.557h.02a4.3,4.3,0,0,0,2.8-1.034l.387-.332.065.129c.311.623.565,1.126,1.28,1.22v.775a2.274,2.274,0,0,1-4.549,0Zm2.274,2.78a2.771,2.771,0,0,0,.758-.108v.71l-.758.379-.758-.379v-.71A2.771,2.771,0,0,0,16.307,11.095Zm-1.025,1.034.912.455a.253.253,0,0,0,.226,0l.912-.455.238.089v2.3l-1.264,1.053-1.264-1.053v-2.3Zm5.827,4.526H19.592V14.885h-.505v1.769H13.527V14.885h-.505v1.769H11.505V14.42a1.27,1.27,0,0,1,.819-1.183l2.213-.83v2.226a.253.253,0,0,0,.091.194l1.516,1.264a.253.253,0,0,0,.323,0l1.516-1.264a.253.253,0,0,0,.091-.194V12.407l2.213.83a1.27,1.27,0,0,1,.819,1.184Z" transform="translate(-11 -1.997)" fill="#66766f"/>
  <path id="Path_128" data-name="Path 128" d="M29.527,29h-.505a.758.758,0,0,1-1.516,0H27a1.264,1.264,0,0,0,2.527,0Z" transform="translate(-22.957 -22.176)" fill="#66766f"/>
</svg>
