<svg height="512pt" viewBox="-74 0 512 512" width="512pt" xmlns="http://www.w3.org/2000/svg"><path d="m301.128906 0h-238.734375c-34.40625 0-62.394531 27.988281-62.394531 62.394531v387.210938c0 34.40625 27.988281 62.394531 62.394531 62.394531h238.734375c34.402344 0 62.390625-27.988281 62.390625-62.394531v-387.210938c0-34.40625-27.988281-62.394531-62.390625-62.394531zm47.183594 449.605469c0 26.019531-21.167969 47.1875-47.183594 47.1875h-238.734375c-26.019531 0-47.1875-21.167969-47.1875-47.1875v-387.210938c0-26.019531 21.167969-47.1875 47.1875-47.1875h238.734375c26.015625 0 47.183594 21.167969 47.183594 47.1875zm0 0"/><path d="m298.78125 42.035156c-5.332031-1.742187-10.917969-2.625-16.59375-2.625h-200.847656c-5.679688 0-11.261719.882813-16.574219 2.617188-22.210937 7.191406-37.136719 27.722656-37.136719 51.089844v325.773437c0 23.363281 14.925782 43.890625 37.113282 51.074219 5.332031 1.742187 10.914062 2.625 16.59375 2.625h200.851562c5.679688 0 11.261719-.882813 16.574219-2.621094 22.203125-7.1875 37.125-27.710938 37.125-51.078125v-233.355469c0-4.199218-3.40625-7.601562-7.605469-7.601562s-7.605469 3.402344-7.605469 7.601562v233.355469c0 16.75-10.6875 31.460937-26.621093 36.617187-3.800782 1.242188-7.796876 1.875-11.867188 1.875h-200.847656c-4.074219 0-8.066406-.632812-11.890625-1.882812-15.917969-5.152344-26.613281-19.863281-26.613281-36.609375v-325.773437c0-16.75 10.695312-31.46875 26.632812-36.625 3.804688-1.246094 7.796875-1.875 11.871094-1.875h200.847656c4.070312 0 8.066406.632812 11.890625 1.882812 15.910156 5.148438 26.601563 19.863281 26.601563 36.617188v62.003906c0 4.199218 3.402343 7.605468 7.601562 7.605468 4.203125 0 7.605469-3.40625 7.605469-7.605468v-62.003906c0-23.371094-14.921875-43.902344-37.105469-51.082032zm0 0"/><path d="m259.976562 98.292969h-156.4375c-23.898437 0-43.34375 19.441406-43.34375 43.34375 0 23.898437 19.445313 43.339843 43.34375 43.339843h156.4375c23.898438 0 43.339844-19.441406 43.339844-43.339843 0-23.902344-19.441406-43.34375-43.339844-43.34375zm-184.574218 43.339843c0-15.511718 12.621094-28.132812 28.136718-28.132812 15.511719 0 28.132813 12.621094 28.132813 28.132812 0 15.515626-12.621094 28.136719-28.132813 28.136719-15.515624 0-28.136718-12.621093-28.136718-28.136719zm184.574218 28.136719h-123.507812c6.484375-7.578125 10.410156-17.402343 10.410156-28.136719 0-10.730468-3.925781-20.554687-10.410156-28.132812h123.507812c15.511719 0 28.132813 12.621094 28.132813 28.132812 0 15.515626-12.621094 28.136719-28.132813 28.136719zm0 0"/><path d="m259.976562 206.082031h-156.4375c-23.898437 0-43.34375 19.445313-43.34375 43.34375 0 23.898438 19.445313 43.34375 43.34375 43.34375h156.4375c23.898438 0 43.339844-19.445312 43.339844-43.34375 0-23.898437-19.441406-43.34375-43.339844-43.34375zm-184.574218 43.34375c0-15.515625 12.621094-28.132812 28.136718-28.132812 15.511719 0 28.132813 12.617187 28.132813 28.132812 0 15.511719-12.621094 28.132813-28.132813 28.132813-15.515624 0-28.136718-12.621094-28.136718-28.132813zm184.574218 28.132813h-123.507812c6.484375-7.578125 10.410156-17.402344 10.410156-28.132813s-3.925781-20.558593-10.410156-28.136719h123.507812c15.511719 0 28.132813 12.621094 28.132813 28.136719 0 15.511719-12.621094 28.132813-28.132813 28.132813zm0 0"/><path d="m130.371094 397.914062c0 4.199219 3.40625 7.605469 7.605468 7.605469h122c23.898438 0 43.339844-19.445312 43.339844-43.34375 0-23.898437-19.441406-43.339843-43.339844-43.339843h-156.4375c-23.898437 0-43.34375 19.441406-43.34375 43.339843 0 23.898438 19.445313 43.34375 43.34375 43.34375h4.023438c4.199219 0 7.601562-3.40625 7.601562-7.605469 0-4.199218-3.402343-7.605468-7.601562-7.605468h-4.023438c-15.515624 0-28.136718-12.617188-28.136718-28.132813 0-15.511719 12.621094-28.132812 28.136718-28.132812h123.507813c-6.484375 7.578125-10.414063 17.402343-10.414063 28.132812s3.929688 20.558594 10.414063 28.132813h-89.070313c-4.199218 0-7.605468 3.40625-7.605468 7.605468zm101.46875-35.738281c0-15.511719 12.621094-28.132812 28.136718-28.132812 15.511719 0 28.132813 12.621093 28.132813 28.132812 0 15.515625-12.621094 28.132813-28.132813 28.132813-15.515624 0-28.136718-12.617188-28.136718-28.132813zm0 0"/></svg>