<svg xmlns="http://www.w3.org/2000/svg" width="31.723" height="31.723" viewBox="0 0 31.723 31.723"><defs><style>.a{fill:#fff;}.b{fill:#00aeef;}.c{fill:#cad9fc;}.d{fill:#374140;}</style></defs><path class="a" d="M67.509,49.283v20.09a1.06,1.06,0,0,1-1.057,1.057H43.718a1.06,1.06,0,0,1-1.057-1.057V49.283l12.424-7.455Zm0,0" transform="translate(-40.018 -39.236)"/><path class="b" d="M23.307,11.346a1.058,1.058,0,0,1,1.1,0L37.475,19.3a1.121,1.121,0,0,0,1.581-.426l0,0a1.121,1.121,0,0,0-.4-1.479L24.407,8.7a1.058,1.058,0,0,0-1.1,0L9.055,17.394a1.12,1.12,0,0,0-.4,1.479l0,0a1.121,1.121,0,0,0,1.581.426Zm0,0" transform="translate(-7.997 -8.02)"/><path class="b" d="M101.261,316.278v11.1h-7.4v-11.1a.53.53,0,0,1,.529-.529h6.345a.53.53,0,0,1,.529.529Zm0,0" transform="translate(-88.044 -296.187)"/><path class="c" d="M128.52,349.883h2.115a.529.529,0,0,1,.529.529v1.057a.529.529,0,0,1-.529.529H128.52a.529.529,0,0,1-.529-.529v-1.057A.529.529,0,0,1,128.52,349.883Zm0,0" transform="translate(-120.062 -328.205)"/><path class="b" d="M181.23,116.234a2.647,2.647,0,0,1-4.515,1.872,1.07,1.07,0,0,0-1.544,0,2.5,2.5,0,0,1-.365.3,2.644,2.644,0,1,1-1.914-4.785.528.528,0,0,0,.439-.439,2.621,2.621,0,0,1,1.026-1.708h.005a2.639,2.639,0,0,1,4.192,1.708.528.528,0,0,0,.439.439A2.641,2.641,0,0,1,181.23,116.234Zm0,0" transform="translate(-160.083 -104.073)"/><path class="a" d="M495.1,178.272l-.17-.1v.235A1.1,1.1,0,0,0,495.1,178.272Zm0,0" transform="translate(-464.262 -167.129)"/><path class="a" d="M43.718,183.3H45.3a1.06,1.06,0,0,1-1.057-1.057v-20.09l-.4.244c-.378.235-.835,1.2-1.185.984v18.862a1.06,1.06,0,0,0,1.057,1.057Zm0,0" transform="translate(-40.018 -152.101)"/><path class="a" d="M35.182,178.191v19.1H34.125v-19.1Zm0,0" transform="translate(-32.011 -167.151)"/><path class="d" d="M34.654,180.835a.53.53,0,0,0,.529-.529v-2.115H34.125v2.115A.531.531,0,0,0,34.654,180.835Zm0,0" transform="translate(-32.011 -167.151)"/><path class="d" d="M34.125,285.34h1.057V272.587a.529.529,0,0,0-1.057,0Zm0,0" transform="translate(-32.011 -255.203)"/><path class="d" d="M35.088,238.454a.558.558,0,0,0-.153-.375l-.079-.063a.4.4,0,0,0-.1-.048.34.34,0,0,0-.1-.032.774.774,0,0,0-.106-.01.556.556,0,0,0-.376.153.521.521,0,0,0,.174.862.532.532,0,0,0,.2.042.524.524,0,0,0,.529-.529Zm0,0" transform="translate(-31.916 -223.185)"/><path class="d" d="M60.032,190.868H35.712a1.588,1.588,0,0,1-1.586-1.586.529.529,0,0,1,1.057,0,.529.529,0,0,0,.529.529h24.32a.529.529,0,0,0,.529-.529v-19.1a.529.529,0,1,1,1.057,0v19.1a1.588,1.588,0,0,1-1.586,1.586Zm0,0" transform="translate(-32.012 -159.145)"/><path class="d" d="M1.659,11.979A1.652,1.652,0,0,1,.787,8.925L15.043.233a1.579,1.579,0,0,1,1.651,0l14.252,8.69a1.652,1.652,0,1,1-1.738,2.809L16.144,3.778a.528.528,0,0,0-.55,0L2.525,11.734a1.645,1.645,0,0,1-.866.245ZM15.868,1.058a.53.53,0,0,0-.275.077L1.341,9.826a.594.594,0,0,0,.63,1.008L15.044,2.875h0a1.581,1.581,0,0,1,1.649,0l13.068,7.956a.593.593,0,0,0,.471.071.587.587,0,0,0,.369-.294.594.594,0,0,0-.208-.785L16.144,1.136a.526.526,0,0,0-.275-.077Zm0,0" transform="translate(-0.009 0)"/><path class="d" d="M93.254,319.9h-7.4a.529.529,0,0,1-.529-.529v-11.1a1.059,1.059,0,0,1,1.057-1.057h6.345a1.059,1.059,0,0,1,1.057,1.057v11.1a.529.529,0,0,1-.529.529Zm-6.873-1.057h6.345V308.273H86.381Zm0,0" transform="translate(-80.038 -288.181)"/><path class="d" d="M122.629,344.52h-2.115a1.059,1.059,0,0,1-1.057-1.057v-1.057a1.059,1.059,0,0,1,1.057-1.057h2.115a1.059,1.059,0,0,1,1.057,1.057v1.057A1.059,1.059,0,0,1,122.629,344.52Zm-2.115-2.115v1.057h2.115v-1.057Zm0,0" transform="translate(-112.056 -320.199)"/><path class="d" d="M128.52,411.732a.529.529,0,0,1-.529-.529v-1.057a.529.529,0,0,1,1.057,0V411.2A.529.529,0,0,1,128.52,411.732Zm0,0" transform="translate(-120.062 -384.239)"/><path class="d" d="M121.044,410.675h-1.057a.529.529,0,1,1,0-1.057h1.057a.529.529,0,0,1,0,1.057Zm0,0" transform="translate(-112.057 -384.239)"/><path class="d" d="M170.581,111.394a3.173,3.173,0,0,1-2.243-.925.551.551,0,0,0-.8,0,3.174,3.174,0,1,1-2.735-5.378,3.17,3.17,0,0,1,6.265,0,3.17,3.17,0,0,1-.491,6.3Zm-2.644-2.158a1.605,1.605,0,0,1,1.148.486,2.116,2.116,0,1,0,1.822-3.589,1.061,1.061,0,0,1-.88-.876,2.114,2.114,0,0,0-4.178,0,1.06,1.06,0,0,1-.877.88,2.115,2.115,0,1,0,1.822,3.586A1.6,1.6,0,0,1,167.937,109.236Zm0,0" transform="translate(-152.078 -96.061)"/><path class="d" d="M247.986,217.577a.529.529,0,0,1-.529-.529v-3.172a.529.529,0,1,1,1.057,0v3.172A.529.529,0,0,1,247.986,217.577Zm0,0" transform="translate(-232.126 -200.129)"/><path class="d" d="M233.035,265.6H230.92a.529.529,0,0,1,0-1.058h2.115a.529.529,0,0,1,0,1.058Zm0,0" transform="translate(-216.117 -248.156)"/><path class="d" d="M280.989,314.617h-7.4a.529.529,0,0,1-.529-.529v-5.816a1.059,1.059,0,0,1,1.057-1.057h6.344a1.058,1.058,0,0,1,1.057,1.057v5.816a.529.529,0,0,1-.529.529Zm-6.873-1.057h6.344v-5.287h-6.344Zm0,0" transform="translate(-256.141 -288.181)"/><path class="d" d="M266.037,410.675H256.52a.529.529,0,0,1,0-1.057h9.517a.529.529,0,1,1,0,1.057Zm0,0" transform="translate(-240.132 -384.239)"/><path class="d" d="M333.321,314.618a.529.529,0,0,1-.529-.529v-6.344a.529.529,0,1,1,1.057,0v6.344A.529.529,0,0,1,333.321,314.618Zm0,0" transform="translate(-312.174 -288.182)"/><path class="d" d="M278.875,359.471h-5.287a.529.529,0,0,1,0-1.057h5.287a.529.529,0,0,1,0,1.057Zm0,0" transform="translate(-256.142 -336.207)"/></svg>