<svg xmlns="http://www.w3.org/2000/svg" width="41.696" height="29.646" viewBox="0 0 41.696 29.646"><defs><style>.a{fill:#b3e3bd;}.b{fill:#374140;}</style></defs><path class="a" d="M2,0H6A2,2,0,0,1,8,2L7.79,6.545,6.774,9.731,7.79,13.055,8,19H0V2A2,2,0,0,1,2,0Z" transform="translate(4 7.646)"/><rect class="a" width="2" height="8" transform="translate(7 0.646)"/><circle class="a" cx="3.5" cy="3.5" r="3.5" transform="translate(31 3.646)"/><circle class="a" cx="3.5" cy="3.5" r="3.5" transform="translate(34 8.646)"/><circle class="a" cx="3.5" cy="3.5" r="3.5" transform="translate(28 7.646)"/><g transform="translate(0 -0.001)"><path class="b" d="M329.494,276.1h4.68a.611.611,0,1,0,0-1.222h-4.68a.611.611,0,1,0,0,1.222Zm0,0" transform="translate(-302.099 -252.493)"/><path class="b" d="M344.216,296.172h-2.727a.611.611,0,0,0,0,1.222h2.727a.611.611,0,1,0,0-1.222Zm0,0" transform="translate(-313.118 -272.051)"/><path d="M435.962,120.98a1.811,1.811,0,1,0,1.825,1.811A1.82,1.82,0,0,0,435.962,120.98Zm0,2.4a.59.59,0,1,1,.6-.59A.6.6,0,0,1,435.962,123.381Zm0,0" transform="translate(-398.782 -111.127)"/><path class="b" d="M41.7,11.711a1.747,1.747,0,0,0-.888-1.462,1.745,1.745,0,0,0-.4-1.715,1.67,1.67,0,0,0-1.188-.463,2.18,2.18,0,0,0-.483.055,2.131,2.131,0,0,0-.412-.5,1.447,1.447,0,0,0,.106-.538A1.645,1.645,0,0,0,37.575,5.7a1.632,1.632,0,0,0-.4-1.523,1.579,1.579,0,0,0-1.122-.437,2.061,2.061,0,0,0-.471.056,1.579,1.579,0,0,0-2.769.047,2.049,2.049,0,0,0-.415-.044,1.577,1.577,0,0,0-1.122.438,1.637,1.637,0,0,0-.392,1.58,1.637,1.637,0,0,0-.8,1.359,1.46,1.46,0,0,0,.116.569,2.016,2.016,0,0,0-.346.422,2.062,2.062,0,0,0-.43-.046,1.6,1.6,0,0,0-1.136.443,1.66,1.66,0,0,0-.395,1.609,1.577,1.577,0,0,0,.05,2.795,1.652,1.652,0,0,0,.407,1.551,1.6,1.6,0,0,0,1.137.444,2.091,2.091,0,0,0,.487-.059,1.68,1.68,0,0,0,1.392.815,1.6,1.6,0,0,0,1.154-.515l.239,1.225a1.107,1.107,0,0,0-.686.846l-.5,3.265H25.622a.977.977,0,0,0-.975.977V24.8l-.406-.29V20.365a2.62,2.62,0,0,0,2-2.545V16.733h.311a.611.611,0,1,0,0-1.222h-.723V11.729a.611.611,0,1,0-1.222,0v3.782H22.656V6.374H24.6v2.5a.611.611,0,1,0,1.222,0V6.008a.856.856,0,0,0-.855-.855h-.257A1.983,1.983,0,0,0,25.4,2.63l-.009-.018-.011-.02L24.295.65a.761.761,0,0,0-1.329,0L21.879,2.59c-.008.015-.016.03-.023.045a1.983,1.983,0,0,0,.691,2.518H22.29a.856.856,0,0,0-.855.855v9.5h-.723a.611.611,0,0,0,0,1.222h.311V17.82a2.62,2.62,0,0,0,2,2.545v4.149l-2.5,1.787H18.153l-2.524-1.69V22.446a5.175,5.175,0,0,0,4.359-5.328,6.222,6.222,0,0,0-1.717-4.255.866.866,0,0,0-.63-.273H12.778V9.759A3.3,3.3,0,0,0,9.845,6.483V1.019A1.019,1.019,0,0,0,8.827,0H6.959A1.019,1.019,0,0,0,5.941,1.019V6.483A3.3,3.3,0,0,0,3.007,9.759V26.3H1.018A1.019,1.019,0,0,0,0,27.319v1.31a1.019,1.019,0,0,0,1.018,1.018H33.227a.611.611,0,0,0,0-1.222H1.222v-.9H39.543v.9H36.077a.611.611,0,0,0,0,1.222h3.669a1.019,1.019,0,0,0,1.018-1.018v-1.31A1.019,1.019,0,0,0,39.746,26.3H37.708l-1.379-9.03a1.107,1.107,0,0,0-.686-.846l.184-.943a1.7,1.7,0,0,0,1.307.652,1.766,1.766,0,0,0,1.473-.881,2.211,2.211,0,0,0,.543.07,1.67,1.67,0,0,0,1.188-.463,1.737,1.737,0,0,0,.417-1.655,1.755,1.755,0,0,0,.941-1.5ZM22.952,3.176l.679-1.212.679,1.214a.75.75,0,1,1-1.358,0Zm-10.4,10.636h4.929a5.07,5.07,0,0,1,1.2,2.444H11.349A5.07,5.07,0,0,1,12.553,13.812ZM7.163,1.222H8.623V6.463H7.163Zm-2.934,11.2H5.7a.611.611,0,0,0,0-1.222H4.229V9.759A2.076,2.076,0,0,1,6.3,7.685H9.486a2.075,2.075,0,0,1,2.071,2.075V11.2H8.632a.611.611,0,1,0,0,1.222h2.924V13.1a6.149,6.149,0,0,0-1.39,5.237H4.229ZM11.557,26.3H4.229V19.555h6.325a5.144,5.144,0,0,0,1,1.484V26.3Zm-.273-8.823h7.467a3.874,3.874,0,0,1-3.733,3.787,3.824,3.824,0,0,1-3.734-3.787Zm1.495,4.471a4.772,4.772,0,0,0,1.628.5v2.163L12.778,25.7Zm1.3,4.353.939-.629.939.629Zm8.165-8.481V16.732h2.773V17.82a1.386,1.386,0,1,1-2.773,0Zm.379,8.481,1.008-.721,1.007.721ZM31.834,6.7a.61.61,0,0,0,.351-.877c-.161-.292-.184-.6-.055-.725a.378.378,0,0,1,.263-.085,1.055,1.055,0,0,1,.463.125.61.61,0,0,0,.863-.369c.1-.323.3-.557.491-.557s.381.218.482.529a.611.611,0,0,0,.87.35,1.073,1.073,0,0,1,.488-.138.379.379,0,0,1,.263.085c.125.124.108.412-.041.7a.611.611,0,0,0,.37.868c.327.1.564.3.564.477a.246.246,0,0,1-.028.108,1.774,1.774,0,0,0-1.424.879l-.064-.014a1.685,1.685,0,0,0,.28-.931,1.719,1.719,0,1,0-2.185,1.641,1.6,1.6,0,0,0-.183.447.609.609,0,0,0-.661-.055,1.071,1.071,0,0,1-.489.138.378.378,0,0,1-.264-.085c-.123-.122-.106-.416.042-.7a.611.611,0,0,0-.37-.869c-.327-.1-.565-.3-.565-.477s.226-.37.536-.468Zm2.916.426a.5.5,0,1,1-.5-.485A.492.492,0,0,1,34.75,7.13Zm-.836,7.619c.015.016.028.031.044.046a1.583,1.583,0,0,0,.682.393l-.227,1.161H33.98l-.3-1.515a1.608,1.608,0,0,0,.229-.085Zm-.882-4.136a1.736,1.736,0,0,0-.163.241,1.671,1.671,0,0,0-.2-.342,2.209,2.209,0,0,0,.257-.044C32.959,10.518,32.995,10.566,33.031,10.613Zm-1.718.44a.455.455,0,1,1-.467.455A.462.462,0,0,1,31.313,11.053Zm1.419,2.495a.611.611,0,0,0-.862.369c-.1.334-.316.577-.513.577s-.4-.226-.5-.549a.611.611,0,0,0-.87-.35,1.106,1.106,0,0,1-.5.143.4.4,0,0,1-.278-.091c-.132-.13-.115-.43.04-.728a.611.611,0,0,0-.37-.869c-.339-.1-.586-.309-.586-.5s.234-.388.557-.49a.611.611,0,0,0,.351-.877c-.167-.3-.19-.621-.054-.755a.4.4,0,0,1,.277-.09,1.09,1.09,0,0,1,.478.129.611.611,0,0,0,.863-.369,1.209,1.209,0,0,1,.137-.3,1.636,1.636,0,0,0,.24,1.045,1.677,1.677,0,1,0,1.68,2.433,1.932,1.932,0,0,0,.721.794c0,.016.008.031.012.046a2.158,2.158,0,0,0-.061.475.4.4,0,0,1-.275.088,1.092,1.092,0,0,1-.478-.129ZM33.6,26.3H25.868V21.758H33.6Zm2.871,0H34.823V21.513a.977.977,0,0,0-.975-.977H32.8l.453-2.965h1.885Zm3.342-14.012a.61.61,0,0,0-.37.869.76.76,0,0,1,.035.834.471.471,0,0,1-.33.11,1.235,1.235,0,0,1-.563-.158.611.611,0,0,0-.87.35c-.118.365-.358.62-.583.62s-.478-.268-.593-.651a.61.61,0,0,0-.862-.369,1.2,1.2,0,0,1-.533.143.468.468,0,0,1-.329-.11c-.162-.16-.141-.515.05-.863a.611.611,0,0,0-.352-.876c-.37-.117-.628-.351-.628-.568s.278-.466.66-.578a.611.611,0,0,0,.37-.868.76.76,0,0,1-.035-.834.471.471,0,0,1,.33-.11,1.234,1.234,0,0,1,.562.159.611.611,0,0,0,.87-.35c.118-.365.358-.62.583-.62s.478.268.593.652a.611.611,0,0,0,.862.369,1.2,1.2,0,0,1,.533-.143.469.469,0,0,1,.329.109c.162.16.141.515-.05.863a.611.611,0,0,0,.351.877c.37.117.628.351.628.568s-.272.464-.66.578Zm0,0"/></g></svg>