<svg xmlns="http://www.w3.org/2000/svg" height="1091pt" version="1.1" viewBox="0 -259 1091.2496 1091" width="1091pt">
<g id="surface1">
<path d="M 272.808594 96.8125 C 268.917969 78.933594 253.109375 66.191406 234.816406 66.175781 L 234.816406 144.03125 C 241.980469 144.011719 249.011719 141.984375 255.078125 138.195312 Z M 272.808594 96.8125 " style=" stroke:none;fill-rule:nonzero;fill:rgb(50%,50%,50%);fill-opacity:1;" />
<path d="M 235.628906 282.363281 L 350.023438 15.457031 L 314.246094 0.125 L 199.882812 266.953125 C 120.609375 243.964844 37.117188 286.578125 9.226562 364.28125 C -18.660156 441.972656 18.652344 527.972656 94.460938 560.648438 C 170.269531 593.335938 258.417969 561.441406 295.757812 487.816406 C 333.113281 414.203125 306.789062 324.238281 235.628906 282.363281 Z M 156.96875 533.277344 C 111.816406 533.472656 70.59375 507.609375 51.125 466.867188 C 31.648438 426.136719 37.410156 377.820312 65.90625 342.800781 C 94.40625 307.78125 140.539062 292.320312 184.398438 303.113281 L 168.644531 339.84375 C 164.789062 339.152344 160.890625 338.75 156.96875 338.65625 C 118.394531 338.214844 85.191406 365.792969 78.511719 403.792969 C 71.855469 441.792969 93.703125 479.015625 130.121094 491.738281 C 166.542969 504.457031 206.816406 488.925781 225.246094 455.039062 C 243.691406 421.144531 234.863281 378.890625 204.40625 355.222656 L 219.859375 319.1875 L 221.195312 319.1875 C 264.300781 347.507812 283.6875 400.777344 268.867188 450.179688 C 254.050781 499.570312 208.542969 533.367188 156.96875 533.277344 Z M 156.96875 533.277344 " style=" stroke:none;fill-rule:nonzero;fill:rgb(50%,50%,50%);fill-opacity:1;" />
<path d="M 530.398438 280.265625 L 463.929688 280.265625 C 462.648438 280.265625 461.441406 280.90625 460.707031 281.972656 C 459.992188 283.042969 459.835938 284.398438 460.324219 285.597656 L 481.554688 338.65625 L 556.40625 338.65625 L 534.019531 282.710938 C 533.433594 281.238281 531.996094 280.265625 530.398438 280.265625 Z M 530.398438 280.265625 " style=" stroke:none;fill-rule:nonzero;fill:rgb(50%,50%,50%);fill-opacity:1;" />
<path d="M 749.015625 163.492188 C 767.296875 163.496094 785.472656 160.542969 802.824219 154.757812 C 819.660156 149.179688 837.140625 145.769531 854.832031 144.59375 C 855.746094 144.332031 856.683594 144.148438 857.628906 144.03125 L 877.089844 144.03125 C 887.847656 144.03125 896.554688 135.308594 896.554688 124.558594 C 896.554688 113.8125 887.847656 105.097656 877.089844 105.097656 L 868.9375 105.097656 C 850.648438 105.097656 832.476562 108.046875 815.132812 113.839844 C 793.789062 120.953125 771.4375 124.570312 748.941406 124.558594 L 612.613281 124.558594 C 617.667969 137.039062 621.074219 150.128906 622.726562 163.492188 Z M 749.015625 163.492188 " style=" stroke:none;fill-rule:nonzero;fill:rgb(50%,50%,50%);fill-opacity:1;" />
<path d="M 728.828125 241.339844 L 748.289062 202.414062 L 630.777344 202.414062 L 642.453125 241.339844 Z M 728.828125 241.339844 " style=" stroke:none;fill-rule:nonzero;fill:rgb(50%,50%,50%);fill-opacity:1;" />
<path d="M 578.347656 163.492188 L 564.167969 117.023438 C 542.582031 85.304688 506.738281 66.273438 468.367188 66.175781 L 390.519531 66.175781 C 358.277344 66.175781 332.128906 92.316406 332.128906 124.558594 L 332.128906 144.03125 C 332.128906 154.777344 340.84375 163.492188 351.59375 163.492188 Z M 578.347656 163.492188 " style=" stroke:none;fill-rule:nonzero;fill:rgb(50%,50%,50%);fill-opacity:1;" />
<path d="M 546.226562 237.457031 C 546.183594 239.789062 545.949219 242.101562 545.527344 244.398438 C 556.738281 248.511719 565.6875 257.183594 570.160156 268.257812 L 598.324219 338.65625 L 624.070312 338.65625 C 626.527344 338.65625 628.832031 339.15625 631.214844 339.375 L 609.691406 267.632812 C 609.527344 267.1875 609.210938 266.820312 609.066406 266.351562 L 590.097656 202.414062 L 546.226562 202.414062 Z M 546.226562 237.457031 " style=" stroke:none;fill-rule:nonzero;fill:rgb(50%,50%,50%);fill-opacity:1;" />
<path d="M 421.382812 280.265625 C 423.300781 258.199219 441.789062 241.289062 463.929688 241.339844 L 503.417969 241.339844 C 505.558594 241.339844 507.292969 239.601562 507.292969 237.457031 L 507.292969 202.414062 L 351.59375 202.414062 C 349.074219 202.324219 346.558594 202.074219 344.058594 201.652344 L 377.148438 286.804688 C 383.410156 282.601562 390.761719 280.328125 398.316406 280.265625 Z M 421.382812 280.265625 " style=" stroke:none;fill-rule:nonzero;fill:rgb(50%,50%,50%);fill-opacity:1;" />
<path d="M 935.476562 435.96875 L 935.476562 397.039062 L 701.347656 397.039062 L 700.097656 399.714844 L 699.984375 399.714844 C 700.210938 400.777344 700.355469 401.875 700.546875 402.984375 C 702.402344 411.972656 702.402344 421.238281 700.546875 430.226562 C 700.332031 431.511719 700.097656 432.777344 699.804688 434.121094 C 699.660156 434.800781 699.582031 435.5 699.394531 436.1875 L 935.476562 436.1875 Z M 935.476562 435.96875 " style=" stroke:none;fill-rule:nonzero;fill:rgb(50%,50%,50%);fill-opacity:1;" />
<path d="M 954.9375 474.894531 L 884.101562 474.894531 C 887.265625 477.660156 890.667969 480.144531 894.238281 482.351562 C 895.378906 483.046875 896.535156 483.632812 897.703125 484.292969 C 900.277344 485.757812 902.945312 487.054688 905.683594 488.183594 C 907.042969 488.773438 908.453125 489.300781 909.84375 489.78125 C 912.675781 490.765625 915.542969 491.574219 918.445312 492.21875 C 919.777344 492.515625 921.054688 492.871094 922.34375 493.09375 C 926.675781 493.894531 931.078125 494.320312 935.476562 494.355469 C 978.480469 494.355469 1013.324219 459.492188 1013.324219 416.5 C 1013.324219 373.503906 978.480469 338.65625 935.476562 338.65625 C 931.128906 338.6875 926.773438 339.09375 922.476562 339.859375 C 921.140625 340.078125 919.855469 340.453125 918.59375 340.734375 C 915.671875 341.378906 912.800781 342.191406 909.992188 343.171875 C 908.582031 343.648438 907.191406 344.179688 905.820312 344.765625 C 903.082031 345.894531 900.417969 347.195312 897.84375 348.652344 C 896.675781 349.296875 895.507812 349.878906 894.378906 350.605469 C 890.792969 352.804688 887.398438 355.292969 884.242188 358.058594 L 954.9375 358.058594 C 965.695312 358.058594 974.402344 366.773438 974.402344 377.519531 L 974.402344 455.378906 C 974.429688 460.546875 972.375 465.515625 968.734375 469.171875 C 965.082031 472.835938 960.125 474.894531 954.9375 474.894531 Z M 954.9375 474.894531 " style=" stroke:none;fill-rule:nonzero;fill:rgb(50%,50%,50%);fill-opacity:1;" />
<path d="M 935.476562 260.800781 C 871.960938 260.527344 814.726562 299.117188 791.191406 358.117188 L 834.449219 358.117188 C 834.820312 357.449219 835.304688 356.894531 835.691406 356.171875 C 836.835938 354.230469 838.105469 352.527344 839.355469 350.722656 C 841.1875 348.054688 843.027344 345.40625 845.078125 342.9375 C 846.496094 341.195312 848 339.546875 849.511719 337.898438 C 851.625 335.589844 853.800781 333.339844 856.078125 331.21875 C 857.730469 329.660156 859.4375 328.183594 861.171875 326.738281 C 863.546875 324.773438 866 322.90625 868.527344 321.136719 C 870.382812 319.839844 872.222656 318.574219 874.15625 317.363281 C 876.808594 315.726562 879.519531 314.25 882.304688 312.820312 C 884.25 311.816406 886.203125 310.765625 888.148438 309.863281 C 891.125 308.550781 894.1875 307.453125 897.253906 306.390625 C 899.203125 305.703125 901.152344 304.925781 903.097656 304.347656 C 906.558594 303.351562 910.101562 302.644531 913.65625 301.984375 C 915.421875 301.648438 917.128906 301.175781 918.917969 300.910156 C 964.199219 294.359375 1009.125 314.835938 1033.875 353.3125 C 1058.628906 391.796875 1058.628906 441.175781 1033.875 479.648438 C 1009.125 518.128906 964.199219 538.613281 918.917969 532.050781 C 917.128906 531.800781 915.398438 531.316406 913.628906 530.976562 C 910.082031 530.308594 906.558594 529.621094 903.117188 528.636719 C 901.078125 528.050781 899.21875 527.265625 897.144531 526.566406 C 894.058594 525.507812 891.011719 524.425781 888.046875 523.097656 C 886.109375 522.210938 884.160156 521.152344 882.210938 520.148438 C 879.429688 518.722656 876.699219 517.246094 874.050781 515.617188 C 872.113281 514.410156 870.289062 513.136719 868.429688 511.835938 C 865.902344 510.0625 863.472656 508.210938 861.074219 506.222656 C 859.347656 504.792969 857.628906 503.308594 855.980469 501.75 C 853.683594 499.628906 851.515625 497.394531 849.414062 495.082031 C 847.890625 493.417969 846.398438 491.769531 844.972656 490.03125 C 843.027344 487.523438 841.09375 484.878906 839.261719 482.246094 C 838.011719 480.441406 836.75 478.679688 835.597656 476.804688 C 835.210938 476.136719 834.722656 475.578125 834.347656 474.859375 L 791.191406 474.859375 C 820.535156 547.457031 899.242188 586.976562 975.003906 567.117188 C 1050.75 547.273438 1099.976562 474.253906 1089.960938 396.582031 C 1079.949219 318.914062 1013.796875 260.773438 935.476562 260.800781 Z M 935.476562 260.800781 " style=" stroke:none;fill-rule:nonzero;fill:rgb(50%,50%,50%);fill-opacity:1;" />
<path d="M 654.132812 280.265625 L 677.109375 356.910156 L 712.878906 280.265625 Z M 654.132812 280.265625 " style=" stroke:none;fill-rule:nonzero;fill:rgb(50%,50%,50%);fill-opacity:1;" />
<path d="M 431.835938 319.1875 L 398.316406 319.1875 L 415.394531 359.769531 C 422.980469 352.722656 431.898438 347.253906 441.609375 343.683594 Z M 431.835938 319.1875 " style=" stroke:none;fill-rule:nonzero;fill:rgb(50%,50%,50%);fill-opacity:1;" />
<path d="M 507.292969 416.5 C 507.292969 437.996094 489.878906 455.433594 468.367188 455.433594 C 446.871094 455.433594 429.449219 437.996094 429.449219 416.5 C 429.449219 395.007812 446.871094 377.585938 468.367188 377.585938 C 489.878906 377.585938 507.292969 395.007812 507.292969 416.5 Z M 507.292969 416.5 " style=" stroke:none;fill-rule:nonzero;fill:rgb(50%,50%,50%);fill-opacity:1;" />
<path d="M 661.542969 406.5625 C 659.902344 400.652344 656.945312 395.179688 652.859375 390.601562 C 652.769531 390.480469 652.671875 390.332031 652.589844 390.1875 C 645.277344 382.179688 634.925781 377.609375 624.070312 377.585938 L 535.40625 377.585938 C 549.832031 401.535156 549.832031 431.492188 535.40625 455.433594 L 624.070312 455.433594 C 634.925781 455.410156 645.277344 450.832031 652.589844 442.820312 C 652.671875 442.679688 652.769531 442.546875 652.859375 442.410156 C 656.945312 437.832031 659.902344 432.367188 661.542969 426.449219 C 661.71875 425.867188 661.957031 425.328125 662.082031 424.738281 C 663.308594 419.320312 663.308594 413.691406 662.082031 408.277344 C 661.957031 407.691406 661.71875 407.148438 661.542969 406.5625 Z M 661.542969 406.5625 " style=" stroke:none;fill-rule:nonzero;fill:rgb(50%,50%,50%);fill-opacity:1;" />
</g>
</svg>