<svg id="Symbol_79_19" data-name="Symbol 79 – 19" xmlns="http://www.w3.org/2000/svg" xmlns:xlink="http://www.w3.org/1999/xlink" width="375" height="56" viewBox="0 0 375 56">
  <defs>
    <clipPath id="clip-path">
      <rect width="3" height="15" fill="none"/>
    </clipPath>
  </defs>
  <path id="Rectangle_192" data-name="Rectangle 192" d="M28,0H347a28,28,0,0,1,28,28V56a0,0,0,0,1,0,0H0a0,0,0,0,1,0,0V28A28,28,0,0,1,28,0Z" fill="#00aeef"/>
  <g id="Symbol_25_1" data-name="Symbol 25 – 1" transform="translate(346 21)" opacity="0.3" clip-path="url(#clip-path)">
    <path id="Union_1" data-name="Union 1" d="M0,13.5A1.5,1.5,0,1,1,1.5,15,1.5,1.5,0,0,1,0,13.5Zm0-6A1.5,1.5,0,1,1,1.5,9,1.5,1.5,0,0,1,0,7.5Zm0-6A1.5,1.5,0,1,1,1.5,3,1.5,1.5,0,0,1,0,1.5Z" fill="#fff"/>
  </g>
  <path id="Icon_ionic-md-home" data-name="Icon ionic-md-home" d="M10.042,20.5V15.167h4V20.5h4.067v-8h2.6l-8.667-8-8.667,8h2.6v8Z" transform="translate(22.183 16)" fill="#fff"/>
  <path id="Icon_awesome-building" data-name="Icon awesome-building" d="M13.625,15H13V.75A.75.75,0,0,0,12.25,0H1.75A.75.75,0,0,0,1,.75V15H.375A.375.375,0,0,0,0,15.375V16H14v-.625A.375.375,0,0,0,13.625,15ZM4,2.375A.375.375,0,0,1,4.375,2h1.25A.375.375,0,0,1,6,2.375v1.25A.375.375,0,0,1,5.625,4H4.375A.375.375,0,0,1,4,3.625Zm0,3A.375.375,0,0,1,4.375,5h1.25A.375.375,0,0,1,6,5.375v1.25A.375.375,0,0,1,5.625,7H4.375A.375.375,0,0,1,4,6.625ZM5.625,10H4.375A.375.375,0,0,1,4,9.625V8.375A.375.375,0,0,1,4.375,8h1.25A.375.375,0,0,1,6,8.375v1.25A.375.375,0,0,1,5.625,10ZM8,15H6V12.375A.375.375,0,0,1,6.375,12h1.25A.375.375,0,0,1,8,12.375Zm2-5.375A.375.375,0,0,1,9.625,10H8.375A.375.375,0,0,1,8,9.625V8.375A.375.375,0,0,1,8.375,8h1.25A.375.375,0,0,1,10,8.375Zm0-3A.375.375,0,0,1,9.625,7H8.375A.375.375,0,0,1,8,6.625V5.375A.375.375,0,0,1,8.375,5h1.25A.375.375,0,0,1,10,5.375Zm0-3A.375.375,0,0,1,9.625,4H8.375A.375.375,0,0,1,8,3.625V2.375A.375.375,0,0,1,8.375,2h1.25A.375.375,0,0,1,10,2.375Z" transform="translate(152 20)" fill="#fff" opacity="0.3"/>
  <g id="Group_13" data-name="Group 13" transform="translate(8 -50)" opacity="0.3">
    <path id="Icon_awesome-hand-holding" data-name="Icon awesome-hand-holding" d="M17.28,22.748a1.012,1.012,0,0,0-1.3,0l-2.824,2.259a1.946,1.946,0,0,1-1.223.428H8.314a.489.489,0,0,1,0-.978h2.393a1.018,1.018,0,0,0,1.018-.813A.979.979,0,0,0,10.76,22.5H5.869a3.6,3.6,0,0,0-2.265.8L2.183,24.456H.489A.491.491,0,0,0,0,24.945V27.88a.491.491,0,0,0,.489.489H11.4a1.959,1.959,0,0,0,1.223-.428l4.622-3.7A.978.978,0,0,0,17.28,22.748Z" transform="translate(77 57.433)" fill="#fff"/>
    <path id="Icon_ionic-md-home-2" data-name="Icon ionic-md-home" d="M6.657,12.377V9.752H8.627v2.626h2V8.439h1.28L7.642,4.5,3.375,8.439h1.28v3.939Z" transform="translate(78.183 66)" fill="#fff"/>
  </g>
  <path id="Icon_metro-local-service" data-name="Icon metro-local-service" d="M11.848,17.005a3.2,3.2,0,0,0,4.524-4.524ZM18.912,5.149l-9.6-.008a1.6,1.6,0,0,0-1.6,1.6v12.8a1.6,1.6,0,0,0,1.6,1.6h9.6a1.6,1.6,0,0,0,1.6-1.6V6.741a1.593,1.593,0,0,0-1.6-1.592Zm-6.4,1.592a.8.8,0,1,1-.8.8A.8.8,0,0,1,12.512,6.741Zm-2.4,0a.8.8,0,1,1-.8.8A.8.8,0,0,1,10.112,6.741Zm4,12.8a4.8,4.8,0,1,1,4.8-4.8A4.8,4.8,0,0,1,14.112,19.541Z" transform="translate(212.288 14.859)" fill="#fff" opacity="0.3"/>
  <path id="Icon_map-night-club" data-name="Icon map-night-club" d="M24.462,6.48H16.72a25.477,25.477,0,0,0,.516,8.258A3.291,3.291,0,0,0,19.817,15.9v5.035h-.172L17.752,22.48H23.43l-1.85-1.548h-.215V15.859a4.076,4.076,0,0,0,2.581-1.121,25.4,25.4,0,0,0,.516-8.258Zm-.516,3.1h-6.71V7h6.71ZM11.3,20.932H8.462V16.545l5.677-8.516H.72L6.4,16.545v4.387H3.559a.774.774,0,0,0,0,1.548H11.3a.774.774,0,1,0,0-1.548Z" transform="translate(280.28 13.52)" fill="#fff" opacity="0.3"/>
</svg>
