<svg id="Component_11_1" data-name="Component 11 – 1" xmlns="http://www.w3.org/2000/svg" xmlns:xlink="http://www.w3.org/1999/xlink" width="148.743" height="75.081" viewBox="0 0 148.743 75.081">
  <defs>
    <linearGradient id="linear-gradient" x1="0.5" y1="1" x2="0.5" gradientUnits="objectBoundingBox">
      <stop offset="0" stop-color="gray" stop-opacity="0.251"/>
      <stop offset="0.54" stop-color="gray" stop-opacity="0.122"/>
      <stop offset="1" stop-color="gray" stop-opacity="0.102"/>
    </linearGradient>
    <linearGradient id="linear-gradient-2" x1="0.5" y1="1" x2="0.5" y2="0" xlink:href="#linear-gradient"/>
    <linearGradient id="linear-gradient-3" x1="0.5" y1="1" x2="0.5" y2="0" xlink:href="#linear-gradient"/>
    <linearGradient id="linear-gradient-5" x1="0.5" y1="1" x2="0.5" y2="0" xlink:href="#linear-gradient"/>
    <linearGradient id="linear-gradient-6" x1="0.501" y1="1" x2="0.501" y2="0" xlink:href="#linear-gradient"/>
    <linearGradient id="linear-gradient-7" x1="0.5" y1="1" x2="0.5" y2="0" xlink:href="#linear-gradient"/>
    <linearGradient id="linear-gradient-12" x1="0.5" y1="1" x2="0.5" y2="0" xlink:href="#linear-gradient"/>
    <linearGradient id="linear-gradient-13" x1="0.5" y1="1" x2="0.5" y2="0" xlink:href="#linear-gradient"/>
    <linearGradient id="linear-gradient-17" x1="0.5" y1="1" x2="0.5" y2="0" xlink:href="#linear-gradient"/>
    <linearGradient id="linear-gradient-18" x1="0.501" y1="1" x2="0.501" y2="0" xlink:href="#linear-gradient"/>
    <linearGradient id="linear-gradient-19" x1="0.5" y1="1" x2="0.5" gradientUnits="objectBoundingBox">
      <stop offset="0" stop-color="#b3b3b3" stop-opacity="0.251"/>
      <stop offset="0.54" stop-color="#b3b3b3" stop-opacity="0.102"/>
      <stop offset="1" stop-color="#b3b3b3" stop-opacity="0.051"/>
    </linearGradient>
    <linearGradient id="linear-gradient-20" x1="0.5" y1="1.001" x2="0.5" gradientUnits="objectBoundingBox">
      <stop offset="0" stop-opacity="0.122"/>
      <stop offset="0.55" stop-opacity="0.09"/>
      <stop offset="1" stop-opacity="0.02"/>
    </linearGradient>
    <linearGradient id="linear-gradient-21" x1="0.5" y1="0.999" x2="0.5" y2="0" xlink:href="#linear-gradient-20"/>
  </defs>
  <circle id="Ellipse_16" data-name="Ellipse 16" cx="28.074" cy="28.074" r="28.074" transform="translate(5.2 8.106)" opacity="0.3" stroke="#ff9800" stroke-miterlimit="10" stroke-width="4" stroke-dasharray="12" fill="none"/>
  <circle id="Ellipse_17" data-name="Ellipse 17" cx="28.074" cy="28.074" r="28.074" transform="translate(79.242 2.553)" opacity="0.3" stroke="#ff9800" stroke-miterlimit="10" stroke-width="4" stroke-dasharray="12" fill="none"/>
  <g id="_Group_" data-name="&lt;Group&gt;" transform="translate(115.001 24.172)">
    <path id="Path_447" data-name="Path 447" d="M894.988,423.453a6.942,6.942,0,0,1-1.885-4.75,7.052,7.052,0,0,1,3.458-6.027,4.091,4.091,0,0,1-.722-2.314,4.29,4.29,0,0,1,4.362-4.214,4.342,4.342,0,0,1,4.185,3.034,6.545,6.545,0,0,1,5.565-3.034,6.394,6.394,0,0,1,6.5,6.28,6.078,6.078,0,0,1-.4,2.167c.131-.009.264-.02.4-.02a5.131,5.131,0,0,1,5.217,5.041,4.907,4.907,0,0,1-.026.509,6.26,6.26,0,0,1,3.918,5.751,6.372,6.372,0,0,1-6.479,6.26,6.732,6.732,0,0,1-1.121-.1c.018.208.031.42.031.632a7.151,7.151,0,0,1-7.27,7.025,7.4,7.4,0,0,1-4.14-1.251,5.519,5.519,0,0,1-3.515,1.251,5.341,5.341,0,0,1-5.431-5.245c0-.125.011-.248.02-.372h-.02a5.72,5.72,0,0,1-5.815-5.62A5.6,5.6,0,0,1,894.988,423.453Z" transform="translate(-891.82 -406.149)" fill="url(#linear-gradient)"/>
  </g>
  <path id="_Path_" data-name="&lt;Path&gt;" d="M899.543,427.337a6.649,6.649,0,0,1-1.8-4.546,6.748,6.748,0,0,1,3.31-5.769,3.915,3.915,0,0,1-.691-2.22,4.107,4.107,0,0,1,4.176-4.034,4.165,4.165,0,0,1,4.011,2.9,6.266,6.266,0,0,1,5.317-2.9,6.119,6.119,0,0,1,6.221,6.016,5.815,5.815,0,0,1-.381,2.075c.127-.009.253-.019.381-.019a4.911,4.911,0,0,1,4.993,4.825,4.66,4.66,0,0,1-.026.487,6,6,0,0,1,3.75,5.5,6.1,6.1,0,0,1-6.2,5.991,6.449,6.449,0,0,1-1.081-.091c.019.2.03.4.03.6a6.844,6.844,0,0,1-6.958,6.722,7.1,7.1,0,0,1-3.963-1.2,5.283,5.283,0,0,1-3.352,1.2,5.113,5.113,0,0,1-5.2-5.023c0-.12.009-.238.018-.356h-.018a5.475,5.475,0,0,1-5.567-5.379A5.36,5.36,0,0,1,899.543,427.337Z" transform="translate(-780.785 -385.884)" fill="#009688"/>
  <line id="_Path_2" data-name="&lt;Path&gt;" y2="37.367" transform="translate(130.552 34.421)" fill="#795548"/>
  <rect id="Rectangle_581" data-name="Rectangle 581" width="2.035" height="37.365" transform="translate(129.5 34.421)" fill="url(#linear-gradient-2)"/>
  <rect id="Rectangle_582" data-name="Rectangle 582" width="1.126" height="37.365" transform="translate(129.989 34.421)" fill="#795548"/>
  <line id="_Path_3" data-name="&lt;Path&gt;" x1="6.673" y1="6.806" transform="translate(123.993 38.806)" fill="#795548"/>
  <rect id="Rectangle_583" data-name="Rectangle 583" width="1.126" height="9.531" transform="matrix(0.714, -0.7, 0.7, 0.714, 123.592, 39.198)" fill="#795548"/>
  <line id="_Path_4" data-name="&lt;Path&gt;" y1="4.853" x2="6.917" transform="translate(130.666 46.608)" fill="#795548"/>
  <rect id="Rectangle_584" data-name="Rectangle 584" width="8.45" height="1.126" transform="translate(130.342 50.999) rotate(-35.06)" fill="#795548"/>
  <g id="_Group_2" data-name="&lt;Group&gt;" transform="translate(102.084 24.44)">
    <path id="Path_448" data-name="Path 448" d="M837.6,425.581a7.364,7.364,0,0,0-1.519-11.014,4.354,4.354,0,0,0,.7-2.371,4.2,4.2,0,0,0-8.253-1.206,6.246,6.246,0,0,0-5.373-3.1,6.349,6.349,0,0,0-6.277,6.419,6.534,6.534,0,0,0,.384,2.215c-.127-.009-.255-.02-.384-.02a5.1,5.1,0,0,0-5.038,5.152c0,.176.009.349.026.52a6.4,6.4,0,0,0-3.784,5.877,6.328,6.328,0,0,0,6.255,6.4,6.151,6.151,0,0,0,1.08-.1c-.019.213-.029.429-.029.646a7.1,7.1,0,0,0,7.02,7.179,6.878,6.878,0,0,0,4-1.279,5.152,5.152,0,0,0,3.394,1.279,5.305,5.305,0,0,0,5.245-5.363c0-.128-.011-.255-.019-.381h.019a5.679,5.679,0,0,0,5.615-5.743A5.757,5.757,0,0,0,837.6,425.581Z" transform="translate(-808.079 -407.89)" fill="url(#linear-gradient-3)"/>
  </g>
  <path id="_Path_5" data-name="&lt;Path&gt;" d="M842.319,431.315a6.912,6.912,0,0,0-1.427-10.335,4.088,4.088,0,0,0,.654-2.226,3.939,3.939,0,0,0-7.74-1.134,5.862,5.862,0,0,0-5.044-2.911,5.96,5.96,0,0,0-5.891,6.025,6.136,6.136,0,0,0,.361,2.079c-.119-.009-.239-.018-.361-.018a4.779,4.779,0,0,0-4.728,4.836,4.66,4.66,0,0,0,.025.487,6.016,6.016,0,0,0-3.548,5.518,5.936,5.936,0,0,0,5.872,6.005,5.776,5.776,0,0,0,1.017-.091c-.017.2-.028.4-.028.606a6.663,6.663,0,0,0,6.588,6.738,6.456,6.456,0,0,0,3.751-1.2,4.836,4.836,0,0,0,3.185,1.2,4.98,4.98,0,0,0,4.922-5.035c0-.12-.009-.239-.017-.358h.017a5.332,5.332,0,0,0,5.271-5.391A5.4,5.4,0,0,0,842.319,431.315Z" transform="translate(-711.527 -389.217)" fill="#00897b"/>
  <rect id="Rectangle_585" data-name="Rectangle 585" width="1.53" height="38.067" transform="translate(118.868 34.407)" fill="url(#linear-gradient-3)"/>
  <rect id="Rectangle_586" data-name="Rectangle 586" width="0.77" height="37.532" transform="translate(119.303 34.942)" fill="#795548"/>
  <rect id="Rectangle_587" data-name="Rectangle 587" width="9.298" height="0.77" transform="translate(119.231 45.995) rotate(-47.2)" fill="#795548"/>
  <rect id="Rectangle_588" data-name="Rectangle 588" width="0.77" height="8.159" transform="matrix(0.596, -0.803, 0.803, 0.596, 112.738, 47.576)" fill="#795548"/>
  <g id="_Group_3" data-name="&lt;Group&gt;" transform="translate(99.96 41.464)">
    <path id="Path_449" data-name="Path 449" d="M796.47,530.048a4.734,4.734,0,0,1-1.283-3.239,4.8,4.8,0,0,1,2.357-4.106,2.789,2.789,0,0,1-.492-1.581,2.924,2.924,0,0,1,2.973-2.872,2.96,2.96,0,0,1,2.852,2.067,4.461,4.461,0,0,1,3.793-2.067,4.357,4.357,0,0,1,4.43,4.279,4.138,4.138,0,0,1-.271,1.478c.09,0,.179-.014.271-.014a3.493,3.493,0,0,1,3.548,3.435,3.416,3.416,0,0,1-.019.347,4.265,4.265,0,0,1,2.67,3.92,4.342,4.342,0,0,1-4.415,4.265,4.594,4.594,0,0,1-.771-.065c.014.142.022.285.022.43a4.869,4.869,0,0,1-4.955,4.782,5.05,5.05,0,0,1-2.809-.838,3.76,3.76,0,0,1-2.4.845,3.641,3.641,0,0,1-3.7-3.576,1.531,1.531,0,0,1,.014-.253h-.014a3.9,3.9,0,0,1-3.963-3.829,3.817,3.817,0,0,1,2.16-3.409Z" transform="translate(-794.31 -518.249)" fill="url(#linear-gradient-5)"/>
  </g>
  <path id="_Path_6" data-name="&lt;Path&gt;" d="M799.533,532.739a4.531,4.531,0,0,1-1.234-3.1,4.6,4.6,0,0,1,2.257-3.93,2.669,2.669,0,0,1-.47-1.513,2.8,2.8,0,0,1,2.844-2.749,2.832,2.832,0,0,1,2.73,1.979,4.27,4.27,0,0,1,3.63-1.979,4.171,4.171,0,0,1,4.24,4.1,3.964,3.964,0,0,1-.259,1.415c.086,0,.171-.012.259-.012a3.347,3.347,0,0,1,3.4,3.287,3.237,3.237,0,0,1-.017.332,4.083,4.083,0,0,1,2.556,3.751,4.157,4.157,0,0,1-4.227,4.083,4.388,4.388,0,0,1-.731-.062c.012.136.02.273.02.412a4.664,4.664,0,0,1-4.742,4.581,4.834,4.834,0,0,1-2.7-.816,3.6,3.6,0,0,1-2.292.816,3.489,3.489,0,0,1-3.548-3.423,1.569,1.569,0,0,1,.012-.242h-.012A3.731,3.731,0,0,1,797.46,536,3.653,3.653,0,0,1,799.533,532.739Z" transform="translate(-697.014 -479.492)" fill="#009688"/>
  <line id="_Path_7" data-name="&lt;Path&gt;" y2="25.463" transform="translate(110.557 48.455)" fill="#795548"/>
  <rect id="Rectangle_589" data-name="Rectangle 589" width="1.387" height="25.463" transform="translate(109.84 48.455)" fill="url(#linear-gradient-6)"/>
  <rect id="Rectangle_590" data-name="Rectangle 590" width="0.767" height="25.463" transform="translate(110.173 48.455)" fill="#795548"/>
  <line id="_Path_8" data-name="&lt;Path&gt;" x1="4.546" y1="4.638" transform="translate(106.089 51.443)" fill="#795548"/>
  <rect id="Rectangle_591" data-name="Rectangle 591" width="0.767" height="6.494" transform="matrix(0.714, -0.7, 0.7, 0.714, 105.814, 51.709)" fill="#795548"/>
  <line id="_Path_9" data-name="&lt;Path&gt;" y1="3.307" x2="4.714" transform="translate(110.634 56.76)" fill="#795548"/>
  <rect id="Rectangle_592" data-name="Rectangle 592" width="5.758" height="0.767" transform="translate(110.415 59.751) rotate(-35.06)" fill="#795548"/>
  <g id="_Group_4" data-name="&lt;Group&gt;" transform="translate(95.349 42.144)">
    <path id="Path_450" data-name="Path 450" d="M784.235,534.534a4.936,4.936,0,0,0-1.02-7.392,2.93,2.93,0,0,0,.463-1.592,2.82,2.82,0,0,0-5.539-.81,4.193,4.193,0,0,0-3.6-2.081,4.261,4.261,0,0,0-4.213,4.308,4.387,4.387,0,0,0,.258,1.487c-.085,0-.171-.014-.258-.014a3.42,3.42,0,0,0-3.381,3.458,2.4,2.4,0,0,0,.017.349,4.3,4.3,0,0,0-2.539,3.946,4.248,4.248,0,0,0,4.2,4.294,4.144,4.144,0,0,0,.727-.065c-.012.143-.02.287-.02.433a4.767,4.767,0,0,0,4.711,4.819,4.617,4.617,0,0,0,2.683-.858,3.458,3.458,0,0,0,2.278.858,3.56,3.56,0,0,0,3.52-3.6,1.772,1.772,0,0,0-.012-.256h.012a3.813,3.813,0,0,0,3.77-3.856A3.864,3.864,0,0,0,784.235,534.534Z" transform="translate(-764.419 -522.66)" fill="url(#linear-gradient-7)"/>
  </g>
  <path id="_Path_10" data-name="&lt;Path&gt;" d="M787.378,538.378a4.64,4.64,0,0,0-.958-6.941,2.746,2.746,0,0,0,.44-1.493,2.647,2.647,0,0,0-5.2-.76,3.935,3.935,0,0,0-3.386-1.953,4,4,0,0,0-3.954,4.044,4.117,4.117,0,0,0,.242,1.4c-.08,0-.154-.012-.242-.012a3.21,3.21,0,0,0-3.173,3.239,2.287,2.287,0,0,0,.015.327,4.034,4.034,0,0,0-2.383,3.7,3.987,3.987,0,0,0,3.941,4.031,3.862,3.862,0,0,0,.682-.062q-.018.2-.018.407a4.474,4.474,0,0,0,4.422,4.523,4.334,4.334,0,0,0,2.519-.805,3.239,3.239,0,0,0,2.138.805,3.343,3.343,0,0,0,3.3-3.378,1.584,1.584,0,0,0-.012-.239h.012a3.579,3.579,0,0,0,3.539-3.619A3.627,3.627,0,0,0,787.378,538.378Z" transform="translate(-672.758 -484.381)" fill="#00897b"/>
  <rect id="Rectangle_593" data-name="Rectangle 593" width="1.027" height="25.551" transform="translate(106.618 48.834)" fill="url(#linear-gradient-3)"/>
  <rect id="Rectangle_594" data-name="Rectangle 594" width="0.517" height="25.191" transform="translate(106.909 49.194)" fill="#795548"/>
  <rect id="Rectangle_595" data-name="Rectangle 595" width="6.241" height="0.517" transform="translate(106.859 56.611) rotate(-47.2)" fill="#795548"/>
  <rect id="Rectangle_596" data-name="Rectangle 596" width="0.517" height="5.476" transform="matrix(0.596, -0.803, 0.803, 0.596, 102.501, 57.673)" fill="#795548"/>
  <rect id="Rectangle_597" data-name="Rectangle 597" width="43.5" height="38.718" transform="translate(62.515 36.303)" fill="url(#linear-gradient-3)"/>
  <rect id="Rectangle_598" data-name="Rectangle 598" width="70.957" height="37.484" transform="translate(33.978 36.303)" fill="#fff"/>
  <path id="Path_451" data-name="Path 451" d="M466.293,408.992H396.57v-18.2h67.178a2.545,2.545,0,0,1,2.545,2.545Z" transform="translate(-357.963 -368.987)" fill="url(#linear-gradient-3)"/>
  <path id="Path_452" data-name="Path 452" d="M250.26,146h66.579a2.545,2.545,0,0,1,2.545,2.545v14.468H250.26Z" transform="translate(-211.655 -123.477)" fill="#2ba01a"/>
  <path id="Path_453" data-name="Path 453" d="M250.26,146h66.579a2.545,2.545,0,0,1,2.545,2.545v14.468H250.26Z" transform="translate(-211.655 -123.477)" fill="#fff" opacity="0.7"/>
  <path id="Path_454" data-name="Path 454" d="M117.324,13.32,93.26,30.266V86.282h48.127V30.266Z" transform="translate(-78.873 -11.263)" fill="url(#linear-gradient-3)"/>
  <path id="Path_455" data-name="Path 455" d="M147.919,29.981,125.09,13.32,102.26,29.981V44.017h45.659Z" transform="translate(-86.484 -11.263)" fill="#2ba01a"/>
  <path id="Path_456" data-name="Path 456" d="M147.919,29.981,125.09,13.32,102.26,29.981V44.017h45.659Z" transform="translate(-86.484 -11.263)" fill="#fff" opacity="0.5"/>
  <rect id="Rectangle_599" data-name="Rectangle 599" width="45.659" height="41.032" transform="translate(15.776 32.755)" fill="#fff"/>
  <path id="Path_457" data-name="Path 457" d="M123.786,29.048,98.026,10.653,71.957,29.048l-1.7-6.469L98.026,2.37l27.766,20.209Z" transform="translate(-59.421 -2.002)" fill="url(#linear-gradient-12)"/>
  <path id="Path_458" data-name="Path 458" d="M129.868,31.1,104.344,12.518,78.821,31.1,77.73,25.278,104.344,5.91l26.615,19.368Z" transform="translate(-65.738 -4.996)" fill="#2ba01a"/>
  <path id="Path_459" data-name="Path 459" d="M129.868,31.1,104.344,12.518,78.821,31.1,77.73,25.278,104.344,5.91l26.615,19.368Z" transform="translate(-65.738 -4.996)" opacity="0.2"/>
  <rect id="Rectangle_600" data-name="Rectangle 600" width="25.915" height="32.085" transform="translate(25.648 41.702)" fill="#f2f2f2"/>
  <rect id="Rectangle_601" data-name="Rectangle 601" width="25.915" height="5.553" transform="translate(25.648 41.702)" fill="#2ba01a"/>
  <rect id="Rectangle_602" data-name="Rectangle 602" width="25.915" height="5.553" transform="translate(25.648 68.233)" fill="#2ba01a"/>
  <path id="Path_460" data-name="Path 460" d="M676.631,650.463a.231.231,0,1,0-.231-.231A.231.231,0,0,0,676.631,650.463Z" transform="translate(-594.628 -588.213)" fill="lime"/>
  <rect id="Rectangle_603" data-name="Rectangle 603" width="12.649" height="23.447" transform="translate(75.626 50.34)" fill="#f2f2f2"/>
  <rect id="Rectangle_604" data-name="Rectangle 604" width="11.878" height="8.638" transform="translate(91.515 45.404)" fill="#f2f2f2"/>
  <rect id="Rectangle_605" data-name="Rectangle 605" width="11.878" height="3.856" transform="translate(91.515 45.404)" fill="#2ba01a" opacity="0.2"/>
  <g id="_Group_5" data-name="&lt;Group&gt;" transform="translate(7.558 48.029)">
    <path id="Path_461" data-name="Path 461" d="M197.1,570.64a3.946,3.946,0,0,1-1.08-2.7,4.011,4.011,0,0,1,1.965-3.423,2.325,2.325,0,0,1-.41-1.317,2.437,2.437,0,0,1,2.477-2.394,2.468,2.468,0,0,1,2.382,1.726,3.719,3.719,0,0,1,3.162-1.723,3.633,3.633,0,0,1,3.693,3.568,3.454,3.454,0,0,1-.227,1.234c.076,0,.154-.011.227-.011a2.914,2.914,0,0,1,2.963,2.863,2.811,2.811,0,0,1-.015.288,3.555,3.555,0,0,1,2.226,3.267,3.619,3.619,0,0,1-3.681,3.556,3.809,3.809,0,0,1-.637-.054c.011.119.017.238.017.36a4.063,4.063,0,0,1-4.129,3.99,4.209,4.209,0,0,1-2.352-.711,3.136,3.136,0,0,1-2,.711,3.039,3.039,0,0,1-3.085-2.982,1.377,1.377,0,0,1,.011-.211h-.011a3.25,3.25,0,0,1-3.3-3.192,3.181,3.181,0,0,1,1.806-2.848Z" transform="translate(-195.29 -560.808)" fill="url(#linear-gradient-13)"/>
  </g>
  <path id="_Path_11" data-name="&lt;Path&gt;" d="M199.691,572.861a3.778,3.778,0,0,1-1.024-2.582,3.833,3.833,0,0,1,1.88-3.276,2.225,2.225,0,0,1-.392-1.262,2.332,2.332,0,0,1,2.372-2.292A2.362,2.362,0,0,1,204.8,565.1a3.559,3.559,0,0,1,3.026-1.649,3.476,3.476,0,0,1,3.534,3.415,3.306,3.306,0,0,1-.216,1.178c.071,0,.143-.011.216-.011a2.794,2.794,0,0,1,2.837,2.741,2.679,2.679,0,0,1-.014.276,3.4,3.4,0,0,1,2.129,3.128,3.465,3.465,0,0,1-3.523,3.4,3.66,3.66,0,0,1-.617-.052c.01.112.017.228.017.344a3.888,3.888,0,0,1-3.954,3.819A4.029,4.029,0,0,1,206,581.01a3,3,0,0,1-1.911.68,2.9,2.9,0,0,1-2.952-2.854,1.254,1.254,0,0,1,.011-.2h-.011a3.111,3.111,0,0,1-3.162-3.056A3.045,3.045,0,0,1,199.691,572.861Z" transform="translate(-189.998 -515.012)" fill="#009688"/>
  <line id="_Path_12" data-name="&lt;Path&gt;" y2="21.227" transform="translate(16.394 53.854)" fill="#795548"/>
  <rect id="Rectangle_606" data-name="Rectangle 606" width="1.157" height="21.227" transform="translate(15.796 53.854)" fill="url(#linear-gradient-3)"/>
  <rect id="Rectangle_607" data-name="Rectangle 607" width="0.639" height="21.227" transform="translate(16.073 53.854)" fill="#795548"/>
  <line id="_Path_13" data-name="&lt;Path&gt;" x1="3.792" y1="3.867" transform="translate(12.667 56.343)" fill="#795548"/>
  <rect id="Rectangle_608" data-name="Rectangle 608" width="0.639" height="5.414" transform="matrix(0.714, -0.7, 0.7, 0.714, 12.439, 56.565)" fill="#795548"/>
  <line id="_Path_14" data-name="&lt;Path&gt;" y1="2.757" x2="3.929" transform="translate(16.459 60.777)" fill="#795548"/>
  <rect id="Rectangle_609" data-name="Rectangle 609" width="4.8" height="0.639" transform="translate(16.275 63.271) rotate(-35.06)" fill="#795548"/>
  <g id="_Group_6" data-name="&lt;Group&gt;" transform="translate(0 48.029)">
    <path id="Path_462" data-name="Path 462" d="M148.1,570.64a3.946,3.946,0,0,1-1.08-2.7,4.011,4.011,0,0,1,1.965-3.423,2.325,2.325,0,0,1-.41-1.317,2.437,2.437,0,0,1,2.477-2.394,2.468,2.468,0,0,1,2.382,1.726,3.719,3.719,0,0,1,3.162-1.723,3.633,3.633,0,0,1,3.693,3.568,3.454,3.454,0,0,1-.227,1.234c.076,0,.154-.011.227-.011a2.914,2.914,0,0,1,2.963,2.863,2.793,2.793,0,0,1-.015.288,3.555,3.555,0,0,1,2.226,3.267,3.619,3.619,0,0,1-3.68,3.556,3.81,3.81,0,0,1-.637-.054c.011.119.017.238.017.36a4.063,4.063,0,0,1-4.129,3.99,4.209,4.209,0,0,1-2.352-.711,3.136,3.136,0,0,1-2,.711,3.039,3.039,0,0,1-3.085-2.982,1.379,1.379,0,0,1,.011-.211h-.011a3.25,3.25,0,0,1-3.3-3.192A3.181,3.181,0,0,1,148.1,570.64Z" transform="translate(-146.29 -560.808)" fill="url(#linear-gradient-13)"/>
  </g>
  <path id="_Path_15" data-name="&lt;Path&gt;" d="M150.691,572.861a3.778,3.778,0,0,1-1.024-2.582,3.833,3.833,0,0,1,1.88-3.276,2.225,2.225,0,0,1-.392-1.262,2.332,2.332,0,0,1,2.372-2.292A2.362,2.362,0,0,1,155.8,565.1a3.559,3.559,0,0,1,3.026-1.649,3.476,3.476,0,0,1,3.534,3.415,3.3,3.3,0,0,1-.216,1.178c.071,0,.143-.011.216-.011a2.794,2.794,0,0,1,2.837,2.741,2.675,2.675,0,0,1-.014.276,3.4,3.4,0,0,1,2.129,3.128,3.465,3.465,0,0,1-3.523,3.4,3.66,3.66,0,0,1-.617-.052c.01.112.017.228.017.344a3.888,3.888,0,0,1-3.954,3.819A4.029,4.029,0,0,1,157,581.01a3,3,0,0,1-1.911.68,2.9,2.9,0,0,1-2.952-2.854,1.257,1.257,0,0,1,.011-.2h-.011a3.111,3.111,0,0,1-3.162-3.056A3.045,3.045,0,0,1,150.691,572.861Z" transform="translate(-148.557 -515.012)" fill="#009688"/>
  <line id="_Path_16" data-name="&lt;Path&gt;" y2="21.227" transform="translate(8.836 53.854)" fill="#795548"/>
  <rect id="Rectangle_610" data-name="Rectangle 610" width="1.157" height="21.227" transform="translate(8.237 53.854)" fill="url(#linear-gradient-3)"/>
  <rect id="Rectangle_611" data-name="Rectangle 611" width="0.639" height="21.227" transform="translate(8.515 53.854)" fill="#795548"/>
  <line id="_Path_17" data-name="&lt;Path&gt;" x1="3.792" y1="3.867" transform="translate(5.109 56.343)" fill="#795548"/>
  <rect id="Rectangle_612" data-name="Rectangle 612" width="0.639" height="5.414" transform="matrix(0.714, -0.7, 0.7, 0.714, 4.882, 56.566)" fill="#795548"/>
  <line id="_Path_18" data-name="&lt;Path&gt;" y1="2.757" x2="3.929" transform="translate(8.9 60.777)" fill="#795548"/>
  <rect id="Rectangle_613" data-name="Rectangle 613" width="4.8" height="0.639" transform="translate(8.717 63.272) rotate(-35.06)" fill="#795548"/>
  <g id="_Group_7" data-name="&lt;Group&gt;" transform="translate(2.48 48.122)">
    <path id="Path_463" data-name="Path 463" d="M178.89,571.318a4.12,4.12,0,0,0-.85-6.17,2.437,2.437,0,0,0,.39-1.327,2.351,2.351,0,0,0-4.618-.676,3.5,3.5,0,0,0-3.006-1.735A3.548,3.548,0,0,0,167.293,565a3.658,3.658,0,0,0,.214,1.234c-.071,0-.142-.011-.215-.011a2.851,2.851,0,0,0-2.821,2.9,2.033,2.033,0,0,0,.014.292,3.594,3.594,0,0,0,1.384,6.869,3.445,3.445,0,0,0,.606-.054c-.011.119-.017.239-.017.361a3.968,3.968,0,0,0,3.927,4.011,3.858,3.858,0,0,0,2.237-.716,2.883,2.883,0,0,0,1.9.716,2.968,2.968,0,0,0,2.931-3,1.4,1.4,0,0,0-.011-.213h.011a3.179,3.179,0,0,0,3.142-3.213A3.221,3.221,0,0,0,178.89,571.318Z" transform="translate(-162.369 -561.41)" fill="url(#linear-gradient-17)"/>
  </g>
  <path id="_Path_19" data-name="&lt;Path&gt;" d="M181.557,574.562a3.867,3.867,0,0,0-.8-5.785,2.287,2.287,0,0,0,.366-1.245,2.206,2.206,0,0,0-4.335-.634,3.281,3.281,0,0,0-2.823-1.629,3.335,3.335,0,0,0-3.289,3.372,3.432,3.432,0,0,0,.2,1.163c-.066,0-.134-.011-.2-.011a2.676,2.676,0,0,0-2.645,2.706,1.778,1.778,0,0,0,.014.273,3.363,3.363,0,0,0-1.987,3.085,3.324,3.324,0,0,0,3.286,3.36,3.224,3.224,0,0,0,.569-.051c-.009.113-.015.225-.015.339a3.729,3.729,0,0,0,3.687,3.77,3.613,3.613,0,0,0,2.1-.671,2.706,2.706,0,0,0,1.78.669,2.786,2.786,0,0,0,2.755-2.817,1.44,1.44,0,0,0-.009-.2h.009a2.983,2.983,0,0,0,2.949-3.017A3.023,3.023,0,0,0,181.557,574.562Z" transform="translate(-163.009 -516.552)" fill="#00897b"/>
  <rect id="Rectangle_614" data-name="Rectangle 614" width="0.856" height="21.301" transform="translate(11.875 53.707)" fill="url(#linear-gradient-18)"/>
  <rect id="Rectangle_615" data-name="Rectangle 615" width="0.43" height="21.002" transform="translate(12.118 54.006)" fill="#795548"/>
  <rect id="Rectangle_616" data-name="Rectangle 616" width="5.203" height="0.43" transform="translate(12.081 60.191) rotate(-47.2)" fill="#795548"/>
  <rect id="Rectangle_617" data-name="Rectangle 617" width="0.43" height="4.566" transform="matrix(0.596, -0.803, 0.803, 0.596, 8.444, 61.075)" fill="#795548"/>
  <path id="Path_464" data-name="Path 464" d="M637.123,262.513a23.6,23.6,0,1,0-3.861,35.947l17.06,17.739a1.148,1.148,0,0,0,1.624.032l4.25-4.086a1.148,1.148,0,0,0,.032-1.624l-17.061-17.739a23.6,23.6,0,0,0-2.045-30.269Zm-5.314,28.525a16.88,16.88,0,1,1,.463-23.868A16.88,16.88,0,0,1,631.809,291.038Z" transform="translate(-527.087 -254.37)" fill="url(#linear-gradient-19)"/>
  <path id="Path_465" data-name="Path 465" d="M660.475,377.85a1.476,1.476,0,0,0,0,2.949A1.476,1.476,0,0,0,660.475,377.85Z" transform="translate(-579.955 -358.043)" fill="url(#linear-gradient-20)"/>
  <path id="Path_466" data-name="Path 466" d="M686.081,316.569a14.166,14.166,0,0,0-12.231,6.324c-.807,1.262,1.484,2.377,2.286,1.121a11.678,11.678,0,0,1,10.141-5.132,12.925,12.925,0,0,1,10.545,6.133c.807,1.328,2.917.12,2.116-1.2A15.655,15.655,0,0,0,686.081,316.569Z" transform="translate(-592.328 -306.212)" fill="url(#linear-gradient-21)"/>
  <path id="Path_467" data-name="Path 467" d="M649.123,256.693a23.6,23.6,0,1,0-3.861,35.947l17.06,17.739a1.148,1.148,0,0,0,1.624.032l4.251-4.088a1.147,1.147,0,0,0,.032-1.624l-17.06-17.739A23.6,23.6,0,0,0,649.123,256.693Zm-5.314,28.525a16.88,16.88,0,1,1,.463-23.868,16.88,16.88,0,0,1-.463,23.868Z" transform="translate(-537.236 -249.447)" fill="#2ba01a"/>
  <path id="Path_468" data-name="Path 468" d="M672.475,372a1.476,1.476,0,0,0,0,2.949A1.476,1.476,0,0,0,672.475,372Z" transform="translate(-590.103 -353.096)" fill="#2ba01a"/>
  <path id="Path_469" data-name="Path 469" d="M698.081,310.749a14.166,14.166,0,0,0-12.231,6.324c-.807,1.262,1.484,2.377,2.286,1.121a11.678,11.678,0,0,1,10.141-5.132,12.925,12.925,0,0,1,10.545,6.133c.807,1.328,2.917.12,2.116-1.2A15.666,15.666,0,0,0,698.081,310.749Z" transform="translate(-602.477 -301.29)" fill="#2ba01a"/>
</svg>
