<svg xmlns="http://www.w3.org/2000/svg" xmlns:xlink="http://www.w3.org/1999/xlink" width="137.898" height="69.606" viewBox="0 0 137.898 69.606">
  <defs>
    <linearGradient id="linear-gradient" x1="0.5" y1="1" x2="0.5" gradientUnits="objectBoundingBox">
      <stop offset="0" stop-color="gray" stop-opacity="0.251"/>
      <stop offset="0.54" stop-color="gray" stop-opacity="0.122"/>
      <stop offset="1" stop-color="gray" stop-opacity="0.102"/>
    </linearGradient>
    <linearGradient id="linear-gradient-2" x1="0.5" y1="1" x2="0.5" y2="0" xlink:href="#linear-gradient"/>
    <linearGradient id="linear-gradient-3" x1="0.5" y1="1" x2="0.5" y2="0" xlink:href="#linear-gradient"/>
    <linearGradient id="linear-gradient-5" x1="0.5" y1="1" x2="0.5" y2="0" xlink:href="#linear-gradient"/>
    <linearGradient id="linear-gradient-6" x1="0.501" y1="1" x2="0.501" y2="0" xlink:href="#linear-gradient"/>
    <linearGradient id="linear-gradient-7" x1="0.5" y1="1" x2="0.5" y2="0" xlink:href="#linear-gradient"/>
    <linearGradient id="linear-gradient-12" x1="0.5" y1="1" x2="0.5" y2="0" xlink:href="#linear-gradient"/>
    <linearGradient id="linear-gradient-13" x1="0.5" y1="1" x2="0.5" y2="0" xlink:href="#linear-gradient"/>
    <linearGradient id="linear-gradient-17" x1="0.5" y1="1" x2="0.5" y2="0" xlink:href="#linear-gradient"/>
    <linearGradient id="linear-gradient-18" x1="0.501" y1="1" x2="0.501" y2="0" xlink:href="#linear-gradient"/>
    <linearGradient id="linear-gradient-19" x1="0.5" y1="1" x2="0.5" gradientUnits="objectBoundingBox">
      <stop offset="0" stop-color="#b3b3b3" stop-opacity="0.251"/>
      <stop offset="0.54" stop-color="#b3b3b3" stop-opacity="0.102"/>
      <stop offset="1" stop-color="#b3b3b3" stop-opacity="0.051"/>
    </linearGradient>
    <linearGradient id="linear-gradient-20" x1="0.5" y1="1.001" x2="0.5" gradientUnits="objectBoundingBox">
      <stop offset="0" stop-opacity="0.122"/>
      <stop offset="0.55" stop-opacity="0.09"/>
      <stop offset="1" stop-opacity="0.02"/>
    </linearGradient>
    <linearGradient id="linear-gradient-21" x1="0.5" y1="0.999" x2="0.5" y2="0" xlink:href="#linear-gradient-20"/>
  </defs>
  <g id="Group_78" data-name="Group 78" transform="translate(0.01 0.013)">
    <circle id="Ellipse_16" data-name="Ellipse 16" cx="26.027" cy="26.027" r="26.027" transform="translate(4.811 7.503)" opacity="0.3" stroke="#ff9800" stroke-miterlimit="10" stroke-width="4" stroke-dasharray="12" fill="none"/>
    <circle id="Ellipse_17" data-name="Ellipse 17" cx="26.027" cy="26.027" r="26.027" transform="translate(73.454 2.355)" opacity="0.3" stroke="#ff9800" stroke-miterlimit="10" stroke-width="4" stroke-dasharray="12" fill="none"/>
    <g id="_Group_" data-name="&lt;Group&gt;" transform="translate(106.606 22.397)">
      <path id="Path_447" data-name="Path 447" d="M894.757,422.191a6.436,6.436,0,0,1-1.748-4.4,6.537,6.537,0,0,1,3.206-5.587,3.793,3.793,0,0,1-.669-2.145,3.977,3.977,0,0,1,4.044-3.907,4.026,4.026,0,0,1,3.88,2.813,6.068,6.068,0,0,1,5.16-2.813,5.927,5.927,0,0,1,6.026,5.822,5.634,5.634,0,0,1-.369,2.009c.122-.009.245-.019.369-.019a4.757,4.757,0,0,1,4.836,4.673,4.548,4.548,0,0,1-.024.472,5.8,5.8,0,0,1,3.632,5.331,5.907,5.907,0,0,1-6.006,5.8,6.239,6.239,0,0,1-1.04-.089c.017.193.029.389.029.586a6.629,6.629,0,0,1-6.74,6.513,6.864,6.864,0,0,1-3.838-1.16,5.117,5.117,0,0,1-3.259,1.16,4.951,4.951,0,0,1-5.035-4.862c0-.116.01-.23.019-.345h-.019a5.3,5.3,0,0,1-5.391-5.21A5.191,5.191,0,0,1,894.757,422.191Z" transform="translate(-891.82 -406.149)" fill="url(#linear-gradient)"/>
    </g>
    <path id="_Path_" data-name="&lt;Path&gt;" d="M899.321,426.129a6.164,6.164,0,0,1-1.672-4.214,6.256,6.256,0,0,1,3.069-5.348,3.63,3.63,0,0,1-.641-2.058,3.807,3.807,0,0,1,3.871-3.74,3.861,3.861,0,0,1,3.718,2.691,5.809,5.809,0,0,1,4.929-2.69,5.673,5.673,0,0,1,5.767,5.577,5.392,5.392,0,0,1-.353,1.923c.117-.009.235-.017.353-.017a4.553,4.553,0,0,1,4.629,4.473,4.33,4.33,0,0,1-.024.452,5.562,5.562,0,0,1,3.477,5.1,5.654,5.654,0,0,1-5.749,5.554,5.978,5.978,0,0,1-1-.085c.018.185.028.372.028.561a6.345,6.345,0,0,1-6.451,6.232,6.578,6.578,0,0,1-3.674-1.11,4.9,4.9,0,0,1-3.108,1.113,4.74,4.74,0,0,1-4.819-4.656c0-.112.009-.22.017-.33h-.017a5.076,5.076,0,0,1-5.161-4.987A4.969,4.969,0,0,1,899.321,426.129Z" transform="translate(-789.233 -387.711)" fill="#009688"/>
    <line id="_Path_2" data-name="&lt;Path&gt;" y2="34.642" transform="translate(121.023 31.898)" fill="#795548"/>
    <rect id="Rectangle_581" data-name="Rectangle 581" width="1.886" height="34.641" transform="translate(120.048 31.898)" fill="url(#linear-gradient-2)"/>
    <rect id="Rectangle_582" data-name="Rectangle 582" width="1.044" height="34.641" transform="translate(120.501 31.898)" fill="#795548"/>
    <line id="_Path_3" data-name="&lt;Path&gt;" x1="6.186" y1="6.309" transform="translate(114.942 35.964)" fill="#795548"/>
    <rect id="Rectangle_583" data-name="Rectangle 583" width="1.044" height="8.836" transform="matrix(0.714, -0.7, 0.7, 0.714, 114.571, 36.33)" fill="#795548"/>
    <line id="_Path_4" data-name="&lt;Path&gt;" y1="4.499" x2="6.412" transform="translate(121.129 43.197)" fill="#795548"/>
    <rect id="Rectangle_584" data-name="Rectangle 584" width="7.834" height="1.044" transform="translate(120.828 47.266) rotate(-35.06)" fill="#795548"/>
    <g id="_Group_2" data-name="&lt;Group&gt;" transform="translate(94.631 22.646)">
      <path id="Path_448" data-name="Path 448" d="M835.447,424.292a6.827,6.827,0,0,0-1.409-10.211,4.036,4.036,0,0,0,.646-2.2,3.894,3.894,0,0,0-7.651-1.118,5.791,5.791,0,0,0-4.981-2.874,5.886,5.886,0,0,0-5.819,5.951,6.058,6.058,0,0,0,.356,2.054c-.117-.009-.236-.019-.356-.019a4.732,4.732,0,0,0-4.671,4.776c0,.163.009.323.024.482a5.936,5.936,0,0,0-3.508,5.449,5.867,5.867,0,0,0,5.8,5.932,5.7,5.7,0,0,0,1-.09c-.017.2-.027.4-.027.6a6.583,6.583,0,0,0,6.508,6.656,6.377,6.377,0,0,0,3.705-1.185,4.777,4.777,0,0,0,3.146,1.185,4.918,4.918,0,0,0,4.862-4.972c0-.119-.01-.236-.017-.353h.017a5.265,5.265,0,0,0,5.206-5.324A5.337,5.337,0,0,0,835.447,424.292Z" transform="translate(-808.08 -407.89)" fill="url(#linear-gradient-3)"/>
    </g>
    <path id="_Path_5" data-name="&lt;Path&gt;" d="M840.3,430.1a6.408,6.408,0,0,0-1.323-9.582,3.79,3.79,0,0,0,.606-2.064,3.652,3.652,0,0,0-7.176-1.051,5.434,5.434,0,0,0-4.676-2.7,5.525,5.525,0,0,0-5.461,5.586,5.689,5.689,0,0,0,.335,1.928c-.11-.009-.222-.017-.335-.017a4.431,4.431,0,0,0-4.383,4.483,4.317,4.317,0,0,0,.023.452,5.577,5.577,0,0,0-3.289,5.115,5.5,5.5,0,0,0,5.444,5.567,5.353,5.353,0,0,0,.942-.084c-.016.186-.026.373-.026.562a6.178,6.178,0,0,0,6.108,6.247,5.985,5.985,0,0,0,3.478-1.113,4.483,4.483,0,0,0,2.953,1.113,4.616,4.616,0,0,0,4.563-4.668c0-.112-.009-.222-.016-.332h.016a4.944,4.944,0,0,0,4.887-5A5.005,5.005,0,0,0,840.3,430.1Z" transform="translate(-719.053 -391.089)" fill="#00897b"/>
    <rect id="Rectangle_585" data-name="Rectangle 585" width="1.419" height="35.291" transform="translate(110.191 31.886)" fill="url(#linear-gradient-3)"/>
    <rect id="Rectangle_586" data-name="Rectangle 586" width="0.714" height="34.795" transform="translate(110.595 32.382)" fill="#795548"/>
    <rect id="Rectangle_587" data-name="Rectangle 587" width="8.62" height="0.714" transform="translate(110.527 42.629) rotate(-47.2)" fill="#795548"/>
    <rect id="Rectangle_588" data-name="Rectangle 588" width="0.714" height="7.564" transform="matrix(0.596, -0.803, 0.803, 0.596, 104.508, 44.094)" fill="#795548"/>
    <g id="_Group_3" data-name="&lt;Group&gt;" transform="translate(92.662 38.428)">
      <path id="Path_449" data-name="Path 449" d="M796.312,529.188a4.389,4.389,0,0,1-1.19-3,4.454,4.454,0,0,1,2.185-3.807,2.586,2.586,0,0,1-.456-1.466,2.711,2.711,0,0,1,2.756-2.663,2.744,2.744,0,0,1,2.644,1.916,4.136,4.136,0,0,1,3.517-1.916,4.039,4.039,0,0,1,4.107,3.967,3.837,3.837,0,0,1-.252,1.37c.083,0,.166-.013.252-.013a3.239,3.239,0,0,1,3.289,3.185,3.149,3.149,0,0,1-.017.322,3.954,3.954,0,0,1,2.476,3.634,4.025,4.025,0,0,1-4.093,3.954,4.26,4.26,0,0,1-.715-.06c.013.132.02.265.02.4a4.514,4.514,0,0,1-4.593,4.433,4.681,4.681,0,0,1-2.6-.776,3.487,3.487,0,0,1-2.221.784,3.376,3.376,0,0,1-3.432-3.315A1.422,1.422,0,0,1,798,535.9h-.013a3.613,3.613,0,0,1-3.674-3.549,3.538,3.538,0,0,1,2-3.161Z" transform="translate(-794.31 -518.249)" fill="url(#linear-gradient-5)"/>
    </g>
    <path id="_Path_6" data-name="&lt;Path&gt;" d="M799.382,531.916a4.2,4.2,0,0,1-1.144-2.872,4.263,4.263,0,0,1,2.092-3.644,2.475,2.475,0,0,1-.436-1.4,2.594,2.594,0,0,1,2.637-2.548,2.625,2.625,0,0,1,2.531,1.835,3.959,3.959,0,0,1,3.365-1.835,3.867,3.867,0,0,1,3.931,3.8,3.675,3.675,0,0,1-.24,1.311c.08,0,.159-.011.24-.011a3.1,3.1,0,0,1,3.155,3.047,2.991,2.991,0,0,1-.016.307,3.785,3.785,0,0,1,2.37,3.478,3.854,3.854,0,0,1-3.918,3.785,4.069,4.069,0,0,1-.678-.057c.012.126.019.253.019.382a4.324,4.324,0,0,1-4.4,4.247,4.482,4.482,0,0,1-2.5-.756,3.337,3.337,0,0,1-2.125.756,3.234,3.234,0,0,1-3.289-3.173,1.455,1.455,0,0,1,.012-.225h-.012a3.459,3.459,0,0,1-3.517-3.4A3.387,3.387,0,0,1,799.382,531.916Z" transform="translate(-704.348 -482.564)" fill="#009688"/>
    <line id="_Path_7" data-name="&lt;Path&gt;" y2="23.606" transform="translate(102.486 44.909)" fill="#795548"/>
    <rect id="Rectangle_589" data-name="Rectangle 589" width="1.286" height="23.606" transform="translate(101.821 44.909)" fill="url(#linear-gradient-6)"/>
    <rect id="Rectangle_590" data-name="Rectangle 590" width="0.711" height="23.606" transform="translate(102.13 44.909)" fill="#795548"/>
    <line id="_Path_8" data-name="&lt;Path&gt;" x1="4.214" y1="4.3" transform="translate(98.343 47.679)" fill="#795548"/>
    <rect id="Rectangle_591" data-name="Rectangle 591" width="0.711" height="6.021" transform="matrix(0.714, -0.7, 0.7, 0.714, 98.089, 47.928)" fill="#795548"/>
    <line id="_Path_9" data-name="&lt;Path&gt;" y1="3.066" x2="4.37" transform="translate(102.558 52.609)" fill="#795548"/>
    <rect id="Rectangle_592" data-name="Rectangle 592" width="5.338" height="0.711" transform="translate(102.354 55.381) rotate(-35.06)" fill="#795548"/>
    <g id="_Group_4" data-name="&lt;Group&gt;" transform="translate(88.387 39.059)">
      <path id="Path_450" data-name="Path 450" d="M782.79,533.669a4.576,4.576,0,0,0-.945-6.853,2.717,2.717,0,0,0,.429-1.476,2.614,2.614,0,0,0-5.135-.751,3.887,3.887,0,0,0-3.341-1.929,3.95,3.95,0,0,0-3.906,3.994,4.068,4.068,0,0,0,.239,1.379c-.079,0-.159-.013-.239-.013a3.17,3.17,0,0,0-3.135,3.206,2.22,2.22,0,0,0,.016.323,3.984,3.984,0,0,0-2.354,3.658,3.939,3.939,0,0,0,3.893,3.981,3.841,3.841,0,0,0,.674-.06c-.011.133-.019.266-.019.4A4.419,4.419,0,0,0,773.335,544a4.28,4.28,0,0,0,2.487-.8,3.206,3.206,0,0,0,2.112.8,3.3,3.3,0,0,0,3.263-3.338,1.644,1.644,0,0,0-.011-.237h.011a3.535,3.535,0,0,0,3.5-3.575A3.582,3.582,0,0,0,782.79,533.669Z" transform="translate(-764.419 -522.66)" fill="url(#linear-gradient-7)"/>
    </g>
    <path id="_Path_10" data-name="&lt;Path&gt;" d="M786.022,537.565a4.3,4.3,0,0,0-.888-6.435,2.546,2.546,0,0,0,.408-1.384,2.454,2.454,0,0,0-4.821-.705,3.648,3.648,0,0,0-3.139-1.81,3.708,3.708,0,0,0-3.665,3.75,3.818,3.818,0,0,0,.225,1.294c-.074,0-.143-.011-.225-.011a2.976,2.976,0,0,0-2.942,3,2.125,2.125,0,0,0,.014.3A3.74,3.74,0,0,0,768.779,539a3.7,3.7,0,0,0,3.654,3.737,3.586,3.586,0,0,0,.632-.057q-.017.187-.017.378a4.148,4.148,0,0,0,4.1,4.193,4.018,4.018,0,0,0,2.335-.747,3,3,0,0,0,1.982.747,3.1,3.1,0,0,0,3.063-3.132,1.471,1.471,0,0,0-.011-.222h.011a3.318,3.318,0,0,0,3.281-3.355A3.362,3.362,0,0,0,786.022,537.565Z" transform="translate(-679.769 -487.518)" fill="#00897b"/>
    <rect id="Rectangle_593" data-name="Rectangle 593" width="0.952" height="23.688" transform="translate(98.834 45.261)" fill="url(#linear-gradient-3)"/>
    <rect id="Rectangle_594" data-name="Rectangle 594" width="0.479" height="23.355" transform="translate(99.104 45.594)" fill="#795548"/>
    <rect id="Rectangle_595" data-name="Rectangle 595" width="5.786" height="0.479" transform="translate(99.058 52.47) rotate(-47.2)" fill="#795548"/>
    <rect id="Rectangle_596" data-name="Rectangle 596" width="0.479" height="5.077" transform="matrix(0.596, -0.803, 0.803, 0.596, 95.017, 53.455)" fill="#795548"/>
    <rect id="Rectangle_597" data-name="Rectangle 597" width="40.328" height="35.895" transform="translate(57.947 33.643)" fill="url(#linear-gradient-3)"/>
    <rect id="Rectangle_598" data-name="Rectangle 598" width="65.783" height="34.751" transform="translate(31.49 33.643)" fill="#fff"/>
    <path id="Path_451" data-name="Path 451" d="M461.209,407.665H396.57V390.79h62.28a2.36,2.36,0,0,1,2.36,2.36Z" transform="translate(-360.788 -370.59)" fill="url(#linear-gradient-3)"/>
    <path id="Path_452" data-name="Path 452" d="M250.26,146h61.725a2.36,2.36,0,0,1,2.36,2.36v13.413H250.26Z" transform="translate(-214.48 -125.132)" fill="#2ba01a"/>
    <path id="Path_453" data-name="Path 453" d="M250.26,146h61.725a2.36,2.36,0,0,1,2.36,2.36v13.413H250.26Z" transform="translate(-214.48 -125.132)" fill="#fff" opacity="0.7"/>
    <path id="Path_454" data-name="Path 454" d="M115.569,13.32,93.26,29.031V80.963h44.618V29.031Z" transform="translate(-79.932 -11.426)" fill="url(#linear-gradient-3)"/>
    <path id="Path_455" data-name="Path 455" d="M144.59,28.766,123.425,13.32,102.26,28.766V41.778h42.33Z" transform="translate(-87.645 -11.426)" fill="#2ba01a"/>
    <path id="Path_456" data-name="Path 456" d="M144.59,28.766,123.425,13.32,102.26,28.766V41.778h42.33Z" transform="translate(-87.645 -11.426)" fill="#fff" opacity="0.5"/>
    <rect id="Rectangle_599" data-name="Rectangle 599" width="42.33" height="38.04" transform="translate(14.615 30.354)" fill="#fff"/>
    <path id="Path_457" data-name="Path 457" d="M119.884,27.1,96,10.049,71.833,27.1l-1.573-6L96,2.37l25.741,18.735Z" transform="translate(-60.221 -2.042)" fill="url(#linear-gradient-12)"/>
    <path id="Path_458" data-name="Path 458" d="M126.066,29.259,102.4,12.036,78.741,29.259,77.73,23.866,102.4,5.91l24.674,17.956Z" transform="translate(-66.623 -5.076)" fill="#2ba01a"/>
    <path id="Path_459" data-name="Path 459" d="M126.066,29.259,102.4,12.036,78.741,29.259,77.73,23.866,102.4,5.91l24.674,17.956Z" transform="translate(-66.623 -5.076)" opacity="0.2"/>
    <rect id="Rectangle_600" data-name="Rectangle 600" width="24.025" height="29.746" transform="translate(23.768 38.648)" fill="#f2f2f2"/>
    <rect id="Rectangle_601" data-name="Rectangle 601" width="24.025" height="5.148" transform="translate(23.768 38.648)" fill="#2ba01a"/>
    <rect id="Rectangle_602" data-name="Rectangle 602" width="24.025" height="5.148" transform="translate(23.768 63.246)" fill="#2ba01a"/>
    <path id="Path_460" data-name="Path 460" d="M676.615,650.429a.215.215,0,1,0-.214-.215A.215.215,0,0,0,676.615,650.429Z" transform="translate(-600.6 -592.731)" fill="lime"/>
    <rect id="Rectangle_603" data-name="Rectangle 603" width="11.727" height="21.737" transform="translate(70.102 46.657)" fill="#f2f2f2"/>
    <rect id="Rectangle_604" data-name="Rectangle 604" width="11.012" height="8.008" transform="translate(84.832 42.081)" fill="#f2f2f2"/>
    <rect id="Rectangle_605" data-name="Rectangle 605" width="11.012" height="3.575" transform="translate(84.832 42.081)" fill="#2ba01a" opacity="0.2"/>
    <g id="_Group_5" data-name="&lt;Group&gt;" transform="translate(6.997 44.514)">
      <path id="Path_461" data-name="Path 461" d="M196.965,569.923a3.658,3.658,0,0,1-1-2.5,3.718,3.718,0,0,1,1.822-3.173,2.155,2.155,0,0,1-.38-1.221,2.259,2.259,0,0,1,2.3-2.219,2.288,2.288,0,0,1,2.208,1.6,3.448,3.448,0,0,1,2.932-1.6,3.368,3.368,0,0,1,3.424,3.308,3.2,3.2,0,0,1-.21,1.144c.07,0,.143-.01.21-.01a2.7,2.7,0,0,1,2.747,2.654,2.6,2.6,0,0,1-.014.267,3.3,3.3,0,0,1,2.064,3.029,3.356,3.356,0,0,1-3.412,3.3,3.534,3.534,0,0,1-.591-.05c.01.11.016.22.016.333a3.767,3.767,0,0,1-3.828,3.7,3.9,3.9,0,0,1-2.181-.659,2.907,2.907,0,0,1-1.852.659,2.817,2.817,0,0,1-2.86-2.764,1.278,1.278,0,0,1,.01-.2h-.01a3.013,3.013,0,0,1-3.063-2.959,2.949,2.949,0,0,1,1.675-2.64Z" transform="translate(-195.29 -560.808)" fill="url(#linear-gradient-13)"/>
    </g>
    <path id="_Path_11" data-name="&lt;Path&gt;" d="M199.566,572.174a3.5,3.5,0,0,1-.95-2.394,3.554,3.554,0,0,1,1.743-3.037,2.063,2.063,0,0,1-.363-1.17,2.162,2.162,0,0,1,2.2-2.125,2.189,2.189,0,0,1,2.109,1.529,3.3,3.3,0,0,1,2.806-1.529,3.223,3.223,0,0,1,3.276,3.166,3.065,3.065,0,0,1-.2,1.093c.066,0,.133-.01.2-.01a2.59,2.59,0,0,1,2.63,2.541,2.483,2.483,0,0,1-.013.256,3.156,3.156,0,0,1,1.973,2.9,3.212,3.212,0,0,1-3.266,3.156,3.389,3.389,0,0,1-.572-.049c.01.1.015.212.015.319a3.6,3.6,0,0,1-3.665,3.541,3.736,3.736,0,0,1-2.08-.632,2.781,2.781,0,0,1-1.772.631,2.692,2.692,0,0,1-2.737-2.646,1.165,1.165,0,0,1,.01-.187h-.01a2.884,2.884,0,0,1-2.932-2.833A2.823,2.823,0,0,1,199.566,572.174Z" transform="translate(-190.589 -518.556)" fill="#009688"/>
    <line id="_Path_12" data-name="&lt;Path&gt;" y2="19.679" transform="translate(15.189 49.914)" fill="#795548"/>
    <rect id="Rectangle_606" data-name="Rectangle 606" width="1.073" height="19.679" transform="translate(14.634 49.914)" fill="url(#linear-gradient-3)"/>
    <rect id="Rectangle_607" data-name="Rectangle 607" width="0.592" height="19.679" transform="translate(14.891 49.914)" fill="#795548"/>
    <line id="_Path_13" data-name="&lt;Path&gt;" x1="3.515" y1="3.585" transform="translate(11.734 52.223)" fill="#795548"/>
    <rect id="Rectangle_608" data-name="Rectangle 608" width="0.592" height="5.02" transform="matrix(0.714, -0.7, 0.7, 0.714, 11.522, 52.43)" fill="#795548"/>
    <line id="_Path_14" data-name="&lt;Path&gt;" y1="2.556" x2="3.642" transform="translate(15.249 56.333)" fill="#795548"/>
    <rect id="Rectangle_609" data-name="Rectangle 609" width="4.45" height="0.592" transform="translate(15.078 58.644) rotate(-35.06)" fill="#795548"/>
    <g id="_Group_6" data-name="&lt;Group&gt;" transform="translate(-0.01 44.514)">
      <path id="Path_462" data-name="Path 462" d="M147.965,569.923a3.658,3.658,0,0,1-1-2.5,3.718,3.718,0,0,1,1.822-3.173,2.155,2.155,0,0,1-.38-1.221,2.259,2.259,0,0,1,2.3-2.219,2.288,2.288,0,0,1,2.208,1.6,3.448,3.448,0,0,1,2.932-1.6,3.368,3.368,0,0,1,3.424,3.308,3.2,3.2,0,0,1-.21,1.144c.07,0,.143-.01.21-.01a2.7,2.7,0,0,1,2.747,2.654,2.591,2.591,0,0,1-.014.267,3.3,3.3,0,0,1,2.064,3.029,3.356,3.356,0,0,1-3.412,3.3,3.534,3.534,0,0,1-.591-.05c.01.11.016.22.016.333a3.767,3.767,0,0,1-3.828,3.7,3.9,3.9,0,0,1-2.181-.659,2.907,2.907,0,0,1-1.852.659,2.817,2.817,0,0,1-2.86-2.764,1.276,1.276,0,0,1,.01-.2h-.01a3.013,3.013,0,0,1-3.063-2.959A2.949,2.949,0,0,1,147.965,569.923Z" transform="translate(-146.29 -560.808)" fill="url(#linear-gradient-13)"/>
    </g>
    <path id="_Path_15" data-name="&lt;Path&gt;" d="M150.566,572.174a3.5,3.5,0,0,1-.95-2.394,3.554,3.554,0,0,1,1.743-3.037,2.062,2.062,0,0,1-.363-1.17,2.162,2.162,0,0,1,2.2-2.125,2.189,2.189,0,0,1,2.109,1.529,3.3,3.3,0,0,1,2.806-1.529,3.223,3.223,0,0,1,3.276,3.166,3.064,3.064,0,0,1-.2,1.093c.066,0,.133-.01.2-.01a2.59,2.59,0,0,1,2.63,2.541,2.479,2.479,0,0,1-.013.256,3.156,3.156,0,0,1,1.973,2.9,3.212,3.212,0,0,1-3.266,3.156,3.389,3.389,0,0,1-.572-.049c.01.1.015.212.015.319a3.6,3.6,0,0,1-3.665,3.541,3.736,3.736,0,0,1-2.08-.632,2.781,2.781,0,0,1-1.772.631,2.692,2.692,0,0,1-2.737-2.646,1.165,1.165,0,0,1,.01-.187h-.01a2.884,2.884,0,0,1-2.932-2.833A2.823,2.823,0,0,1,150.566,572.174Z" transform="translate(-148.597 -518.556)" fill="#009688"/>
    <line id="_Path_16" data-name="&lt;Path&gt;" y2="19.679" transform="translate(8.181 49.914)" fill="#795548"/>
    <rect id="Rectangle_610" data-name="Rectangle 610" width="1.073" height="19.679" transform="translate(7.627 49.914)" fill="url(#linear-gradient-3)"/>
    <rect id="Rectangle_611" data-name="Rectangle 611" width="0.592" height="19.679" transform="translate(7.884 49.914)" fill="#795548"/>
    <line id="_Path_17" data-name="&lt;Path&gt;" x1="3.515" y1="3.585" transform="translate(4.726 52.223)" fill="#795548"/>
    <rect id="Rectangle_612" data-name="Rectangle 612" width="0.592" height="5.02" transform="matrix(0.714, -0.7, 0.7, 0.714, 4.516, 52.431)" fill="#795548"/>
    <line id="_Path_18" data-name="&lt;Path&gt;" y1="2.556" x2="3.642" transform="translate(8.242 56.333)" fill="#795548"/>
    <rect id="Rectangle_613" data-name="Rectangle 613" width="4.45" height="0.592" transform="translate(8.071 58.645) rotate(-35.06)" fill="#795548"/>
    <g id="_Group_7" data-name="&lt;Group&gt;" transform="translate(2.289 44.6)">
      <path id="Path_463" data-name="Path 463" d="M177.685,570.6a3.82,3.82,0,0,0-.788-5.72,2.26,2.26,0,0,0,.362-1.23,2.179,2.179,0,0,0-4.282-.626,3.241,3.241,0,0,0-2.787-1.609,3.289,3.289,0,0,0-3.256,3.329,3.391,3.391,0,0,0,.2,1.144c-.066,0-.132-.01-.2-.01a2.643,2.643,0,0,0-2.616,2.686,1.885,1.885,0,0,0,.013.27,3.332,3.332,0,0,0,1.283,6.368,3.2,3.2,0,0,0,.562-.05c-.01.11-.016.222-.016.335A3.678,3.678,0,0,0,169.8,579.2a3.576,3.576,0,0,0,2.074-.664,2.672,2.672,0,0,0,1.76.664,2.751,2.751,0,0,0,2.717-2.781,1.3,1.3,0,0,0-.01-.2h.01a2.947,2.947,0,0,0,2.913-2.979A2.986,2.986,0,0,0,177.685,570.6Z" transform="translate(-162.369 -561.41)" fill="url(#linear-gradient-17)"/>
    </g>
    <path id="_Path_19" data-name="&lt;Path&gt;" d="M180.427,573.885a3.585,3.585,0,0,0-.741-5.363,2.12,2.12,0,0,0,.339-1.154,2.045,2.045,0,0,0-4.019-.588,3.042,3.042,0,0,0-2.617-1.51,3.092,3.092,0,0,0-3.049,3.126,3.181,3.181,0,0,0,.187,1.078c-.062,0-.124-.01-.187-.01a2.481,2.481,0,0,0-2.453,2.508,1.649,1.649,0,0,0,.013.253,3.118,3.118,0,0,0-1.842,2.86A3.082,3.082,0,0,0,169.1,578.2a2.988,2.988,0,0,0,.528-.047c-.009.1-.014.209-.014.315a3.457,3.457,0,0,0,3.418,3.5,3.349,3.349,0,0,0,1.946-.622,2.509,2.509,0,0,0,1.65.621,2.583,2.583,0,0,0,2.554-2.611,1.336,1.336,0,0,0-.009-.186h.009a2.766,2.766,0,0,0,2.734-2.8A2.8,2.8,0,0,0,180.427,573.885Z" transform="translate(-163.242 -520.116)" fill="#00897b"/>
    <rect id="Rectangle_614" data-name="Rectangle 614" width="0.794" height="19.748" transform="translate(10.999 49.779)" fill="url(#linear-gradient-18)"/>
    <rect id="Rectangle_615" data-name="Rectangle 615" width="0.399" height="19.47" transform="translate(11.225 50.056)" fill="#795548"/>
    <rect id="Rectangle_616" data-name="Rectangle 616" width="4.824" height="0.399" transform="translate(11.19 55.789) rotate(-47.2)" fill="#795548"/>
    <rect id="Rectangle_617" data-name="Rectangle 617" width="0.399" height="4.233" transform="matrix(0.596, -0.803, 0.803, 0.596, 7.818, 56.609)" fill="#795548"/>
    <path id="Path_464" data-name="Path 464" d="M634.164,261.985a21.878,21.878,0,1,0-3.579,33.326L646.4,311.757a1.064,1.064,0,0,0,1.506.03l3.94-3.788a1.064,1.064,0,0,0,.03-1.506L636.06,290.047a21.88,21.88,0,0,0-1.9-28.062Zm-4.927,26.445a15.649,15.649,0,1,1,.429-22.128A15.649,15.649,0,0,1,629.237,288.43Z" transform="translate(-532.161 -254.448)" fill="url(#linear-gradient-19)"/>
    <path id="Path_465" data-name="Path 465" d="M660.371,377.85a1.368,1.368,0,0,0,0,2.734A1.368,1.368,0,0,0,660.371,377.85Z" transform="translate(-585.732 -359.5)" fill="url(#linear-gradient-20)"/>
    <path id="Path_466" data-name="Path 466" d="M685.177,316.569a13.134,13.134,0,0,0-11.339,5.863c-.748,1.17,1.376,2.2,2.119,1.04a10.826,10.826,0,0,1,9.4-4.758,11.983,11.983,0,0,1,9.776,5.686c.748,1.231,2.7.112,1.962-1.113A14.514,14.514,0,0,0,685.177,316.569Z" transform="translate(-598.27 -306.98)" fill="url(#linear-gradient-21)"/>
    <path id="Path_467" data-name="Path 467" d="M646.164,256.165a21.878,21.878,0,1,0-3.579,33.326L658.4,305.937a1.064,1.064,0,0,0,1.506.03l3.941-3.79a1.064,1.064,0,0,0,.03-1.506l-15.817-16.446A21.88,21.88,0,0,0,646.164,256.165Zm-4.927,26.445a15.649,15.649,0,1,1,.429-22.128,15.649,15.649,0,0,1-.429,22.128Z" transform="translate(-542.445 -249.46)" fill="#2ba01a"/>
    <path id="Path_468" data-name="Path 468" d="M672.371,372a1.368,1.368,0,0,0,0,2.734A1.368,1.368,0,0,0,672.371,372Z" transform="translate(-596.015 -354.487)" fill="#2ba01a"/>
    <path id="Path_469" data-name="Path 469" d="M697.177,310.749a13.134,13.134,0,0,0-11.339,5.863c-.748,1.17,1.376,2.2,2.119,1.04a10.826,10.826,0,0,1,9.4-4.758,11.983,11.983,0,0,1,9.776,5.686c.748,1.231,2.7.112,1.962-1.113A14.524,14.524,0,0,0,697.177,310.749Z" transform="translate(-608.554 -301.992)" fill="#2ba01a"/>
  </g>
</svg>
