<svg id="Layer_1" enable-background="new 0 0 512 512" height="512" viewBox="0 0 512 512" width="512" xmlns="http://www.w3.org/2000/svg"><g><path d="m400.378 124.806h111.622l-126.612-124.806v109.806c0 8.271 6.724 15 14.99 15z"/><path d="m355.388 109.806v-109.806h-280.557c-8.284 0-15 6.716-15 15v101.007h167.552c45.421 0 82.373 36.952 82.373 82.373v174.09c0 45.42-36.952 82.373-82.373 82.373h-167.552v42.157c0 8.284 6.716 15 15 15h422.169c8.284 0 15-6.716 15-15v-342.194h-111.622c-24.808 0-44.99-20.187-44.99-45z"/><path d="m177.39 306.562 88.554 102.787c9.169-9.584 14.812-22.569 14.812-36.88v-32.582l-75.692-52.533z"/><path d="m90.852 214.096c4.366 0 8.515 1.902 11.364 5.21l55.485 64.403 38.811-26.936c5.143-3.569 11.961-3.57 17.105 0l67.139 46.597v-78.778c-50.302 22.417-101.853-29.42-79.19-79.585h-148.193c-29.477 0-53.373 23.896-53.373 53.373v113.193l79.488-92.267c2.849-3.307 6.998-5.21 11.364-5.21z"/><path d="m226.186 169.85c.937 32.626 41.094 38.192 53.621 18.532-4.034-21.277-20.686-38.083-41.887-42.329-7.377 5.671-11.734 14.44-11.734 23.797z"/><path d="m239.376 424.473-95.562-110.921c-.027-.031-.053-.062-.08-.093l-52.882-61.381-90.852 107.045v13.346c0 29.477 23.896 53.373 53.373 53.373h174.011c4.125.001 8.136-.483 11.992-1.369z"/></g></svg>