<svg xmlns="http://www.w3.org/2000/svg" width="30.651" height="30.646" viewBox="0 0 30.651 30.646"><defs><style>.a{fill:#bedcb9;}.b{fill:#fff;}.c{fill:#374140;}</style></defs><g transform="translate(0.514 7.663)"><g transform="translate(0 0)"><path class="a" d="M23.15.587,19.958,3.248l-.383.327-.393-.327L16,.587c.194-.066.388-.128.582-.179a11.236,11.236,0,0,1,6.006,0,4.765,4.765,0,0,1,.562.179Z" transform="translate(-8.337 0)"/><path class="a" d="M23.172,17.575,21.64,21.661H16.532L15,17.575,19.086,14Z" transform="translate(-7.848 -6.85)"/><path class="a" d="M4.946,13.2l-.429.271L1,15.688a.9.9,0,0,1,0-.117V15.06a11.2,11.2,0,0,1,1.864-5.69c.112-.174.23-.337.352-.511l1.532,3.861Z" transform="translate(-0.996 -4.335)"/><path class="a" d="M41.223,15.581a.906.906,0,0,1,0,.117l-3.514-2.217-.429-.271.189-.47L39,8.88c.123.163.24.327.352.511a11.2,11.2,0,0,1,1.869,5.679Z" transform="translate(-18.749 -4.345)"/><path class="a" d="M10.867,38.646c-.194-.061-.388-.128-.577-.2a11.236,11.236,0,0,1-4.852-3.529q-.189-.24-.368-.511l4.147-.271.511-.036.123.511Z" transform="translate(-2.989 -16.684)"/><path class="a" d="M35.377,34.432c-.117.163-.24.327-.368.485a11.236,11.236,0,0,1-4.852,3.534c-.189.072-.383.138-.577.2l1.021-4.03.123-.511.511.036Z" transform="translate(-14.981 -16.689)"/></g><path class="a" d="M42.3,15.581a.9.9,0,0,1,0,.117l-1.568-.986a11.042,11.042,0,0,0-1.246-4.341l.6-1.491c.123.163.24.327.352.511A11.2,11.2,0,0,1,42.3,15.07Z" transform="translate(-19.83 -4.345)"/><path class="a" d="M35.377,34.647c-.117.163-.24.327-.368.485a11.236,11.236,0,0,1-4.852,3.534c-.189.072-.383.138-.577.2l.179-.7a11.236,11.236,0,0,0,4.157-3.616Z" transform="translate(-14.981 -16.904)"/><path class="b" d="M8.874,21.961c.163.051.322.1.511.138a11.083,11.083,0,0,0,2.85.373H13a11.037,11.037,0,0,1-2.1-.347c-.169-.041-.327-.087-.511-.138s-.388-.128-.577-.2a11.236,11.236,0,0,1-4.852-3.529q-.189-.24-.368-.511a5.9,5.9,0,0,1-.332-.511A11.108,11.108,0,0,1,2.53,11.864v-.511a.9.9,0,0,1,0-.117v-.511a11.2,11.2,0,0,1,1.864-5.69c.112-.174.23-.337.352-.511s.2-.271.312-.4A11.205,11.205,0,0,1,9.681.761l.48-.174c.194-.066.388-.128.582-.179A11.134,11.134,0,0,1,12.98.026,7.079,7.079,0,0,0,12.234,0a11.19,11.19,0,0,0-3,.409c-.194.051-.388.112-.582.179l-.48.174A11.205,11.205,0,0,0,3.552,4.137c-.107.128-.209.266-.312.4s-.24.327-.352.511A11.2,11.2,0,0,0,1,10.725v.511a.9.9,0,0,0,0,.117v.511A11.108,11.108,0,0,0,2.74,17.253c.107.169.22.332.332.511s.238.337.368.511A11.236,11.236,0,0,0,8.291,21.8,5.012,5.012,0,0,1,8.874,21.961Z" transform="translate(-0.996 0)"/></g><path class="b" d="M9.819,19.211l-.659-.8A11.68,11.68,0,0,1,12.847,16.3l.317.965A10.623,10.623,0,0,0,9.819,19.211Z" transform="translate(-4.987 -8.484)"/><path class="c" d="M12.6,18.931a.511.511,0,1,1,.511-.511A.511.511,0,0,1,12.6,18.931Z" transform="translate(-6.421 -9.271)"/><path class="c" d="M22.129,19.707a11.813,11.813,0,0,0-5.557-4.03h-.026a11.624,11.624,0,0,0-6.5-.322c-.255.061-.511.128-.756.2L8.86,15.7a.511.511,0,0,0,.169.991l3.2,2.651V22.45L8.595,25.632,5.862,24.043,4.33,20.151a11.936,11.936,0,0,1,1.532-1.578.511.511,0,0,0-.659-.781,13.105,13.105,0,0,0-1.788,1.9.582.582,0,0,0-.092.128c-.092.123-.189.245-.276.373a12.8,12.8,0,0,0-1.461,2.9,12.446,12.446,0,0,0-.592,3.167A13.019,13.019,0,0,0,1.3,29.462,11.747,11.747,0,0,0,9.167,37.94a.582.582,0,0,0,.184.051,11.553,11.553,0,0,0,3.391.521,11.747,11.747,0,0,0,2.707-.317c.24-.056.47-.133.7-.2a.562.562,0,0,0,.179-.056,11.619,11.619,0,0,0,5.924-4.3.511.511,0,0,0,.117-.174c.128-.179.255-.352.373-.541a11.747,11.747,0,0,0-.613-13.223Zm1.3,6.226-2.763-1.721,1.21-3.064a10.506,10.506,0,0,1,1.532,4.78Zm-2.252-5.776-1.532,3.887-2.732,1.588L13.252,22.45V19.344L16.424,16.7a10.776,10.776,0,0,1,4.75,3.458Zm-5.924-3.81L12.742,18.44l-2.518-2.1h.046A10.649,10.649,0,0,1,15.249,16.346Zm-2.508,7.012,3.483,3.064L14.943,29.83h-4.4L9.258,26.408ZM3.61,21.147l1.21,3.064L2.057,25.933a11.445,11.445,0,0,1,.511-2.523A11.7,11.7,0,0,1,3.61,21.147Zm-1.3,8.09a12.4,12.4,0,0,1-.291-2.079l3.432-2.166,2.778,1.614L9.6,30.259,7.951,32.47l-4.116.276A10.608,10.608,0,0,1,2.3,29.237ZM4.57,33.716,7.823,33.5l.832,3.161A10.782,10.782,0,0,1,4.57,33.716ZM15.193,37.2a10.654,10.654,0,0,1-5.414-.128L8.758,33.078l1.685-2.227h4.6l1.65,2.227-1.021,3.989c-.143.046-.3.1-.455.133Zm1.624-.511.8-3.167,3.253.215a10.582,10.582,0,0,1-4.045,2.932Zm5.051-4.305c-.072.123-.158.235-.235.347l-4.116-.271-1.645-2.211L17.241,26.6l2.778-1.614,3.447,2.176a10.664,10.664,0,0,1-1.6,5.225Z" transform="translate(-0.989 -7.866)"/><path class="c" d="M51.317,1.146,43.145,9.318a.513.513,0,1,0,.725.725l8.172-8.172a.513.513,0,0,0-.725-.725Z" transform="translate(-21.541 -0.996)"/><path class="c" d="M32.508,8.616a.511.511,0,0,0,.363-.148l4.6-4.6a.513.513,0,1,0-.725-.725l-4.6,4.6a.511.511,0,0,0,.363.873Z" transform="translate(-16.159 -1.974)"/><path class="c" d="M22.742,3.146l-4.6,4.6a.513.513,0,1,0,.725.725l4.6-4.6a.513.513,0,0,0-.725-.725Z" transform="translate(-9.309 -1.974)"/><path class="c" d="M52.742,32.146l-4.6,4.6a.513.513,0,1,0,.725.725l4.6-4.6a.513.513,0,0,0-.725-.725Z" transform="translate(-23.987 -16.163)"/><path class="c" d="M52.742,18.146l-4.6,4.6a.513.513,0,1,0,.725.725l4.6-4.6a.513.513,0,0,0-.725-.725Z" transform="translate(-23.987 -9.313)"/></svg>