<svg id="Face_Detection" data-name="Face Detection" xmlns="http://www.w3.org/2000/svg" width="23.486" height="30.634" viewBox="0 0 23.486 30.634">
  <path id="Path_129" data-name="Path 129" d="M24,17.085a4.085,4.085,0,0,1,8.169,0H30.637l-1.021-1.532-2.042,1.532Z" transform="translate(-16.341 -7.384)" fill="#00aff0"/>
  <path id="Path_130" data-name="Path 130" d="M32.3,40.87V41.6H18V40.87a3.07,3.07,0,0,1,2.257-2.956L23.616,37a1.532,1.532,0,1,0,3.063,0l3.36.914A3.07,3.07,0,0,1,32.3,40.87Z" transform="translate(-13.405 -19.13)" fill="#00aff0"/>
  <g id="Group_3" data-name="Group 3">
    <path id="Path_131" data-name="Path 131" d="M29.934,2H11.553A2.556,2.556,0,0,0,9,4.553V30.082a2.556,2.556,0,0,0,2.553,2.553H29.934a2.556,2.556,0,0,0,2.553-2.553V4.553A2.556,2.556,0,0,0,29.934,2Zm1.532,28.082a1.532,1.532,0,0,1-1.532,1.532H11.553a1.532,1.532,0,0,1-1.532-1.532V4.553a1.532,1.532,0,0,1,1.532-1.532H29.934a1.532,1.532,0,0,1,1.532,1.532Z" transform="translate(-9 -2)" fill="#374140"/>
    <path id="Path_132" data-name="Path 132" d="M31,6h1.021V7.021H31Z" transform="translate(-19.767 -3.958)" fill="#374140"/>
    <path id="Path_133" data-name="Path 133" d="M24,56h8.169v1.021H24Z" transform="translate(-16.341 -28.429)" fill="#374140"/>
    <path id="Path_134" data-name="Path 134" d="M32.317,29.36v-.725a3.59,3.59,0,0,0-2.633-3.449L26.7,24.374v-.606a4.6,4.6,0,0,0,2.553-4.11V16.6a4.6,4.6,0,1,0-9.19,0v3.063a4.6,4.6,0,0,0,2.553,4.11v.606l-2.985.812A3.589,3.589,0,0,0,17,28.634v.725a.511.511,0,0,0,.511.511h14.3A.511.511,0,0,0,32.317,29.36ZM24.659,13.021a3.574,3.574,0,0,1,3.533,3.063h-.707l-.868-1.3a.511.511,0,0,0-.733-.125l-1.906,1.43H21.125a3.574,3.574,0,0,1,3.533-3.063Zm-3.574,6.637V17.106h3.063a.511.511,0,0,0,.306-.1l1.61-1.208.722,1.083a.511.511,0,0,0,.425.227h1.021v2.553a3.574,3.574,0,0,1-7.148,0Zm3.574,4.6a4.58,4.58,0,0,0,1.021-.118v.629a1.021,1.021,0,0,1-2.042,0v-.629a4.58,4.58,0,0,0,1.021.118Zm6.637,4.6H18.021v-.214a2.565,2.565,0,0,1,1.88-2.464l2.827-.769a2.029,2.029,0,0,0,3.861,0l2.825.766A2.566,2.566,0,0,1,31.3,28.634Z" transform="translate(-12.915 -6.894)" fill="#374140"/>
    <path id="Path_135" data-name="Path 135" d="M28,23h1.021v1.021H28Z" transform="translate(-18.299 -12.278)" fill="#374140"/>
    <path id="Path_136" data-name="Path 136" d="M34,23h1.021v1.021H34Z" transform="translate(-21.236 -12.278)" fill="#374140"/>
    <path id="Path_137" data-name="Path 137" d="M29,28h3.063v1.021H29Z" transform="translate(-18.789 -14.725)" fill="#374140"/>
    <path id="Path_138" data-name="Path 138" d="M14.021,12.021h1.532V11H13.511a.511.511,0,0,0-.511.511v2.042h1.021Z" transform="translate(-10.958 -6.405)" fill="#374140"/>
    <path id="Path_139" data-name="Path 139" d="M48.042,11H46v1.021h1.532v1.532h1.021V11.511A.511.511,0,0,0,48.042,11Z" transform="translate(-27.109 -6.405)" fill="#374140"/>
    <path id="Path_140" data-name="Path 140" d="M14.021,46H13v2.042a.511.511,0,0,0,.511.511h2.042V47.532H14.021Z" transform="translate(-10.958 -23.535)" fill="#374140"/>
    <path id="Path_141" data-name="Path 141" d="M47.532,47.532H46v1.021h2.042a.511.511,0,0,0,.511-.511V46H47.532Z" transform="translate(-27.109 -23.535)" fill="#374140"/>
  </g>
</svg>
