<svg xmlns="http://www.w3.org/2000/svg" width="27" height="27" viewBox="0 0 27 27"><defs><style>.a{fill:#2ca01c;}.b{fill:#fff;}</style></defs><g transform="translate(-29 -371)"><circle class="a" cx="13.5" cy="13.5" r="13.5" transform="translate(29 371)"/></g><path class="b" d="M6.563,3.984V0H.7A.7.7,0,0,0,0,.7V14.3a.7.7,0,0,0,.7.7h9.844a.7.7,0,0,0,.7-.7V4.688H7.266A.705.705,0,0,1,6.563,3.984ZM8.235,7.5h.7a.352.352,0,0,1,.343.431L8.165,12.853a.348.348,0,0,1-.343.272H6.709a.351.351,0,0,1-.34-.267,25.106,25.106,0,0,1-.75-3.237H5.6a23.783,23.783,0,0,1-.75,3.237.351.351,0,0,1-.34.267H3.428a.351.351,0,0,1-.343-.275L1.978,7.928A.35.35,0,0,1,2.32,7.5h.718a.351.351,0,0,1,.346.284c.457,2.285.589,3.208.615,3.58.047-.3.214-.958.861-3.595A.349.349,0,0,1,5.2,7.5h.853a.351.351,0,0,1,.343.27c.7,2.941.844,3.633.867,3.791-.006-.328-.076-.521.633-3.785A.34.34,0,0,1,8.235,7.5ZM11.25,3.571V3.75H7.5V0h.179a.7.7,0,0,1,.5.205l2.868,2.871A.7.7,0,0,1,11.25,3.571Z" transform="translate(8 6.5)"/></svg>