<svg xmlns="http://www.w3.org/2000/svg" width="22.5" height="30" viewBox="0 0 22.5 30"><defs><style>.a{fill:#b3e3bd;}</style></defs><path class="a" d="M13.125,7.969V0H1.406A1.4,1.4,0,0,0,0,1.406V28.594A1.4,1.4,0,0,0,1.406,30H21.094A1.4,1.4,0,0,0,22.5,28.594V9.375H14.531A1.41,1.41,0,0,1,13.125,7.969ZM16.471,15h1.4a.7.7,0,0,1,.686.861L16.33,25.705a.7.7,0,0,1-.686.545H13.418a.7.7,0,0,1-.68-.533c-1.512-6.064-1.219-4.758-1.5-6.475h-.029c-.064.838-.141,1.02-1.5,6.475a.7.7,0,0,1-.68.533H6.855A.7.7,0,0,1,6.17,25.7L3.955,15.855A.7.7,0,0,1,4.641,15H6.076a.7.7,0,0,1,.691.568c.914,4.57,1.178,6.416,1.23,7.16.094-.6.428-1.916,1.723-7.189a.7.7,0,0,1,.686-.533h1.705a.7.7,0,0,1,.686.539c1.406,5.883,1.688,7.266,1.734,7.582-.012-.656-.152-1.043,1.266-7.57A.679.679,0,0,1,16.471,15ZM22.5,7.143V7.5H15V0h.357a1.405,1.405,0,0,1,1,.41L22.09,6.152A1.4,1.4,0,0,1,22.5,7.143Z"/></svg>