<svg xmlns="http://www.w3.org/2000/svg" width="17.5" height="12" viewBox="0 0 17.5 12"><defs><style>.a{fill:#b3e3bd;}</style></defs><path class="a" d="M14.875,6.536h-.437L11.463,2.893A1.765,1.765,0,0,0,10.1,2.25H4.247A1.75,1.75,0,0,0,2.623,3.328L1.313,6.6A1.717,1.717,0,0,0,0,8.25v3a.433.433,0,0,0,.438.429H1.75A2.6,2.6,0,0,0,4.375,14.25,2.6,2.6,0,0,0,7,11.679h3.5a2.626,2.626,0,0,0,5.25,0h1.313a.433.433,0,0,0,.438-.429V9.107A2.6,2.6,0,0,0,14.875,6.536Zm-10.5,6.429a1.286,1.286,0,1,1,1.313-1.286A1.3,1.3,0,0,1,4.375,12.964ZM6.344,6.536H3.2l1.05-2.571h2.1Zm1.313,0V3.964H10.1l2.1,2.571Zm5.469,6.429a1.286,1.286,0,1,1,1.313-1.286A1.3,1.3,0,0,1,13.125,12.964Z" transform="translate(0 -2.25)"/></svg>