<svg xmlns="http://www.w3.org/2000/svg" width="27" height="27" viewBox="0 0 27 27"><defs><style>.a{fill:#2ca01c;}.b{fill:#fff;}</style></defs><circle class="a" cx="13.5" cy="13.5" r="13.5"/><path class="b" d="M11.25,3.572V3.75H7.5V0h.178a.7.7,0,0,1,.5.206l2.869,2.869A.7.7,0,0,1,11.25,3.572ZM7.266,4.688a.705.705,0,0,1-.7-.7V0H.7A.7.7,0,0,0,0,.7V14.3a.7.7,0,0,0,.7.7h9.844a.7.7,0,0,0,.7-.7V4.688ZM3.3,5.156A1.406,1.406,0,1,1,1.891,6.563,1.406,1.406,0,0,1,3.3,5.156Zm6.094,7.031h-7.5l.014-1.42L3.063,9.609a.335.335,0,0,1,.483.014L4.7,10.781,7.736,7.749a.352.352,0,0,1,.5,0L9.391,8.906Z" transform="translate(8 5)"/></svg>