<svg xmlns="http://www.w3.org/2000/svg" width="27" height="27" viewBox="0 0 27 27"><defs><style>.a{fill:#2ca01c;}.b{fill:#fff;}</style></defs><circle class="a" cx="13.5" cy="13.5" r="13.5"/><path class="b" d="M5.329,7.5a2.827,2.827,0,0,1-.059-1.374C5.517,6.129,5.493,7.21,5.329,7.5Zm-.05,1.383a13.518,13.518,0,0,1-.832,1.837,10.788,10.788,0,0,1,1.843-.642A3.8,3.8,0,0,1,5.279,8.886ZM2.522,12.542c0,.023.387-.158,1.022-1.178A4.049,4.049,0,0,0,2.522,12.542ZM7.266,4.688H11.25V14.3a.7.7,0,0,1-.7.7H.7a.7.7,0,0,1-.7-.7V.7A.7.7,0,0,1,.7,0H6.563V3.984A.705.705,0,0,0,7.266,4.688ZM7.031,9.721A2.94,2.94,0,0,1,5.78,8.145a4.211,4.211,0,0,0,.182-1.881.734.734,0,0,0-1.4-.2A4.871,4.871,0,0,0,4.8,8.32a27.511,27.511,0,0,1-1.2,2.514s0,0-.006,0c-.794.407-2.156,1.3-1.6,1.992a.91.91,0,0,0,.63.293c.524,0,1.046-.527,1.79-1.811a16.7,16.7,0,0,1,2.314-.68A4.44,4.44,0,0,0,8.61,11.2a.758.758,0,0,0,.577-1.271c-.407-.4-1.591-.284-2.156-.211Zm4.014-6.645L8.174.205A.7.7,0,0,0,7.676,0H7.5V3.75h3.75V3.571A.7.7,0,0,0,11.045,3.076ZM8.874,10.556c.12-.079-.073-.349-1.254-.264C8.707,10.755,8.874,10.556,8.874,10.556Z" transform="translate(8 6)"/></svg>