<svg xmlns="http://www.w3.org/2000/svg" width="22.5" height="30" viewBox="0 0 22.5 30"><defs><style>.a{fill:#b3e3bd;}</style></defs><path class="a" d="M22.5,7.145V7.5H15V0h.355a1.406,1.406,0,0,1,.994.412l5.739,5.739A1.406,1.406,0,0,1,22.5,7.145Zm-7.969,2.23a1.41,1.41,0,0,1-1.406-1.406V0H1.406A1.406,1.406,0,0,0,0,1.406V28.594A1.406,1.406,0,0,0,1.406,30H21.094A1.406,1.406,0,0,0,22.5,28.594V9.375Zm-7.937.938a2.813,2.813,0,1,1-2.813,2.813A2.812,2.812,0,0,1,6.594,10.313ZM18.782,24.375h-15l.028-2.841,2.315-2.315a.67.67,0,0,1,.966.028l2.315,2.315L15.472,15.5a.7.7,0,0,1,.994,0l2.315,2.315Z"/></svg>