<svg xmlns="http://www.w3.org/2000/svg" width="15.049" height="13" viewBox="0 0 15.049 13"><defs><style>.a{fill:#b3e3bd;stroke:#b3e3bd;}</style></defs><g transform="translate(0.5 0.5)"><path class="a" d="M9.073,4.591A1.171,1.171,0,1,0,7.9,3.421,1.174,1.174,0,0,0,9.073,4.591ZM2.927,8.4a2.927,2.927,0,1,0,0,5.854,2.927,2.927,0,1,0,0-5.854Zm0,4.976a2.049,2.049,0,0,1,0-4.1,2.049,2.049,0,0,1,0,4.1Zm3.4-5.854,1.4-1.4.468.468A4.1,4.1,0,0,0,11.18,7.811V6.64a2.908,2.908,0,0,1-2.107-.878L7.961,4.65A1.435,1.435,0,0,0,7.024,4.3a.982.982,0,0,0-.82.351L4.566,6.289a1.156,1.156,0,0,0-.351.82.982.982,0,0,0,.351.82L6.439,9.567v2.927H7.61V8.865Zm4.8.878a2.927,2.927,0,1,0,2.927,2.927A2.9,2.9,0,0,0,11.122,8.4Zm0,4.976a2.049,2.049,0,1,1,2.049-2.049A2.074,2.074,0,0,1,11.122,13.372Z" transform="translate(0 -2.25)"/></g></svg>