<svg id="Layer_5" enable-background="new 0 0 64 64" height="512" viewBox="0 0 64 64" width="512" xmlns="http://www.w3.org/2000/svg"><g><g><g><path d="m52.726 24c-.629 0-1.259-.149-1.822-.43l-1.104-.552c-4.239-2.12-7.603-5.687-9.47-10.044-.219-.51-.33-1.05-.33-1.605 0-1.183.424-2.207 1.194-2.977l1.392-1.392c1.289-1.29 3.539-1.29 4.828 0l1.763 1.763c.531.53.823 1.236.823 1.987v.132c0 1.07-.595 2.033-1.553 2.512-.276.138-.447.416-.447.724v.132c0 .216.084.419.237.572l.94.94c.153.154.356.238.573.238h.132c.309 0 .586-.171.724-.447.479-.958 1.442-1.553 2.512-1.553h.132c.75 0 1.456.292 1.986.823l1.764 1.763c.645.645 1 1.502 1 2.414s-.355 1.77-1 2.414l-1.392 1.392c-.77.77-1.794 1.194-2.882 1.194z" fill="#000000"/></g></g><g><path d="m28.207 15.793c-1.801-1.801-4.196-2.793-6.743-2.793h-2.929c-2.547 0-4.942.992-6.743 2.793-1.8 1.801-2.792 4.196-2.792 6.743 0 3 .168 6.032.5 9.012l.541 4.872c.993-.976 2.262-1.637 3.652-1.868l3.307-.552h3c-3.314 0-6-2.686-6-6v-4l.317-.106c1.764-.588 3.368-1.579 4.683-2.894 1.304 1.304 2.965 2.193 4.773 2.555l2.227.445v4c0 3.314-2.686 6-6 6h3l3.308.551c1.389.232 2.659.892 3.652 1.868l.541-4.872c.332-2.979.5-6.012.5-9.012-.001-2.546-.993-4.941-2.794-6.742z" fill="#000000"/></g><g><path d="m19 5h6v2h-6z"/><path d="m15 5h2v2h-2z"/><path d="m9.586 47h-.586c-1.103 0-2 .897-2 2v2c0 1.103.897 2 2 2h.586c.534 0 1.036-.208 1.414-.586l2.414-2.414-2.414-2.414c-.378-.378-.88-.586-1.414-.586zm0 4h-.586v-2h.586l1 1z"/><path d="m21 47h-2c-1.103 0-2 .897-2 2v2c0 1.103.897 2 2 2h2c1.103 0 2-.897 2-2v-2c0-1.103-.897-2-2-2zm-2 4v-2h2l.001 2z"/><path d="m31 47h-.586c-.534 0-1.036.208-1.414.586l-2.414 2.414 2.414 2.414c.378.378.88.586 1.414.586h.586c1.103 0 2-.897 2-2v-2c0-1.103-.897-2-2-2zm-.586 4-1-1 1-1h.586l.001 2z"/><path d="m49 1c-3.954 0-7.523 1.654-10.071 4.299-.345-2.423-2.412-4.299-4.929-4.299h-28c-2.757 0-5 2.243-5 5v52c0 2.757 2.243 5 5 5h28c2.757 0 5-2.243 5-5v-29h10c7.72 0 14-6.28 14-14s-6.28-14-14-14zm-43 2h28c1.654 0 3 1.346 3 3v1.826c-.228.38-.438.771-.63 1.174h-33.37v-3c0-1.654 1.346-3 3-3zm28 58h-28c-1.654 0-3-1.346-3-3v-2.026c.838.635 1.87 1.026 3 1.026h28c1.13 0 2.162-.391 3-1.026v2.026c0 1.654-1.346 3-3 3zm3-9c0 1.654-1.346 3-3 3h-28c-1.654 0-3-1.346-3-3v-41h32.59c-.38 1.269-.59 2.61-.59 4v14h2zm12-25h-12v-12c0-6.617 5.383-12 12-12s12 5.383 12 12-5.383 12-12 12z"/><path d="m26.472 33.565-1.862-.31c1.461-1.284 2.39-3.161 2.39-5.255v-4.82l-3.03-.606c-1.621-.324-3.094-1.113-4.263-2.281l-.707-.707-.707.707c-1.199 1.199-2.684 2.116-4.292 2.653l-1.001.333v4.721c0 2.094.929 3.971 2.39 5.255l-1.862.31c-1.991.332-3.755 1.404-4.965 3.019-1.008 1.343-1.563 3.008-1.563 4.687v3.729h26v-3.729c0-1.679-.555-3.343-1.563-4.687-1.21-1.615-2.974-2.687-4.965-3.019zm-8.472 1.14c.634.19 1.305.295 2 .295s1.366-.105 2-.295v.295c0 1.103-.897 2-2 2s-2-.897-2-2zm-3-6.705v-3.285c1.461-.537 2.826-1.341 4.006-2.357 1.316 1.092 2.879 1.839 4.571 2.178l1.423.284v3.18c0 2.757-2.243 5-5 5s-5-2.243-5-5zm16 15h-22v-1.729c0-1.249.413-2.487 1.162-3.487.901-1.202 2.213-1.999 3.695-2.246l2.161-.36c.095 2.121 1.837 3.822 3.982 3.822s3.887-1.701 3.982-3.823l2.161.36c1.481.247 2.794 1.044 3.695 2.246.75 1 1.162 2.238 1.162 3.487z"/></g></g></svg>