<svg id="notification" xmlns="http://www.w3.org/2000/svg" width="15.35" height="19.4" viewBox="0 0 15.35 19.4">
  <path id="notification-2" data-name="notification" d="M68.468,15.438a3.014,3.014,0,0,1-.916-1.247,14.432,14.432,0,0,1-.955-5.7c0-.007,0-.015,0-.022a5.5,5.5,0,0,0-3.24-4.992V2.161A2.162,2.162,0,0,0,61.2,0H61.02a2.162,2.162,0,0,0-2.158,2.161V3.474a5.5,5.5,0,0,0-3.241,5.014,14.432,14.432,0,0,1-.955,5.7,3.014,3.014,0,0,1-.916,1.247.553.553,0,0,0-.3.628.578.578,0,0,0,.57.444h4.166a2.926,2.926,0,0,0,5.852,0H68.2a.578.578,0,0,0,.57-.444A.553.553,0,0,0,68.468,15.438ZM60,2.161A1.023,1.023,0,0,1,61.02,1.139H61.2A1.023,1.023,0,0,1,62.22,2.161v.944a5.5,5.5,0,0,0-2.22,0V2.161Zm1.11,16.1a1.793,1.793,0,0,1-1.789-1.75H62.9A1.793,1.793,0,0,1,61.109,18.261ZM63.4,15.372H55.313a5.952,5.952,0,0,0,.3-.523,14.39,14.39,0,0,0,1.148-6.361,4.351,4.351,0,1,1,8.7,0c0,.007,0,.014,0,.021a14.36,14.36,0,0,0,1.148,6.338,5.958,5.958,0,0,0,.3.523Z" transform="translate(-53.434 0)" fill="#fff"/>
</svg>
