<svg xmlns="http://www.w3.org/2000/svg" xmlns:xlink="http://www.w3.org/1999/xlink" width="44" height="44" viewBox="0 0 44 44"><defs><style>.a,.d{fill:#fff;}.b{fill:#daf7d5;stroke:#b3e3bd;}.c{clip-path:url(#a);}.d{stroke:#fff;stroke-width:3px;}.e{stroke:none;}.f{fill:none;}</style><clipPath id="a"><path class="a" d="M16.233,18.262A9.131,9.131,0,1,0,7.1,9.131,9.133,9.133,0,0,0,16.233,18.262Zm8.116,2.029H20.855a11.038,11.038,0,0,1-9.245,0H8.116A8.116,8.116,0,0,0,0,28.407v1.015a3.044,3.044,0,0,0,3.044,3.044H29.422a3.044,3.044,0,0,0,3.044-3.044V28.407A8.116,8.116,0,0,0,24.349,20.291Z" transform="translate(154 156)"/></clipPath></defs><g class="b"><circle class="e" cx="22" cy="22" r="22"/><circle class="f" cx="22" cy="22" r="21.5"/></g><g class="c" transform="translate(-148.732 -145.732)"><g class="d" transform="translate(149.732 145.732)"><ellipse class="e" cx="21" cy="21.5" rx="21" ry="21.5"/><ellipse class="f" cx="21" cy="21.5" rx="19.5" ry="20"/></g></g></svg>