<svg xmlns="http://www.w3.org/2000/svg" width="31.646" height="31.646" viewBox="0 0 31.646 31.646"><defs><style>.a{fill:#daf7d5;}.b{fill:#cad9fc;}.c{fill:#fff;}.d{fill:#374140;}.e{fill:#428dff;}</style></defs><g transform="translate(0.527 0.528)"><path class="a" d="M35.808,21.13l-.527,3.265-3.3,1.83a1.315,1.315,0,0,1-1.867-1.661c.034-.234.1-.517.153-.517a1.321,1.321,0,0,0,.654-.174Z" transform="translate(-14.178 -9.985)"/><path class="a" d="M45.284,15.49V34.124A1.661,1.661,0,0,1,43.7,35.8h-2.11a1.579,1.579,0,0,1-1.577-1.582V19.256l3.692-2.79.127-.095C44.256,16.128,45.284,15.949,45.284,15.49Z" transform="translate(-18.907 -7.32)"/><path class="a" d="M43.7,17.34V35a1.661,1.661,0,0,1-1.588,1.677h-.527a1.579,1.579,0,0,1-1.577-1.582V20.13Z" transform="translate(-18.907 -8.194)"/><path class="a" d="M44.284,2.637a2.638,2.638,0,0,1-2.637,2.637,2.814,2.814,0,0,1-.791-.116,2.645,2.645,0,0,1,0-5.042A2.814,2.814,0,0,1,41.647,0a2.638,2.638,0,0,1,2.637,2.637Z" transform="translate(-18.435 0)"/><ellipse class="a" cx="1.846" cy="2.521" rx="1.846" ry="2.521" transform="translate(20.575 0.116)"/><path class="a" d="M37.232,17.51l-2.9,1.651L29.969,21.64a1.32,1.32,0,0,1-.654.174,1.5,1.5,0,0,1-.153-.011,1.318,1.318,0,0,1-.506-2.453l7.152-4.061Z" transform="translate(-13.229 -7.226)"/><path class="a" d="M46.608,14.313a1.311,1.311,0,0,1-.665,1.145l-1.709.97-1.424-2.22,1.82-1.034A1.281,1.281,0,0,1,45.284,13a1.314,1.314,0,0,1,1.15.659A1.281,1.281,0,0,1,46.608,14.313Z" transform="translate(-20.231 -6.143)"/><rect class="b" width="30" height="2" rx="1" transform="translate(0.473 28.118)"/><rect class="a" width="29" height="2" rx="1" transform="translate(0.473 28.118)"/></g><path class="c" d="M2,58H6.219v1.055H2Z" transform="translate(-0.945 -27.409)"/><path class="d" d="M45.339,3.165a3.165,3.165,0,1,0-3.165,3.165A3.165,3.165,0,0,0,45.339,3.165Zm-5.274,0a2.11,2.11,0,1,1,2.11,2.11A2.11,2.11,0,0,1,40.065,3.165Z" transform="translate(-18.435 0)"/><path class="d" d="M1.055,23.211H12.131a1.056,1.056,0,0,0,1.055-1.055v-2.11A1.053,1.053,0,0,0,12.225,19L15.288.618a.527.527,0,0,0-1.04-.174L11.157,18.992H10.021V13.717a2.1,2.1,0,0,0-2.154-2.1l-3.643-1.5a1.582,1.582,0,0,0-1.087,2.972l2.156.888a2.576,2.576,0,0,0-.019.267v2.637H3.692A1.584,1.584,0,0,0,2.11,18.464a1.564,1.564,0,0,0,.1.527H1.055A1.056,1.056,0,0,0,0,20.046v2.11a1.056,1.056,0,0,0,1.055,1.055ZM3.2,11.431a.524.524,0,0,1,.651-.329l3.715,1.53a.528.528,0,0,1-.345,1L3.515,12.1a.528.528,0,0,1-.319-.674Zm-.031,7.034a.528.528,0,0,1,.527-.527H7.384a.527.527,0,1,0,0-1.055H6.329V14.4l.5.206.024.009a1.539,1.539,0,0,0,2.075-1.173,1.048,1.048,0,0,1,.04.271v5.274H3.692A.528.528,0,0,1,3.165,18.464Zm-2.11,1.582H12.131v2.11H1.055Z" transform="translate(0 -0.004)"/><path class="d" d="M15.747,13.373a2.373,2.373,0,1,0-2.373,2.373A2.373,2.373,0,0,0,15.747,13.373Zm-3.692,0a1.319,1.319,0,1,1,1.319,1.319A1.319,1.319,0,0,1,12.055,13.373Z" transform="translate(-5.198 -5.198)"/><ellipse class="e" cy="0.5" ry="0.5" transform="translate(3 30.646)"/><path class="d" d="M30.591,34.625H27.1a2.241,2.241,0,0,0,.331-1.15V14.841c0-.015-.007-.028-.009-.042a1.806,1.806,0,0,0-.237-.872,1.842,1.842,0,0,0-1.6-.926,1.81,1.81,0,0,0-.915.243l-8.974,5.1a1.841,1.841,0,0,0,.148,3.275,1.815,1.815,0,0,0,.225,1.076,1.844,1.844,0,0,0,1.6.925,1.82,1.82,0,0,0,.915-.243l2.519-1.4V33.57a2.089,2.089,0,0,0,.293,1.055H15.437A3.092,3.092,0,0,1,16.6,33.507a.527.527,0,0,0-.5-.93,4.645,4.645,0,0,0-.807.576V31.46a.527.527,0,0,0-1.055,0v1.692a4.645,4.645,0,0,0-.807-.576.527.527,0,0,0-.5.93A3.092,3.092,0,0,1,14.1,34.625H7a3.092,3.092,0,0,1,1.163-1.117.527.527,0,0,0-.5-.93,4.645,4.645,0,0,0-.807.576V31.46a.527.527,0,0,0-1.055,0v1.692A4.645,4.645,0,0,0,5,32.577a.527.527,0,0,0-.5.93A3.092,3.092,0,0,1,5.66,34.625H1.055A1.056,1.056,0,0,0,0,35.68v1.055a1.056,1.056,0,0,0,1.055,1.055.527.527,0,1,0,0-1.055V35.68H30.591v1.055H5.274a.527.527,0,1,0,0,1.055H30.591a1.056,1.056,0,0,0,1.055-1.055V35.68a1.056,1.056,0,0,0-1.055-1.055ZM15.85,19.735a.785.785,0,0,1,.368-.479l8.979-5.1a.748.748,0,0,1,.386-.1.789.789,0,0,1,.4,1.473l-8.968,5.1a.807.807,0,0,1-1.082-.289.789.789,0,0,1-.079-.6Zm2.212,2.72a.781.781,0,0,1-.6.078.794.794,0,0,1-.483-.373.761.761,0,0,1-.1-.394,1.854,1.854,0,0,0,.649-.222l3.571-2.03V20.77ZM22.157,33.57V18.914l4.219-2.4V33.475a1.2,1.2,0,0,1-.37.86,1,1,0,0,1-.715.29H25.28a1.063,1.063,0,0,1-.663-.273,1.031,1.031,0,0,1-.35-.782V25.131a.527.527,0,0,0-1.055,0V33.57a2.093,2.093,0,0,0,.3,1.055h-.3a1.053,1.053,0,0,1-1.05-1.055Z" transform="translate(0 -6.143)"/></svg>