<?xml version="1.0" standalone="no"?>
<!DOCTYPE svg PUBLIC "-//W3C//DTD SVG 20010904//EN"
 "http://www.w3.org/TR/2001/REC-SVG-20010904/DTD/svg10.dtd">
<svg version="1.0" xmlns="http://www.w3.org/2000/svg"
 width="512.000000pt" height="512.000000pt" viewBox="0 0 512.000000 512.000000"
 preserveAspectRatio="xMidYMid meet">

<g transform="translate(0.000000,512.000000) scale(0.100000,-0.100000)"
fill="#000000" stroke="none">
<path d="M1465 5106 c-81 -25 -145 -81 -191 -166 -17 -32 -19 -67 -24 -429
l-5 -393 -75 -28 c-199 -72 -353 -171 -506 -324 -199 -198 -317 -415 -375
-689 -29 -133 -31 -378 -5 -510 80 -412 341 -765 706 -956 54 -28 133 -64 177
-79 l78 -28 5 -644 5 -645 23 -43 c31 -58 88 -114 148 -143 l49 -24 1270 -3
c877 -2 1278 1 1296 8 38 16 807 790 814 820 3 14 4 932 3 2040 l-3 2015 -21
46 c-31 67 -87 124 -152 156 l-57 28 -1560 2 c-1231 1 -1568 -1 -1600 -11z
m3146 -235 l29 -29 0 -181 0 -181 -1590 0 -1590 0 0 158 c0 86 5 174 10 194
21 74 -115 68 1583 68 l1529 0 29 -29z m29 -2255 l0 -1644 -253 -4 -253 -3
-66 -33 c-72 -35 -113 -77 -150 -152 -22 -42 -23 -59 -26 -302 l-3 -258 -1183
0 c-1313 0 -1215 -5 -1236 68 -6 23 -10 244 -10 603 l0 566 148 0 c173 0 290
18 442 69 188 63 355 164 505 306 l92 87 356 3 355 3 26 24 c51 48 42 135 -18
172 -28 17 -54 19 -298 19 l-267 0 40 83 c49 100 93 242 114 361 8 49 15 93
15 97 0 5 79 9 175 9 202 0 235 8 261 63 23 48 12 98 -27 131 -30 26 -32 26
-217 26 l-187 0 -18 113 c-20 123 -69 282 -116 376 -17 33 -31 63 -31 66 0 3
119 5 265 5 168 0 273 4 288 11 30 13 57 59 57 94 0 35 -27 81 -57 94 -16 7
-140 11 -360 11 l-336 0 -101 98 c-200 191 -417 306 -689 363 -78 17 -139 22
-259 23 l-158 0 0 48 0 48 1590 0 1590 0 0 -1644z m-2885 1323 c436 -54 808
-359 944 -775 40 -123 55 -220 55 -354 0 -134 -15 -231 -55 -354 -188 -575
-807 -906 -1387 -740 -190 54 -364 158 -504 301 -398 408 -437 1033 -92 1483
245 321 640 488 1039 439z m2545 -3374 l-185 -185 -3 132 c-4 171 1 194 41
218 28 17 51 20 182 20 l150 0 -185 -185z" fill="#4f657b"/>
<path d="M3668 3651 c-28 -25 -33 -36 -33 -76 0 -40 5 -51 33 -76 l32 -29 226
0 226 0 29 31 c23 24 29 40 29 74 0 34 -6 50 -29 74 l-29 31 -226 0 -226 0
-32 -29z" fill="#4f657b"/>
<path d="M3690 2897 c-14 -7 -34 -29 -45 -49 -18 -34 -19 -40 -5 -79 26 -72
50 -79 283 -79 212 0 238 5 271 52 9 12 16 40 16 61 0 31 -7 46 -34 73 l-34
34 -213 0 c-152 0 -221 -4 -239 -13z" fill="#4f657b"/>
<path d="M3693 2126 c-33 -15 -63 -60 -63 -96 0 -34 28 -78 60 -95 23 -12 71
-15 241 -15 l211 0 34 34 c46 46 48 101 5 148 l-29 33 -214 2 c-166 2 -220 0
-245 -11z" fill="#4f657b"/>
<path d="M3054 1359 c-50 -14 -79 -53 -79 -106 0 -38 5 -49 33 -74 l32 -29
554 0 554 0 31 31 c59 59 34 156 -47 179 -46 12 -1033 12 -1078 -1z" fill="#4f657b"/>
<path d="M2130 3539 c-14 -5 -190 -175 -392 -377 l-367 -366 -108 105 c-60 59
-122 114 -140 123 -41 20 -125 21 -168 0 -19 -8 -76 -59 -127 -112 -109 -112
-125 -148 -106 -237 10 -48 21 -61 266 -308 162 -163 272 -265 297 -277 49
-24 102 -25 153 -5 46 19 1034 1001 1063 1057 21 41 25 111 8 155 -14 37 -196
221 -236 239 -37 16 -106 17 -143 3z m120 -264 l45 -45 -465 -465 -465 -465
-210 210 -210 210 48 47 47 48 140 -140 c139 -138 141 -140 185 -140 l45 0
392 393 c216 215 395 392 398 392 3 0 26 -20 50 -45z" fill="#4f657b"/>
</g>
</svg>
