<?xml version="1.0" standalone="no"?>
<!DOCTYPE svg PUBLIC "-//W3C//DTD SVG 20010904//EN"
 "http://www.w3.org/TR/2001/REC-SVG-20010904/DTD/svg10.dtd">
<svg version="1.0" xmlns="http://www.w3.org/2000/svg"
 width="64.000000pt" height="64.000000pt" viewBox="0 0 64.000000 64.000000"
 preserveAspectRatio="xMidYMid meet">

<g transform="translate(0.000000,64.000000) scale(0.100000,-0.100000)"
fill="#000000" stroke="none">
<path d="M301 594 c-26 -47 -27 -47 -52 -31 l-24 16 -2 -85 c-1 -78 -3 -87
-31 -118 -56 -64 -73 -175 -38 -249 41 -84 173 -118 264 -67 49 28 66 50 82
109 16 61 -2 139 -47 198 -33 43 -35 50 -36 128 l-2 83 -27 -19 -27 -20 -25
37 c-22 33 -25 34 -35 18z m45 -61 c10 -15 13 -16 28 -4 21 18 29 10 20 -23
-6 -25 -9 -26 -74 -26 -62 0 -68 2 -74 23 -11 41 -8 51 10 36 15 -12 20 -10
38 14 22 29 23 29 52 -20z m64 -88 c0 -12 -17 -15 -90 -15 -73 0 -90 3 -90 15
0 12 17 15 90 15 73 0 90 -3 90 -15z m13 -62 c66 -70 87 -190 45 -253 -41 -59
-72 -75 -148 -75 -76 0 -107 16 -147 75 -43 63 -22 183 44 253 25 25 33 27
103 27 70 0 78 -2 103 -27z" fill="#b3e3bd"/>
<path d="M265 315 c6 -2 22 -6 38 -9 39 -9 34 -26 -8 -26 -19 0 -35 -4 -35
-10 0 -5 16 -10 35 -10 19 0 35 -4 35 -9 0 -11 -25 -21 -51 -21 -10 0 -19 -4
-19 -9 0 -14 81 -83 88 -76 4 4 -8 20 -27 36 l-34 28 25 10 c14 5 28 17 31 25
4 9 13 16 22 16 8 0 15 5 15 10 0 6 -6 10 -14 10 -24 0 -27 28 -3 33 12 2 -7
5 -43 5 -36 0 -60 -1 -55 -3z" fill="#b3e3bd"/>
</g>
</svg>
