<svg id="Component_13_1" data-name="Component 13 – 1" xmlns="http://www.w3.org/2000/svg" width="33.579" height="33.758" viewBox="0 0 33.579 33.758">
  <g id="Consult-Talk">
    <path id="Path_222" data-name="Path 222" d="M43.493,34.557a7.045,7.045,0,0,1-.6,1.455l1.533,2.043-2.373,2.373-2.043-1.533a7.045,7.045,0,0,1-1.455.6l-.364,2.535H34.835l-.364-2.535a7.046,7.046,0,0,1-1.455-.6l-2.043,1.533L28.6,38.055l1.533-2.043a7.046,7.046,0,0,1-.6-1.455L27,34.193V30.835l2.535-.364a7.045,7.045,0,0,1,.6-1.455L28.6,26.974,30.974,24.6l1.231.923.812.61a7.318,7.318,0,0,1,.7-.336,7.091,7.091,0,0,1,.756-.263L34.835,23h3.358l.364,2.535a7.092,7.092,0,0,1,.756.263,7.318,7.318,0,0,1,.7.336l1.539-1.153.5-.381,2.373,2.373-1.533,2.043a7.045,7.045,0,0,1,.6,1.455l2.535.364v3.358Z" transform="translate(-13.009 -11.068)" fill="#fff"/>
    <path id="Path_223" data-name="Path 223" d="M43.276,32.985a4.477,4.477,0,0,0-2.239-.951,4.622,4.622,0,0,0-.56-.034,4.477,4.477,0,0,0,0,8.954,4.611,4.611,0,0,0,1.119-.14,4.477,4.477,0,0,0,1.679-7.83Z" transform="translate(-16.972 -15.031)" fill="#fff"/>
    <path id="Path_224" data-name="Path 224" d="M45.918,16.85a7.09,7.09,0,0,0-.756-.263L44.8,14.052H43.679V9.429a3.913,3.913,0,0,1,.56-6.749V6.217l1.679.56,1.679-.56V2.68a3.913,3.913,0,0,1,.56,6.749v6.6l-1.539,1.153A7.318,7.318,0,0,0,45.918,16.85Z" transform="translate(-19.614 -2.12)" fill="#deeddc"/>
    <path id="Path_226" data-name="Path 226" d="M33.666,21H32.546a1.119,1.119,0,0,0-.56.151v3.207c0,.134-.006.269-.017.4a.638.638,0,0,0,.106.056,1.113,1.113,0,0,0,.47.106h1.119a1.086,1.086,0,0,0,.728-.274,1.1,1.1,0,0,0,.392-.845V22.119A1.123,1.123,0,0,0,33.666,21Z" transform="translate(-15.197 -10.188)" fill="#fff"/>
    <path id="Path_227" data-name="Path 227" d="M23.489,43.3a5.561,5.561,0,0,0-2.742-2.345l-4.315-1.729L15.872,39a2.239,2.239,0,0,1-4.477,0L6.52,40.953A5.586,5.586,0,0,0,3,46.147v5.166H24.267V46.147A5.592,5.592,0,0,0,23.489,43.3Z" transform="translate(-2.44 -18.114)" fill="#deeddc"/>
    <path id="Path_228" data-name="Path 228" d="M22.477,36.16v1.589a2.239,2.239,0,1,1-4.477,0V36.16A5.565,5.565,0,0,0,22.477,36.16Z" transform="translate(-9.045 -16.863)" fill="#fff"/>
    <path id="Path_229" data-name="Path 229" d="M9.8,24.358c0,.134.006.269.017.4a1.063,1.063,0,0,1-.576.162H8.119A1.123,1.123,0,0,1,7,23.8V22.119A1.123,1.123,0,0,1,8.119,21H9.239a1.119,1.119,0,0,1,.56.151Z" transform="translate(-4.202 -10.188)" fill="#fff"/>
    <path id="Path_230" data-name="Path 230" d="M22.477,36.16v1.119a5.565,5.565,0,0,1-4.477,0V36.16A5.565,5.565,0,0,0,22.477,36.16Z" transform="translate(-9.045 -16.863)" fill="#fff"/>
    <path id="Path_231" data-name="Path 231" d="M23.193,16.307v.409h-.56a2.239,2.239,0,0,1-1.791-.9l-1.007-1.343-1.88,1.505a3.345,3.345,0,0,1-2.093.733H12V15.6a5.6,5.6,0,1,1,11.193,0Z" transform="translate(-6.403 -5.344)" fill="#deeddc"/>
    <path id="Path_232" data-name="Path 232" d="M22.633,20.239a2.239,2.239,0,0,1-1.791-.9L19.835,18l-1.88,1.505a3.344,3.344,0,0,1-2.093.733H12v2.8c0,.134.006.269.017.4a5.592,5.592,0,0,0,10.051,2.961,4.734,4.734,0,0,0,.52-.834,5.49,5.49,0,0,0,.576-1.953V23.6c.006-.056.011-.112.011-.168.011-.129.017-.263.017-.4v-2.8Z" transform="translate(-6.403 -8.867)" fill="#deeddc"/>
    <rect id="Rectangle_229" data-name="Rectangle 229" width="1.119" height="1.119" transform="translate(7.835 13.051)" fill="#374140"/>
    <rect id="Rectangle_230" data-name="Rectangle 230" width="1.119" height="1.119" transform="translate(13.432 13.051)" fill="#374140"/>
    <path id="Path_233" data-name="Path 233" d="M35.1,20.893l-2.187-.312a7.834,7.834,0,0,0-.368-.9l1.323-1.764a.56.56,0,0,0-.052-.731l-2.375-2.375a.554.554,0,0,0-.339-.158V9.27a4.477,4.477,0,0,0,1.679-3.493,4.431,4.431,0,0,0-2.559-4.043.56.56,0,0,0-.8.506V5.374L28.3,5.747l-1.119-.373V2.24a.56.56,0,0,0-.8-.5,4.431,4.431,0,0,0-2.559,4.041A4.477,4.477,0,0,0,25.506,9.27v3.783H23.827a.56.56,0,0,0-.554.48l-.362,2.535,1.108.158.293-2.054H26.7l.293,2.054a.56.56,0,0,0,.4.458,6.682,6.682,0,0,1,1.343.552.56.56,0,0,0,.6-.043L31,15.95l1.688,1.688L31.438,19.3a.56.56,0,0,0-.043.6,6.682,6.682,0,0,1,.552,1.343.56.56,0,0,0,.458.4l2.054.293v2.387l-2.054.293a.56.56,0,0,0-.458.4,6.682,6.682,0,0,1-.552,1.343.56.56,0,0,0,.043.6l1.242,1.657-1.688,1.688-1.656-1.247a.56.56,0,0,0-.6-.043,6.682,6.682,0,0,1-1.343.552.56.56,0,0,0-.4.458L26.7,32.081H24.386V29.714a6.212,6.212,0,0,0-.252-1.747,5.1,5.1,0,1,0-3.578-3.952L20.516,24l-4.525-1.81v-.86a6.206,6.206,0,0,0,1.947-1.559h1.411a1.679,1.679,0,0,0,1.679-1.679V16.867a1.679,1.679,0,0,0,1.119-1.576V13.612a1.679,1.679,0,0,0-1.119-1.576v-.663a7.835,7.835,0,1,0-15.67,0v.663a1.679,1.679,0,0,0-1.119,1.576v1.679A1.679,1.679,0,0,0,5.918,16.97H7.037c.036,0,.071-.006.106-.008a6.169,6.169,0,0,0,3.252,4.365v.86L5.87,24A6.128,6.128,0,0,0,2,29.714v5.165a.56.56,0,0,0,.56.56H23.827a.56.56,0,0,0,.56-.56V33.2h2.8a.56.56,0,0,0,.554-.48l.312-2.187a7.835,7.835,0,0,0,.9-.368l1.764,1.323a.56.56,0,0,0,.731-.052l2.375-2.375a.56.56,0,0,0,.052-.731l-1.323-1.764a7.836,7.836,0,0,0,.368-.9l2.187-.312a.56.56,0,0,0,.48-.554V21.447a.56.56,0,0,0-.48-.554Zm-6.156-4.806c-.026-.013-.056-.021-.082-.034V9.135H27.744v4.438l-.006-.04a.56.56,0,0,0-.554-.48h-.56V8.989a.56.56,0,0,0-.24-.459,3.358,3.358,0,0,1-.32-5.259V5.777a.56.56,0,0,0,.383.531l1.679.56a.56.56,0,0,0,.354,0l1.679-.56a.56.56,0,0,0,.383-.531V3.271a3.358,3.358,0,0,1-.32,5.261.56.56,0,0,0-.24.458v6.32Zm-7.355,7.039a3.946,3.946,0,1,1,1.865,3.325,6.109,6.109,0,0,0-1.461-1.61,3.826,3.826,0,0,1-.4-1.715Zm-2.239-4.477H18.67a6.1,6.1,0,0,0,.574-1.687c.035,0,.07.008.106.008h.56v1.119A.56.56,0,0,1,19.349,18.649ZM18.23,12.493a1.687,1.687,0,0,1-1.343-.672l-1.007-1.343a.56.56,0,0,0-.377-.219.566.566,0,0,0-.42.118l-1.878,1.5a2.808,2.808,0,0,1-1.746.616h-3.3v-.56a5.037,5.037,0,1,1,10.074,0Zm2.8,2.8a.56.56,0,0,1-.56.56H19.349v-2.8h1.119a.56.56,0,0,1,.56.56ZM13.193,4.657a6.723,6.723,0,0,1,6.716,6.716v.56h-.56a6.156,6.156,0,1,0-12.312,0h-.56v-.56a6.723,6.723,0,0,1,6.716-6.716ZM5.918,15.851a.56.56,0,0,1-.56-.56V13.612a.56.56,0,0,1,.56-.56H7.037v2.8Zm2.239,0V13.612h3.3a3.931,3.931,0,0,0,2.447-.859l1.428-1.142.659.881a2.812,2.812,0,0,0,2.239,1.119v2.239a5.007,5.007,0,0,1-.852,2.8H13.193v1.119h3.159a5.032,5.032,0,0,1-8.2-3.918Zm5.037,6.156a6.137,6.137,0,0,0,1.679-.238v.8a1.679,1.679,0,1,1-3.358,0v-.8a6.137,6.137,0,0,0,1.679.238ZM23.267,34.319H19.909V28.163H18.79v6.156H7.6V28.163H6.477v6.156H3.119V29.714a5.013,5.013,0,0,1,3.167-4.677l4.233-1.693a2.78,2.78,0,0,0,5.349,0L20.1,25.037a5.013,5.013,0,0,1,3.167,4.677Z" transform="translate(-2 -1.68)" fill="#929e94"/>
    <rect id="Rectangle_231" data-name="Rectangle 231" width="1.119" height="1.119" transform="translate(22.946 13.611)" fill="#374140"/>
    <rect id="Rectangle_232" data-name="Rectangle 232" width="1.119" height="1.119" transform="translate(22.946 28.162)" fill="#374140"/>
    <rect id="Rectangle_233" data-name="Rectangle 233" width="1.119" height="1.119" transform="translate(27.858 26.591) rotate(-45)" fill="#374140"/>
    <rect id="Rectangle_234" data-name="Rectangle 234" width="1.119" height="1.119" transform="translate(30.221 20.886)" fill="#374140"/>
    <rect id="Rectangle_235" data-name="Rectangle 235" width="1.119" height="1.119" transform="translate(27.859 16.302) rotate(-45)" fill="#374140"/>
  </g>
</svg>
