<svg id="Shop-Hand-Business-Ecommerce-Business" xmlns="http://www.w3.org/2000/svg" width="35.041" height="31.857" viewBox="0 0 35.041 31.857">
  <path id="Path_142" data-name="Path 142" d="M32.352,6l2.336,4.088H16L18.336,6Z" transform="translate(-7.824 -5.416)" fill="#00aeef"/>
  <path id="Path_143" data-name="Path 143" d="M34.352,20.021v7.908a.584.584,0,0,1-.584.584H23.84v-5.84h-3.5v5.84H18.584A.584.584,0,0,1,18,27.928V20.021A2.333,2.333,0,0,0,21.5,18a2.336,2.336,0,1,0,4.672,0,2.336,2.336,0,1,0,4.672,0,2.333,2.333,0,0,0,3.5,2.021Zm-2.336,6.155v-3.5h-5.84v3.5Z" transform="translate(-8.656 -10.408)" fill="#00aeef"/>
  <path id="Path_144" data-name="Path 144" d="M7.672,51.592v.584H3V44H7.672v7.592Z" transform="translate(-2.416 -21.224)" fill="#00aeef"/>
  <g id="Group_4" data-name="Group 4">
    <path id="Path_145" data-name="Path 145" d="M33.04,40.211l-4.973,2.871a2.336,2.336,0,0,0-2.122-1.372H19.031l-2.156-.718a8.742,8.742,0,0,0-2.77-.45h-.5A8.76,8.76,0,0,0,9.1,41.79l-.839.5H7.84a.584.584,0,0,0-.584-.584H2.584A.584.584,0,0,0,2,42.294V50.47a.584.584,0,0,0,.584.584H7.256a.584.584,0,0,0,.584-.584h4.4a4.089,4.089,0,0,1,.478.028l6.962.818a8.584,8.584,0,0,0,1.01.058A8.818,8.818,0,0,0,25.081,50.2l10.3-5.942a2.337,2.337,0,1,0-2.336-4.048ZM6.672,49.886h-3.5V42.878h3.5Zm28.12-6.638L24.5,49.192a7.638,7.638,0,0,1-4.685.965l-6.961-.818a5.272,5.272,0,0,0-.613-.037H7.84v-5.84h.584a.584.584,0,0,0,.3-.084l.978-.584a7.592,7.592,0,0,1,3.906-1.085h.5a7.593,7.593,0,0,1,2.4.39l2.245.749a.584.584,0,0,0,.185.03h7.008a1.168,1.168,0,1,1,0,2.336h-8.76v1.168h8.76a2.331,2.331,0,0,0,2.308-2.059l5.369-3.1a1.169,1.169,0,0,1,1.171,2.024Z" transform="translate(-2 -19.517)" fill="#374140"/>
    <path id="Path_146" data-name="Path 146" d="M57.752,9.5A1.752,1.752,0,1,0,56,7.752,1.752,1.752,0,0,0,57.752,9.5Zm0-2.336a.584.584,0,1,1-.584.584A.584.584,0,0,1,57.752,7.168Z" transform="translate(-24.463 -5.416)" fill="#374140"/>
    <path id="Path_147" data-name="Path 147" d="M58,14h1.168v3.5H58Z" transform="translate(-25.295 -8.744)" fill="#374140"/>
    <path id="Path_148" data-name="Path 148" d="M58,22h1.168v1.168H58Z" transform="translate(-25.295 -12.072)" fill="#374140"/>
    <path id="Path_149" data-name="Path 149" d="M51.752,14.5A1.752,1.752,0,1,0,50,12.752,1.752,1.752,0,0,0,51.752,14.5Zm0-2.336a.584.584,0,1,1-.584.584A.584.584,0,0,1,51.752,12.168Z" transform="translate(-21.967 -7.496)" fill="#374140"/>
    <path id="Path_150" data-name="Path 150" d="M52,19h1.168v3.5H52Z" transform="translate(-22.799 -10.824)" fill="#374140"/>
    <path id="Path_151" data-name="Path 151" d="M52,27h1.168v1.168H52Z" transform="translate(-22.799 -14.152)" fill="#374140"/>
    <path id="Path_152" data-name="Path 152" d="M3.752,9.5A1.752,1.752,0,1,0,2,7.752,1.752,1.752,0,0,0,3.752,9.5Zm0-2.336a.584.584,0,1,1-.584.584A.584.584,0,0,1,3.752,7.168Z" transform="translate(-2 -5.416)" fill="#374140"/>
    <path id="Path_153" data-name="Path 153" d="M4,14H5.168v3.5H4Z" transform="translate(-2.832 -8.744)" fill="#374140"/>
    <path id="Path_154" data-name="Path 154" d="M4,22H5.168v1.168H4Z" transform="translate(-2.832 -12.072)" fill="#374140"/>
    <path id="Path_155" data-name="Path 155" d="M9.752,14.5A1.752,1.752,0,1,0,8,12.752,1.752,1.752,0,0,0,9.752,14.5Zm0-2.336a.584.584,0,1,1-.584.584A.584.584,0,0,1,9.752,12.168Z" transform="translate(-4.496 -7.496)" fill="#374140"/>
    <path id="Path_156" data-name="Path 156" d="M10,19h1.168v3.5H10Z" transform="translate(-5.328 -10.824)" fill="#374140"/>
    <path id="Path_157" data-name="Path 157" d="M10,27h1.168v1.168H10Z" transform="translate(-5.328 -14.152)" fill="#374140"/>
    <path id="Path_158" data-name="Path 158" d="M16.168,14.913V22.52a1.168,1.168,0,0,0,1.168,1.168H32.52a1.168,1.168,0,0,0,1.168-1.168V14.913a2.907,2.907,0,0,0,1.168-2.321V9.672a.58.58,0,0,0-.077-.292L32.443,5.292A.584.584,0,0,0,31.936,5H17.92a.584.584,0,0,0-.507.292L15.077,9.38A.58.58,0,0,0,15,9.672v2.92A2.907,2.907,0,0,0,16.168,14.913Zm3.5,7.607V17.848h2.336V22.52Zm12.848,0H23.176V17.264a.584.584,0,0,0-.584-.584h-3.5a.584.584,0,0,0-.584.584V22.52H17.336V15.454a2.9,2.9,0,0,0,2.92-1.127,2.893,2.893,0,0,0,4.672,0,2.893,2.893,0,0,0,4.672,0,2.9,2.9,0,0,0,2.92,1.127Zm-.584-8.176a1.752,1.752,0,0,1-1.752-1.752H29.016a1.752,1.752,0,1,1-3.5,0H24.344a1.752,1.752,0,1,1-3.5,0H19.672a1.752,1.752,0,1,1-3.5,0V10.256h17.52v2.336A1.752,1.752,0,0,1,31.936,14.344ZM18.259,6.168H31.6l1.669,2.92H16.59Z" transform="translate(-7.408 -5)" fill="#374140"/>
    <path id="Path_159" data-name="Path 159" d="M37.424,25h-5.84a.584.584,0,0,0-.584.584v3.5a.584.584,0,0,0,.584.584h5.84a.584.584,0,0,0,.584-.584v-3.5A.584.584,0,0,0,37.424,25Zm-.584,3.5H32.168V26.168H36.84Z" transform="translate(-14.064 -13.32)" fill="#374140"/>
  </g>
</svg>
