<svg id="_083-shopping" data-name="083-shopping" xmlns="http://www.w3.org/2000/svg" width="31.772" height="31.772" viewBox="0 0 31.772 31.772">
  <g id="Group_6" data-name="Group 6" transform="translate(0.53 0.53)">
    <path id="Path_170" data-name="Path 170" d="M191.886,8,194,13.3H176L178.118,8Zm0,0" transform="translate(-164.88 -8)" fill="#daf7d5"/>
    <path id="Path_171" data-name="Path 171" d="M20.179,370.178H8v-3.4a3.184,3.184,0,0,1,2.34-3.066l2.764-.752,2.309,1.922,2.309-1.922,2.764.752a3.154,3.154,0,0,1,1.281.7v1.53a3.149,3.149,0,0,0,1.059,2.362v1.875Zm0,0" transform="translate(-8 -339.466)" fill="#b3e3bd"/>
    <path id="Path_172" data-name="Path 172" d="M227.554,225a5.834,5.834,0,0,0-4.035-4.517l.1-.249L225,216.53c-.662,0-.927-.53-1.589-.53s-.927,1.059-1.589,1.059S220.9,216,220.236,216s-.927.53-1.589.53l1.387,3.707.1.249a5.814,5.814,0,0,0-4.13,5.576v2.648a3.189,3.189,0,0,0,3.177,3.177h5.3a3.177,3.177,0,0,0,3.177-3.177v-2.648A5.816,5.816,0,0,0,227.554,225Zm0,0" transform="translate(-202.233 -202.232)" fill="#b3e3bd"/>
    <path id="Path_173" data-name="Path 173" d="M71.413,203.707V205.3h-.879a1.6,1.6,0,0,1-1.541-1.2l-.228-.916-.318.424a4.241,4.241,0,0,1-3.389,1.695H64v-1.589a3.707,3.707,0,0,1,7.413,0Zm0,0" transform="translate(-60.293 -187.291)" fill="#b3e3bd"/>
    <path id="Path_174" data-name="Path 174" d="M412.236,89.059v2.118a2.118,2.118,0,1,1-4.236,0V88h3.177A1.062,1.062,0,0,1,412.236,89.059Zm0,0" transform="translate(-381.524 -82.705)" fill="#b3e3bd"/>
    <path id="Path_175" data-name="Path 175" d="M284.236,88v3.177a2.118,2.118,0,1,1-4.236,0V88Zm0,0" transform="translate(-261.996 -82.705)" fill="#b3e3bd"/>
    <path id="Path_176" data-name="Path 176" d="M348.236,88v3.177a2.118,2.118,0,1,1-4.236,0V88Zm0,0" transform="translate(-321.76 -82.705)" fill="#b3e3bd"/>
    <path id="Path_177" data-name="Path 177" d="M220.236,88v3.177a2.118,2.118,0,0,1-4.236,0V88Zm0,0" transform="translate(-202.232 -82.705)" fill="#b3e3bd"/>
    <path id="Path_178" data-name="Path 178" d="M156.236,88v3.177a2.118,2.118,0,0,1-4.236,0V89.059A1.062,1.062,0,0,1,153.059,88Zm0,0" transform="translate(-142.469 -82.705)" fill="#b3e3bd"/>
  </g>
  <path id="Path_179" data-name="Path 179" d="M13.238,207.356H12.179V210H3.707v-2.648H2.648V210H1.059v-2.87a2.66,2.66,0,0,1,1.95-2.555l2.5-.679,2.1,1.747a.529.529,0,0,0,.678,0l2.1-1.747,2.191.6.279-1.022-2.787-.76v-.794a3.7,3.7,0,0,0,1.589-3.037v-.53a.53.53,0,0,0,.53-.529v-1.589a4.236,4.236,0,1,0-8.472,0v1.589a.53.53,0,0,0,.53.529v.53a3.7,3.7,0,0,0,1.589,3.037v.794l-3.1.842A3.722,3.722,0,0,0,0,207.134v3.4a.53.53,0,0,0,.53.53h14.3V210H13.238Zm-8.472-11.12a3.177,3.177,0,1,1,6.354,0V197.3h-.348a1.059,1.059,0,0,1-1.029-.8l-.228-.915a.53.53,0,0,0-.409-.391.542.542,0,0,0-.1-.011.529.529,0,0,0-.424.212l-.318.424A3.727,3.727,0,0,1,5.3,197.3h-.53Zm.53,2.648v-.53a4.791,4.791,0,0,0,3.455-1.483,2.111,2.111,0,0,0,1.84,1.468v.544a2.648,2.648,0,1,1-5.3,0Zm2.648,3.707A3.683,3.683,0,0,0,9,202.432v.688a.524.524,0,0,0,.185.394L7.943,204.55,6.7,203.514a.524.524,0,0,0,.185-.394v-.688a3.684,3.684,0,0,0,1.059.159Zm0,0" transform="translate(0 -179.291)" fill="#374140"/>
  <path id="Path_180" data-name="Path 180" d="M217.532,213.1v-.859h-.625l1.122-2.991a.53.53,0,0,0-.5-.715,1.018,1.018,0,0,1-.53-.195,2.013,2.013,0,0,0-1.059-.335,1.618,1.618,0,0,0-1.193.711c-.131.147-.305.349-.4.349s-.265-.2-.4-.349a1.618,1.618,0,0,0-1.193-.711,2.013,2.013,0,0,0-1.059.335,1.018,1.018,0,0,1-.53.195.53.53,0,0,0-.5.715l1.122,2.991h-.625v.859A6.354,6.354,0,0,0,208,218.59v2.648a3.712,3.712,0,0,0,3.707,3.707H217a3.711,3.711,0,0,0,3.707-3.707V218.59A6.354,6.354,0,0,0,217.532,213.1Zm-5.647-3.659a3.578,3.578,0,0,0,.352-.183,1.018,1.018,0,0,1,.529-.195c.09,0,.265.2.4.349a1.357,1.357,0,0,0,2.386,0c.131-.147.305-.349.4-.349a1.018,1.018,0,0,1,.53.195,3.575,3.575,0,0,0,.35.183l-1.047,2.8h-2.842Zm7.766,11.8A2.651,2.651,0,0,1,217,223.885h-5.3a2.651,2.651,0,0,1-2.648-2.648V218.59a5.3,5.3,0,0,1,3.288-4.9,2.124,2.124,0,0,0-.111.661v.53H213.3v-.53a1.059,1.059,0,1,1,2.118,0v.53h1.059v-.53a2.124,2.124,0,0,0-.111-.661,5.3,5.3,0,0,1,3.288,4.9Zm0,0" transform="translate(-194.232 -194.232)" fill="#374140"/>
  <path id="Path_181" data-name="Path 181" d="M281.589,329.589a.53.53,0,0,1,.53.53h1.059a1.589,1.589,0,0,0-1.059-1.491V328h-1.059v.627a1.585,1.585,0,0,0,.53,3.08.53.53,0,1,1-.53.53H280a1.589,1.589,0,0,0,1.059,1.491v.627h1.059v-.627a1.585,1.585,0,0,0-.53-3.08.53.53,0,0,1,0-1.059Zm0,0" transform="translate(-261.467 -306.289)" fill="#374140"/>
  <path id="Path_182" data-name="Path 182" d="M336,368h1.059v1.059H336Zm0,0" transform="translate(-313.76 -343.642)" fill="#374140"/>
  <path id="Path_183" data-name="Path 183" d="M256,368h1.059v1.059H256Zm0,0" transform="translate(-239.055 -343.642)" fill="#374140"/>
  <path id="Path_184" data-name="Path 184" d="M164.651,5.3h-.171L162.5.333A.53.53,0,0,0,162,0H148.236a.53.53,0,0,0-.492.333L145.76,5.3h-.171A1.589,1.589,0,0,0,144,6.884V9a2.652,2.652,0,0,0,2.118,2.595v1.642h1.059V11.6a2.644,2.644,0,0,0,1.589-1.022,2.623,2.623,0,0,0,4.236,0,2.623,2.623,0,0,0,4.236,0,2.623,2.623,0,0,0,4.236,0,2.644,2.644,0,0,0,1.589,1.022V22.24a.53.53,0,0,1-.53.53H162v1.059h.53a1.589,1.589,0,0,0,1.589-1.589V11.6A2.652,2.652,0,0,0,166.24,9V6.884A1.589,1.589,0,0,0,164.651,5.3ZM148.595,1.059h13.051L163.34,5.3H146.9Zm-1.947,9.531A1.589,1.589,0,0,1,145.059,9V6.884a.53.53,0,0,1,.53-.53h2.648V9A1.589,1.589,0,0,1,146.648,10.59Zm4.236,0A1.589,1.589,0,0,1,149.3,9V6.354h3.177V9A1.589,1.589,0,0,1,150.884,10.59Zm4.236,0A1.589,1.589,0,0,1,153.531,9V6.354h3.177V9A1.589,1.589,0,0,1,155.12,10.59Zm4.236,0A1.589,1.589,0,0,1,157.768,9V6.354h3.177V9A1.589,1.589,0,0,1,159.356,10.59ZM165.181,9A1.589,1.589,0,0,1,162,9V6.354h2.648a.53.53,0,0,1,.53.53Zm0,0" transform="translate(-134.468 0)" fill="#374140"/>
</svg>
