<svg id="store" xmlns="http://www.w3.org/2000/svg" width="32.197" height="30.788" viewBox="0 0 32.197 30.788">
  <g id="Group_1" data-name="Group 1" transform="translate(0.954 0.954)">
    <path id="Path_130" data-name="Path 130" d="M43.138,26.374H17.494A2.322,2.322,0,0,0,15.172,28.7v6.369A3.029,3.029,0,0,0,18.2,38.094h0a3.029,3.029,0,0,0,3.029-3.029,3.029,3.029,0,0,0,3.029,3.029h0a3.029,3.029,0,0,0,3.029-3.029,3.029,3.029,0,0,0,3.029,3.029h0a3.029,3.029,0,0,0,3.029-3.029,3.029,3.029,0,0,0,3.029,3.029h0A3.029,3.029,0,0,0,39.4,35.065a3.029,3.029,0,0,0,3.029,3.029h0a3.029,3.029,0,0,0,3.029-3.029V28.7A2.322,2.322,0,0,0,43.138,26.374Z" transform="translate(-15.172 -26.374)" fill="#fff"/>
    <circle id="Ellipse_7" data-name="Ellipse 7" cx="5.793" cy="5.793" r="5.793" transform="translate(17.135 15.748)" fill="#fff"/>
  </g>
  <path id="Path_131" data-name="Path 131" d="M3.983,24.83a3.976,3.976,0,0,0,3.029-1.4,3.978,3.978,0,0,0,6.058,0,3.978,3.978,0,0,0,6.058,0,3.978,3.978,0,0,0,6.058,0A3.981,3.981,0,0,0,32.2,20.847V14.478A3.28,3.28,0,0,0,28.92,11.2H3.276A3.28,3.28,0,0,0,0,14.478v6.369a3.984,3.984,0,0,0,1.939,3.417V38.049A.954.954,0,0,0,2.893,39H19.717a6.745,6.745,0,0,0,8.213.091l2.617,2.616A.954.954,0,0,0,31.9,40.361L29.28,37.744a6.747,6.747,0,0,0-8.958-9.78H12.056a.954.954,0,0,0-.954.954v3.53a.954.954,0,0,0,1.908,0V29.873h5.315a6.766,6.766,0,0,0-.271,7.222H3.847V24.826C3.892,24.828,3.937,24.83,3.983,24.83ZM27.3,30.275a4.839,4.839,0,1,1-3.421-1.417A4.806,4.806,0,0,1,27.3,30.275Zm-25.4-15.8A1.37,1.37,0,0,1,3.276,13.11H28.921a1.37,1.37,0,0,1,1.368,1.368v6.369a2.075,2.075,0,1,1-4.15,0V18.075a.954.954,0,0,0-1.908,0v2.772a2.075,2.075,0,1,1-4.15,0v-4.59a.954.954,0,0,0-1.908,0v4.59a2.075,2.075,0,0,1-4.15,0V18.075a.954.954,0,0,0-1.908,0v2.772a2.075,2.075,0,1,1-4.15,0v-4.59a.954.954,0,0,0-1.908,0v4.59a2.075,2.075,0,0,1-4.15,0V14.478Z" transform="translate(0 -11.202)" fill="#00aff0"/>
</svg>
