<svg id="Support" xmlns="http://www.w3.org/2000/svg" width="24" height="34.287" viewBox="0 0 24 34.287">
  <g id="Group_2" data-name="Group 2" transform="translate(0.571 2.859)">
    <path id="Path_121" data-name="Path 121" d="M30.286,52.75H12V47.127a3.431,3.431,0,0,1,2.223-3.211L20,41.75v5.857l3.429,2.857,3.429-2.857V41.75l5.777,2.166a3.431,3.431,0,0,1,2.223,3.211V52.75Z" transform="translate(-12 -21.893)" fill="#b3e3bd"/>
    <path id="Path_122" data-name="Path 122" d="M44.286,18.143v4.571a1.143,1.143,0,1,1-2.286,0V18.143a1.143,1.143,0,1,1,2.286,0Z" transform="translate(-24.857 -11.286)" fill="#b3e3bd"/>
    <path id="Path_123" data-name="Path 123" d="M20.286,22.714a1.143,1.143,0,0,1-2.286,0V18.143a1.143,1.143,0,0,1,2.286,0Z" transform="translate(-14.571 -11.286)" fill="#b3e3bd"/>
    <path id="Path_124" data-name="Path 124" d="M16.286,19v4.571H15.143A1.146,1.146,0,0,1,14,22.429V20.143A1.146,1.146,0,0,1,15.143,19Z" transform="translate(-12.857 -12.143)" fill="#b3e3bd"/>
    <path id="Path_125" data-name="Path 125" d="M47.143,19a1.146,1.146,0,0,1,1.143,1.143v2.286a1.146,1.146,0,0,1-1.143,1.143H46V19Z" transform="translate(-26.571 -12.143)" fill="#b3e3bd"/>
    <path id="Path_126" data-name="Path 126" d="M33.429,13.857v2.286c-1.731,0-2.206-.977-2.977-2.526l-.451-.9-1.434,1.229a9.154,9.154,0,0,1-5.949,2.2H22V12.714a5.714,5.714,0,1,1,11.429,0Z" transform="translate(-16.286 -7)" fill="#b3e3bd"/>
  </g>
  <path id="Path_127" data-name="Path 127" d="M32.406,26.342l-6.549-2.453V21.876a6.3,6.3,0,0,0,3.234-4.067,1.69,1.69,0,0,0,.766.189,1.714,1.714,0,0,0,1.609-1.143h.105v3.429h-.105a1.714,1.714,0,1,0,0,1.143h.105a1.143,1.143,0,0,0,1.143-1.143V16.751a1.714,1.714,0,0,0,1.143-1.609V12.856a1.714,1.714,0,0,0-1.167-1.617,9.7,9.7,0,0,0-19.381,0,1.714,1.714,0,0,0-1.167,1.617v2.286a1.714,1.714,0,0,0,1.714,1.714h.677A1.714,1.714,0,0,0,16.143,18a1.69,1.69,0,0,0,.766-.189,6.3,6.3,0,0,0,3.234,4.067v2.012l-6.55,2.453A4.022,4.022,0,0,0,11,30.09v5.623a.571.571,0,0,0,.571.571H34.429A.571.571,0,0,0,35,35.713V30.09A4.021,4.021,0,0,0,32.406,26.342Zm-2.549-4.914a.571.571,0,1,1,.571-.571A.571.571,0,0,1,29.857,21.427Zm-12-9.714V10.57a5.143,5.143,0,0,1,10.286,0v2.8c-.9-.186-1.251-.864-1.895-2.153l-.448-.9a.571.571,0,0,0-.883-.178l-1.432,1.227A8.579,8.579,0,0,1,17.9,13.427h-.046Zm12.571,4.571a.571.571,0,1,1-1.143,0V11.713a.571.571,0,1,1,1.143,0Zm2.286-1.143a.571.571,0,0,1-.571.571h-.571V12.284h.571a.571.571,0,0,1,.571.571ZM23,3.142a8.575,8.575,0,0,1,8.542,8h-.076a1.688,1.688,0,0,0-2.2-1.029,6.278,6.278,0,0,0-12.525,0,1.688,1.688,0,0,0-2.2,1.029h-.076a8.575,8.575,0,0,1,8.542-8Zm-9.714,12V12.856a.571.571,0,0,1,.571-.571h.571v3.429h-.571A.571.571,0,0,1,13.286,15.142Zm2.857,1.714a.571.571,0,0,1-.571-.571V11.713a.571.571,0,1,1,1.143,0v4.571A.571.571,0,0,1,16.143,16.856Zm1.714-.571V14.57H17.9a9.722,9.722,0,0,0,6.322-2.339l.876-.751.146.292c.7,1.408,1.278,2.546,2.895,2.759v1.753a5.143,5.143,0,1,1-10.286,0ZM23,22.57a6.266,6.266,0,0,0,1.714-.243v1.6L23,24.788l-1.714-.857v-1.6A6.266,6.266,0,0,0,23,22.57Zm-2.318,2.337,2.063,1.029a.571.571,0,0,0,.511,0l2.063-1.029.539.2V30.3L23,32.684,20.143,30.3V25.109ZM33.857,35.142H30.429v-4H29.286v4H16.714v-4H15.571v4H12.143V30.09a2.871,2.871,0,0,1,1.852-2.676L19,25.538V30.57a.571.571,0,0,0,.206.439l3.429,2.857a.571.571,0,0,0,.731,0l3.429-2.857A.571.571,0,0,0,27,30.57V25.538l5,1.876a2.873,2.873,0,0,1,1.853,2.677Z" transform="translate(-11 -1.997)" fill="#374140"/>
  <path id="Path_128" data-name="Path 128" d="M32.714,29H31.571a1.714,1.714,0,1,1-3.429,0H27a2.857,2.857,0,0,0,5.714,0Z" transform="translate(-17.857 -13.57)" fill="#374140"/>
</svg>
