<svg xmlns="http://www.w3.org/2000/svg" width="30.235" height="32" viewBox="0 0 30.235 32"><defs><style>.a{fill:#b3e3bd;}.b{fill:#fff;}.c{fill:#374140;}</style></defs><path class="a" d="M50.914,31.1,48.376,9.381A2.079,2.079,0,0,0,46.3,7.505H26.251a2.079,2.079,0,0,0-2.075,1.876L21.638,31.1A2.086,2.086,0,0,0,23.713,33.4H34.79v-.429H44.926V33.4H48.84A2.086,2.086,0,0,0,50.914,31.1Z" transform="translate(-21.158 -7.036)"/><path class="a" d="M23.953,31.1,26.491,9.381a2.079,2.079,0,0,1,2.075-1.876H26.251a2.079,2.079,0,0,0-2.075,1.876L21.638,31.1A2.086,2.086,0,0,0,23.713,33.4h2.315A2.086,2.086,0,0,1,23.953,31.1Z" transform="translate(-21.158 -7.036)"/><path class="b" d="M81.577,62.611l-2.423-20.57a.532.532,0,0,0-.53-.479H59.616a.532.532,0,0,0-.53.479l-2.423,20.57a.532.532,0,0,0,.529.585H81.047A.532.532,0,0,0,81.577,62.611Z" transform="translate(-54.002 -38.964)"/><path class="b" d="M272.569,294.484a3.971,3.971,0,0,0-3.852,3.993v1.9H271v-1.922a1.674,1.674,0,0,1,1.584-1.686,1.649,1.649,0,0,1,1.711,1.646v1.922a1.064,1.064,0,0,1,0,2.084v2.174a1.064,1.064,0,0,1,0,2.084v.583a.353.353,0,0,0,.353.353h1.575a.353.353,0,0,0,.353-.353v-8.845A3.932,3.932,0,0,0,272.569,294.484Z" transform="translate(-252.805 -276.078)"/><path class="a" d="M273.2,387.72h-5.482v2.129H273.2a1.064,1.064,0,1,0,0-2.129Z" transform="translate(-251.866 -363.488)"/><path class="a" d="M273.2,455.835h-5.482v2.129H273.2a1.064,1.064,0,1,0,0-2.129Z" transform="translate(-251.866 -427.345)"/><path class="b" d="M146.881,294.484a3.971,3.971,0,0,0-3.852,3.993v1.834h2.281v-1.859a1.674,1.674,0,0,1,1.584-1.686,1.649,1.649,0,0,1,1.711,1.646v8.846a.353.353,0,0,0,.353.353h1.575a.353.353,0,0,0,.353-.353v-8.846A3.932,3.932,0,0,0,146.881,294.484Z" transform="translate(-134.972 -276.078)"/><path class="c" d="M152.051,153.886a2.245,2.245,0,0,1-1.672-.824.763.763,0,0,0-1.178,0,2.269,2.269,0,0,1-3.5,0,.763.763,0,0,0-1.178,0,2.269,2.269,0,0,1-3.5,0,.763.763,0,0,0-1.178,0,2.245,2.245,0,0,1-1.672.824.469.469,0,0,0,.033.937,3.213,3.213,0,0,0,2.228-1.012,3.206,3.206,0,0,0,4.68,0,3.206,3.206,0,0,0,4.68,0,3.213,3.213,0,0,0,2.228,1.012.469.469,0,0,0,.033-.937Z" transform="translate(-129.993 -143.235)"/><path class="c" d="M143.754,214.587a.763.763,0,0,0-1.178,0,2.269,2.269,0,0,1-3.5,0,.763.763,0,0,0-1.178,0,2.269,2.269,0,0,1-3.5,0,.763.763,0,0,0-1.178,0,2.265,2.265,0,0,1-2.038.807.469.469,0,1,0-.118.93,3.194,3.194,0,0,0,2.745-.988,3.206,3.206,0,0,0,4.68,0,3.205,3.205,0,0,0,4.68,0,3.2,3.2,0,0,0,2.745.988.469.469,0,1,0-.118-.93A2.264,2.264,0,0,1,143.754,214.587Z" transform="translate(-123.368 -200.914)"/><path class="c" d="M158.735,91.879a2.25,2.25,0,0,1-1.28-.777.763.763,0,0,0-1.178,0,2.269,2.269,0,0,1-3.5,0,.763.763,0,0,0-1.178,0,2.269,2.269,0,0,1-3.5,0,.763.763,0,0,0-1.178,0,2.25,2.25,0,0,1-1.28.777.469.469,0,1,0,.193.917,3.171,3.171,0,0,0,1.676-.945,3.206,3.206,0,0,0,4.68,0,3.206,3.206,0,0,0,4.679,0,3.171,3.171,0,0,0,1.676.945.469.469,0,1,0,.193-.917Z" transform="translate(-137.069 -85.148)"/><path class="c" d="M16.673,26.83H27.281v4.349A.823.823,0,0,0,28.1,32h1.574a.823.823,0,0,0,.822-.822v-.091h4.637v.091a.823.823,0,0,0,.822.822h1.575a.823.823,0,0,0,.822-.822V26.83H41.8a2.556,2.556,0,0,0,2.541-2.81v-.008l-.815-6.973a.469.469,0,1,0-.931.109l.814,6.969A1.617,1.617,0,0,1,41.8,25.892H38.355V24.7h2.809a1,1,0,0,0,1-1.1v-.008L39.736,3.025a1,1,0,0,0-1-.9H30.33a.469.469,0,1,0,0,.938h8.411a.063.063,0,0,1,.063.057v.008L41.226,23.7a.063.063,0,0,1-.063.068H38.355V22.333a4.4,4.4,0,0,0-8.324-1.975,4.4,4.4,0,0,0-8.325,1.975v1.431h-4.4a.063.063,0,0,1-.063-.068L19.668,3.131V3.123a.063.063,0,0,1,.063-.057h8.411a.469.469,0,0,0,0-.937H19.732a1,1,0,0,0-1,.9L16.314,23.592V23.6a1,1,0,0,0,1,1.1h9.972v1.191H16.673a1.617,1.617,0,0,1-1.609-1.775L17.6,2.4V2.392A1.612,1.612,0,0,1,19.211.938h20.05a1.612,1.612,0,0,1,1.608,1.454V2.4l1.468,12.561a.469.469,0,1,0,.931-.109L41.8,2.294A2.546,2.546,0,0,0,39.261,0H19.211A2.546,2.546,0,0,0,16.67,2.294L14.132,24.012v.007a2.556,2.556,0,0,0,2.541,2.81ZM32.78,22.373a1.207,1.207,0,0,1,1.156-1.218,1.18,1.18,0,0,1,1.2,1.177v1.431H32.78ZM30.5,26.83h4.637v1.191H30.5ZM35.387,24.7a.6.6,0,0,1,0,1.191H30.5V24.7ZM30.5,28.958h4.888a.6.6,0,0,1,0,1.191H30.5Zm6.918,2.1H36.074v-.138a1.534,1.534,0,0,0,0-2.741V26.667a1.534,1.534,0,0,0,0-2.741V22.333a2.116,2.116,0,0,0-4.232,0v1.431H30.5V22.4a3.508,3.508,0,0,1,3.426-3.524,3.462,3.462,0,0,1,3.492,3.458Zm-14.774-7.3V22.4a3.5,3.5,0,0,1,3.6-3.521,3.463,3.463,0,0,1,3.319,3.455v8.73H28.218v-8.73a2.116,2.116,0,0,0-4.232,0v1.431H22.644Zm2.281,0v-1.39a1.216,1.216,0,0,1,.992-1.2,1.179,1.179,0,0,1,1.364,1.162v1.431Z" transform="translate(-14.119 0)"/></svg>