<svg xmlns="http://www.w3.org/2000/svg" width="33.284" height="32.256" viewBox="0 0 33.284 32.256"><defs><style>.a{fill:#374140;}.b{fill:#bedcb9;}.c{fill:#fff;}</style></defs><g transform="translate(0.295)"><path class="a" d="M65.287,36.585a.558.558,0,0,1-.558-.558V34.912a.558.558,0,0,1,1.116,0v1.116A.558.558,0,0,1,65.287,36.585Z" transform="translate(-60.274 -34.354)"/><path class="a" d="M65.287,60.585a.558.558,0,0,1-.558-.558V58.912a.558.558,0,0,1,1.116,0v1.116A.558.558,0,0,1,65.287,60.585Z" transform="translate(-60.274 -55.007)"/><path class="a" d="M50.4,51.47H49.287a.558.558,0,1,1,0-1.116H50.4a.558.558,0,1,1,0,1.116Z" transform="translate(-46.505 -48.123)"/><path class="a" d="M74.4,51.47H73.287a.558.558,0,1,1,0-1.116H74.4a.558.558,0,1,1,0,1.116Z" transform="translate(-67.158 -48.123)"/><path class="a" d="M202.681,38.259a1.952,1.952,0,1,1,1.952-1.952A1.955,1.955,0,0,1,202.681,38.259Zm0-2.789a.837.837,0,1,0,.837.837A.838.838,0,0,0,202.681,35.47Z" transform="translate(-177.307 -34.354)"/><circle class="a" cx="0.596" cy="0.596" r="0.596" transform="translate(31.797 6.989)"/><circle class="a" cx="0.596" cy="0.596" r="0.596" transform="translate(0 11.452)"/></g><g transform="translate(9.007 21.238)"><path class="b" d="M103.754,190.643l3.319,2.647a1.778,1.778,0,0,1,.435,2.272l-2.847,4.983a4.86,4.86,0,0,1,.072-2.019l.865-3.461-6.342-2.627Z" transform="translate(-98.698 -190.085)"/><path class="a" d="M101.218,197.657a.577.577,0,0,1-.1-.008.559.559,0,0,1-.454-.453,5.39,5.39,0,0,1,.081-2.251l.748-2.994-5.9-2.443a.558.558,0,0,1,.007-1.033l4.5-1.8a.556.556,0,0,1,.555.082l3.319,2.647a2.324,2.324,0,0,1,.572,2.985l-2.847,4.983A.557.557,0,0,1,101.218,197.657ZM97.294,189l5.075,2.1a.558.558,0,0,1,.327.651l-.726,2.9,1.611-2.819a1.214,1.214,0,0,0-.3-1.559l-3.065-2.445Z" transform="translate(-95.255 -186.638)"/></g><g transform="translate(25.006 13.683)"><circle class="c" cx="2.702" cy="2.702" r="2.702" transform="translate(0.558 0.558)"/><path class="a" d="M213.235,138.989a3.26,3.26,0,1,1,3.26-3.26A3.264,3.264,0,0,1,213.235,138.989Zm0-5.4a2.144,2.144,0,1,0,2.144,2.144A2.147,2.147,0,0,0,213.235,133.585Z" transform="translate(-209.975 -132.469)"/></g><g transform="translate(15.349 3.905)"><path class="a" d="M145.75,69.606h-1.942a3.082,3.082,0,0,1-3.078-3.078V65.143a2.789,2.789,0,1,1,5.578,0v3.9A.558.558,0,0,1,145.75,69.606Zm-2.231-6.136a1.675,1.675,0,0,0-1.674,1.674v1.384a1.965,1.965,0,0,0,1.963,1.963h1.384V65.143A1.675,1.675,0,0,0,143.518,63.47Z" transform="translate(-140.729 -62.354)"/></g><g transform="translate(0 17.34)"><path class="b" d="M41.873,166.5v5.48l-3.494-1.165a4.862,4.862,0,0,0-3.712.264l7.373,3.687a1.517,1.517,0,0,0,2.136-.94l1.3-4.548,3.71-3.71-5.77-2.885A5.5,5.5,0,0,0,41.873,166.5Z" transform="translate(-34.109 -162.129)"/><path class="a" d="M39.276,172.049a2.071,2.071,0,0,1-.927-.22l-7.373-3.687a.558.558,0,0,1,0-1,5.461,5.461,0,0,1,4.138-.294l2.76.92v-4.706a6.031,6.031,0,0,1,1.7-4.2.559.559,0,0,1,.651-.112l5.77,2.885a.558.558,0,0,1,.145.893l-3.607,3.607-1.26,4.41a2.076,2.076,0,0,1-2,1.5Zm-6.591-4.3,6.163,3.082a.958.958,0,0,0,1.35-.594l1.3-4.548a.561.561,0,0,1,.142-.241l3.162-3.162-4.7-2.348a4.916,4.916,0,0,0-1.117,3.128v5.479a.558.558,0,0,1-.734.529L34.76,167.91A4.323,4.323,0,0,0,32.685,167.75Z" transform="translate(-30.667 -158.69)"/></g><g transform="translate(20.268 14.277)"><path class="a" d="M183.353,145a1.321,1.321,0,0,1-.764-.243l-6.353-4.5a.557.557,0,0,1-.228-.547l.418-2.509a.557.557,0,0,1,.91-.334l6.867,5.811a1.319,1.319,0,0,1-.851,2.326Zm-6.186-5.455,6.068,4.3a.2.2,0,0,0,.221.009.2.2,0,0,0,.029-.331h0l-6.118-5.177Z" transform="translate(-176.001 -136.727)"/></g><g transform="translate(8.748 11.75)"><path class="a" d="M99.726,128.2a.56.56,0,0,1-.249-.059l-5.77-2.885a.558.558,0,0,1-.153-.885,5.915,5.915,0,0,1,.551-.51l5.526-4.473a3.5,3.5,0,0,1,4.457.049l2.166,1.833a.557.557,0,0,1,.19.517l-.418,2.509a.558.558,0,0,1-.873.364l-.246-.175a1.045,1.045,0,0,0-1.348.114l-3.439,3.438a.558.558,0,0,1-.394.163Zm-4.79-3.577,4.68,2.34,3.154-3.154a2.158,2.158,0,0,1,2.289-.5l.232-1.4-1.924-1.628a2.382,2.382,0,0,0-3.035-.033Z" transform="translate(-93.398 -118.609)"/></g></svg>