<svg id="svg" version="1.1" xmlns="http://www.w3.org/2000/svg" xmlns:xlink="http://www.w3.org/1999/xlink" width="400" height="286" viewBox="0, 0, 400,286"><g id="svgg"><path id="path0" d="M221.960 5.347 C 221.685 5.419,221.459 5.682,221.459 5.931 C 221.459 6.322,221.537 6.313,222.031 5.866 C 222.518 5.425,222.780 5.068,222.532 5.183 C 222.493 5.202,222.235 5.275,221.960 5.347 M228.040 8.298 C 228.040 8.455,228.305 8.584,228.629 8.584 C 228.953 8.584,229.139 8.455,229.041 8.298 C 228.944 8.140,228.679 8.011,228.452 8.011 C 228.226 8.011,228.040 8.140,228.040 8.298 M193.348 11.843 C 192.734 12.309,192.714 12.494,193.276 12.494 C 193.512 12.494,193.642 12.431,193.565 12.353 C 193.487 12.276,193.568 12.040,193.743 11.829 C 194.143 11.347,193.995 11.352,193.348 11.843 M262.375 49.180 C 262.375 49.319,262.640 49.502,262.963 49.586 C 263.446 49.713,263.491 49.667,263.215 49.334 C 262.837 48.879,262.375 48.794,262.375 49.180 M182.833 75.966 C 182.634 76.205,182.603 76.395,182.763 76.395 C 182.920 76.395,183.209 76.202,183.405 75.966 C 183.604 75.726,183.635 75.536,183.475 75.536 C 183.318 75.536,183.029 75.730,182.833 75.966 M228.655 76.667 C 228.778 77.036,229.171 77.102,229.206 76.760 C 229.218 76.646,229.073 76.501,228.884 76.438 C 228.695 76.375,228.592 76.478,228.655 76.667 M138.340 80.114 C 138.056 80.429,137.967 80.687,138.143 80.687 C 138.319 80.687,138.601 80.429,138.770 80.114 C 138.938 79.800,139.027 79.542,138.967 79.542 C 138.907 79.542,138.625 79.800,138.340 80.114 M252.361 94.885 C 252.361 95.265,252.438 95.285,252.790 94.993 C 253.026 94.797,253.219 94.588,253.219 94.529 C 253.219 94.469,253.026 94.421,252.790 94.421 C 252.554 94.421,252.361 94.629,252.361 94.885 M133.047 97.854 C 133.047 98.011,133.233 98.140,133.460 98.140 C 133.686 98.140,133.951 98.011,134.049 97.854 C 134.146 97.697,133.960 97.568,133.636 97.568 C 133.312 97.568,133.047 97.697,133.047 97.854 M236.910 106.689 C 236.910 107.061,237.753 107.693,237.966 107.480 C 238.067 107.379,238.000 107.296,237.816 107.296 C 237.632 107.296,237.482 107.103,237.482 106.867 C 237.482 106.631,237.353 106.438,237.196 106.438 C 237.039 106.438,236.910 106.551,236.910 106.689 M165.856 106.915 C 165.493 107.277,165.666 107.652,166.049 107.334 C 166.260 107.158,166.539 107.110,166.667 107.227 C 166.796 107.344,166.809 107.278,166.696 107.082 C 166.468 106.686,166.148 106.623,165.856 106.915 M238.054 110.300 C 237.763 110.652,237.782 110.730,238.162 110.730 C 238.418 110.730,238.627 110.536,238.627 110.300 C 238.627 110.064,238.578 109.871,238.519 109.871 C 238.459 109.871,238.250 110.064,238.054 110.300 M199.903 118.690 C 199.217 119.449,199.318 119.710,200.024 119.003 C 200.352 118.675,200.565 118.353,200.499 118.286 C 200.432 118.220,200.164 118.402,199.903 118.690 M203.147 128.040 C 203.343 128.276,203.649 128.459,203.826 128.447 C 204.027 128.433,204.013 128.369,203.789 128.279 C 203.592 128.199,203.503 128.016,203.592 127.873 C 203.681 127.729,203.537 127.611,203.272 127.611 C 202.877 127.611,202.855 127.688,203.147 128.040 M128.014 133.970 C 128.054 134.171,128.317 134.379,128.598 134.434 C 128.916 134.495,129.035 134.413,128.913 134.215 C 128.804 134.039,128.607 133.964,128.474 134.046 C 128.341 134.128,128.166 134.062,128.086 133.900 C 128.006 133.738,127.973 133.769,128.014 133.970 M237.482 136.687 C 237.482 137.047,238.300 137.761,238.492 137.569 C 238.568 137.493,238.372 137.197,238.056 136.911 C 237.740 136.626,237.482 136.525,237.482 136.687 M252.361 151.328 C 252.361 151.469,252.564 151.662,252.813 151.758 C 253.513 152.026,253.606 151.968,253.219 151.502 C 252.824 151.027,252.361 150.933,252.361 151.328 M166.577 167.114 C 166.646 167.320,166.871 167.546,167.078 167.614 C 167.293 167.686,167.400 167.579,167.328 167.364 C 167.259 167.158,167.034 166.932,166.828 166.863 C 166.613 166.792,166.506 166.899,166.577 167.114 M196.876 177.639 C 196.523 178.298,196.458 179.030,196.781 178.708 C 196.899 178.590,196.998 178.407,197.000 178.302 C 197.002 178.197,197.112 177.942,197.243 177.735 C 197.375 177.528,197.415 177.291,197.334 177.210 C 197.252 177.128,197.046 177.321,196.876 177.639 M187.535 181.330 C 187.598 181.762,187.983 181.946,187.983 181.545 C 187.983 181.466,187.983 181.273,187.983 181.116 C 187.983 180.959,187.865 180.830,187.722 180.830 C 187.579 180.830,187.494 181.055,187.535 181.330 M188.003 182.475 C 188.082 183.314,188.516 183.781,188.535 183.047 C 188.546 182.614,188.426 182.260,188.269 182.260 C 188.112 182.260,187.992 182.357,188.003 182.475 M135.622 213.820 C 135.622 218.178,135.720 220.012,135.966 220.258 C 136.210 220.501,137.946 220.601,141.958 220.601 C 149.124 220.601,148.498 221.278,148.498 213.527 L 148.498 207.725 142.060 207.725 L 135.622 207.725 135.622 213.820 M13.734 209.156 C 13.520 209.556,13.135 209.728,12.457 209.728 C 11.923 209.728,11.293 209.921,11.057 210.157 C 10.821 210.393,10.413 210.587,10.151 210.587 C 9.889 210.587,9.607 210.844,9.525 211.159 C 9.429 211.525,9.135 211.731,8.708 211.731 C 8.006 211.731,6.581 212.855,6.581 213.409 C 6.581 213.588,6.420 213.736,6.223 213.739 C 5.619 213.747,4.578 215.061,4.578 215.815 C 4.578 216.288,4.385 216.579,4.006 216.678 C 3.595 216.786,3.433 217.068,3.433 217.682 C 3.433 218.178,3.253 218.606,3.004 218.701 C 2.366 218.946,2.366 229.793,3.004 230.431 C 3.240 230.667,3.433 231.204,3.433 231.623 C 3.433 232.145,3.614 232.433,4.006 232.535 C 4.413 232.642,4.578 232.925,4.578 233.519 C 4.578 233.996,4.761 234.423,5.007 234.517 C 5.243 234.608,5.436 234.861,5.436 235.081 C 5.436 235.300,5.694 235.479,6.009 235.479 C 6.390 235.479,6.581 235.670,6.581 236.052 C 6.581 236.369,6.772 236.624,7.010 236.624 C 7.246 236.624,7.439 236.817,7.439 237.053 C 7.439 237.289,7.682 237.482,7.978 237.482 C 8.276 237.482,8.584 237.738,8.667 238.054 C 8.752 238.382,9.057 238.627,9.380 238.627 C 9.690 238.627,10.105 238.820,10.300 239.056 C 10.496 239.292,10.829 239.485,11.041 239.485 C 11.252 239.485,11.563 239.742,11.731 240.057 C 11.932 240.432,12.330 240.629,12.886 240.629 C 13.449 240.629,13.734 240.774,13.734 241.059 C 13.734 241.383,14.084 241.488,15.165 241.488 C 16.404 241.488,16.595 241.564,16.595 242.060 C 16.595 242.556,16.786 242.632,18.026 242.632 C 19.107 242.632,19.456 242.737,19.456 243.062 C 19.456 243.358,19.755 243.491,20.424 243.491 C 21.152 243.491,21.430 243.633,21.542 244.063 C 21.651 244.480,21.932 244.635,22.577 244.635 C 23.173 244.635,23.462 244.775,23.462 245.064 C 23.462 245.303,23.716 245.494,24.034 245.494 C 24.416 245.494,24.607 245.684,24.607 246.066 C 24.607 246.384,24.797 246.638,25.036 246.638 C 25.272 246.638,25.465 246.800,25.465 246.998 C 25.465 247.197,25.722 247.520,26.037 247.716 C 26.540 248.030,26.609 248.383,26.609 250.644 C 26.609 252.904,26.540 253.257,26.037 253.571 C 25.722 253.768,25.465 254.091,25.465 254.289 C 25.465 254.487,25.272 254.649,25.036 254.649 C 24.797 254.649,24.607 254.904,24.607 255.222 C 24.607 255.662,24.416 255.794,23.779 255.794 C 23.307 255.794,22.880 255.979,22.786 256.223 C 22.660 256.551,22.122 256.652,20.497 256.652 C 18.873 256.652,18.334 256.551,18.208 256.223 C 18.118 255.987,17.733 255.794,17.353 255.794 C 16.903 255.794,16.610 255.595,16.512 255.222 C 16.430 254.907,16.157 254.649,15.907 254.649 C 15.656 254.649,15.451 254.456,15.451 254.220 C 15.451 253.984,15.258 253.791,15.021 253.791 C 14.745 253.791,14.591 253.511,14.588 253.004 C 14.582 251.779,14.277 250.930,13.844 250.930 C 13.573 250.930,13.448 250.569,13.448 249.785 L 13.448 248.641 7.010 248.641 L 0.572 248.641 0.572 251.038 C 0.572 252.820,0.682 253.526,1.001 253.791 C 1.248 253.996,1.431 254.620,1.431 255.257 C 1.431 255.985,1.627 256.563,2.003 256.938 C 2.318 257.253,2.575 257.825,2.575 258.209 C 2.575 258.593,2.712 258.992,2.879 259.095 C 3.046 259.199,3.300 259.592,3.444 259.971 C 3.588 260.349,3.902 260.658,4.142 260.658 C 4.382 260.658,4.578 260.851,4.578 261.087 C 4.578 261.323,4.771 261.516,5.007 261.516 C 5.246 261.516,5.436 261.771,5.436 262.089 C 5.436 262.470,5.627 262.661,6.009 262.661 C 6.326 262.661,6.581 262.852,6.581 263.090 C 6.581 263.326,6.774 263.519,7.010 263.519 C 7.246 263.519,7.439 263.716,7.439 263.957 C 7.439 264.198,7.665 264.478,7.940 264.580 C 8.215 264.681,8.544 264.934,8.669 265.143 C 8.795 265.352,9.278 265.522,9.742 265.522 C 10.273 265.522,10.587 265.670,10.587 265.921 C 10.587 266.435,11.215 266.667,12.613 266.667 C 13.419 266.667,13.734 266.787,13.734 267.096 C 13.734 267.465,14.673 267.525,20.467 267.525 C 26.188 267.525,27.224 267.461,27.364 267.096 C 27.455 266.860,27.869 266.665,28.285 266.663 C 29.482 266.657,30.329 266.348,30.329 265.918 C 30.329 265.700,30.577 265.522,30.881 265.522 C 31.184 265.522,31.626 265.329,31.862 265.093 C 32.098 264.857,32.505 264.664,32.767 264.664 C 33.029 264.664,33.311 264.406,33.393 264.092 C 33.476 263.777,33.725 263.519,33.948 263.519 C 34.171 263.519,34.427 263.326,34.517 263.090 C 34.608 262.854,34.861 262.661,35.081 262.661 C 35.300 262.661,35.479 262.418,35.479 262.122 C 35.479 261.824,35.735 261.516,36.052 261.434 C 36.394 261.344,36.624 261.043,36.624 260.685 C 36.624 260.355,36.744 260.086,36.891 260.086 C 37.037 260.086,37.243 259.816,37.348 259.485 C 37.453 259.155,37.783 258.640,38.083 258.341 C 38.436 257.988,38.627 257.396,38.627 256.652 C 38.627 255.826,38.746 255.508,39.056 255.508 C 39.423 255.508,39.485 254.680,39.485 249.776 C 39.485 244.946,39.418 244.019,39.056 243.880 C 38.791 243.779,38.627 243.344,38.627 242.745 C 38.627 241.965,38.514 241.774,38.054 241.774 C 37.591 241.774,37.482 241.583,37.482 240.773 C 37.482 240.073,37.353 239.771,37.053 239.771 C 36.817 239.771,36.624 239.566,36.624 239.315 C 36.624 239.064,36.366 238.792,36.052 238.710 C 35.737 238.627,35.475 238.414,35.470 238.236 C 35.454 237.705,34.422 236.624,33.931 236.624 C 33.681 236.624,33.476 236.431,33.476 236.195 C 33.476 235.959,33.283 235.765,33.047 235.765 C 32.811 235.765,32.618 235.569,32.618 235.329 C 32.618 235.089,32.296 234.770,31.903 234.621 C 31.509 234.471,31.187 234.217,31.187 234.056 C 31.187 233.894,30.816 233.763,30.362 233.763 C 29.778 233.763,29.494 233.596,29.388 233.190 C 29.278 232.772,28.997 232.618,28.344 232.618 C 27.813 232.618,27.383 232.444,27.285 232.189 C 27.174 231.899,26.719 231.760,25.883 231.760 C 24.896 231.760,24.608 231.643,24.464 231.187 C 24.314 230.717,24.031 230.615,22.871 230.615 C 21.807 230.615,21.459 230.509,21.459 230.186 C 21.459 229.889,21.161 229.757,20.491 229.757 C 19.764 229.757,19.486 229.615,19.373 229.185 C 19.264 228.768,18.983 228.612,18.339 228.612 C 17.743 228.612,17.454 228.472,17.454 228.183 C 17.454 227.947,17.260 227.754,17.024 227.754 C 16.788 227.754,16.595 227.549,16.595 227.298 C 16.595 227.047,16.338 226.775,16.023 226.692 C 15.505 226.557,15.451 226.302,15.451 224.001 C 15.451 221.650,15.494 221.459,16.023 221.459 C 16.341 221.459,16.595 221.268,16.595 221.030 C 16.595 220.794,16.788 220.601,17.024 220.601 C 17.260 220.601,17.711 220.343,18.026 220.029 C 18.487 219.567,18.979 219.456,20.567 219.456 C 22.296 219.456,22.555 219.526,22.687 220.029 C 22.796 220.445,23.077 220.601,23.721 220.601 C 24.468 220.601,24.607 220.710,24.607 221.296 C 24.607 221.678,24.800 222.184,25.036 222.420 C 25.272 222.656,25.465 223.156,25.465 223.531 C 25.465 225.309,26.043 225.465,32.629 225.465 L 38.627 225.465 38.627 223.056 C 38.627 220.403,38.478 219.742,37.881 219.742 C 37.620 219.742,37.482 219.414,37.482 218.796 C 37.482 218.275,37.293 217.599,37.062 217.294 C 36.831 216.988,36.638 216.513,36.633 216.237 C 36.627 215.931,36.402 215.737,36.052 215.737 C 35.678 215.737,35.479 215.546,35.479 215.188 C 35.479 214.356,35.174 213.734,34.767 213.734 C 34.566 213.734,34.334 213.476,34.252 213.162 C 34.170 212.847,33.911 212.589,33.677 212.589 C 33.443 212.589,33.177 212.396,33.087 212.160 C 32.996 211.924,32.596 211.731,32.198 211.731 C 31.664 211.731,31.474 211.580,31.474 211.159 C 31.474 210.747,31.283 210.587,30.793 210.587 C 30.419 210.587,29.953 210.393,29.757 210.157 C 29.561 209.921,28.981 209.728,28.468 209.728 C 27.775 209.728,27.496 209.581,27.385 209.156 C 27.241 208.605,26.995 208.584,20.638 208.584 C 14.333 208.584,14.027 208.609,13.734 209.156 M265.007 210.072 C 264.338 210.740,264.530 265.522,265.201 265.522 C 265.496 265.522,265.899 265.715,266.094 265.951 C 266.387 266.303,267.364 266.381,271.531 266.381 C 275.697 266.381,276.675 266.303,276.967 265.951 C 277.163 265.715,277.565 265.522,277.860 265.522 C 278.376 265.522,278.398 265.104,278.398 255.079 L 278.398 244.635 279.542 244.635 C 280.659 244.635,280.687 244.659,280.687 245.637 C 280.687 246.336,280.816 246.638,281.116 246.638 C 281.352 246.638,281.545 246.831,281.545 247.067 C 281.545 247.306,281.799 247.496,282.117 247.496 C 282.581 247.496,282.690 247.687,282.690 248.498 C 282.690 249.197,282.819 249.499,283.119 249.499 C 283.357 249.499,283.548 249.754,283.548 250.072 C 283.548 250.453,283.739 250.644,284.120 250.644 C 284.561 250.644,284.692 250.835,284.692 251.472 C 284.692 251.943,284.877 252.370,285.122 252.464 C 285.358 252.555,285.551 252.826,285.551 253.067 C 285.551 253.314,285.800 253.505,286.123 253.505 C 286.563 253.505,286.695 253.696,286.695 254.333 C 286.695 254.805,286.880 255.231,287.124 255.325 C 287.361 255.416,287.554 255.751,287.554 256.071 C 287.554 256.462,287.741 256.652,288.126 256.652 C 288.441 256.652,288.698 256.830,288.698 257.047 C 288.698 257.263,288.891 257.601,289.127 257.797 C 289.363 257.993,289.557 258.459,289.557 258.833 C 289.557 259.323,289.717 259.514,290.129 259.514 C 290.510 259.514,290.701 259.704,290.701 260.086 C 290.701 260.404,290.892 260.658,291.130 260.658 C 291.419 260.658,291.559 260.947,291.559 261.543 C 291.559 262.188,291.715 262.469,292.132 262.578 C 292.446 262.660,292.704 262.906,292.704 263.123 C 292.704 263.341,292.889 263.519,293.115 263.519 C 293.370 263.519,293.560 263.873,293.616 264.449 C 293.694 265.262,293.820 265.390,294.614 265.467 C 295.114 265.516,295.677 265.741,295.865 265.968 C 296.445 266.667,308.470 266.567,309.112 265.857 C 309.754 265.148,309.708 263.928,309.013 263.233 C 308.698 262.918,308.441 262.468,308.441 262.232 C 308.441 261.996,308.247 261.803,308.011 261.803 C 307.773 261.803,307.582 261.548,307.582 261.230 C 307.582 260.849,307.392 260.658,307.010 260.658 C 306.588 260.658,306.438 260.467,306.438 259.934 C 306.438 259.535,306.245 259.135,306.009 259.045 C 305.773 258.954,305.579 258.636,305.579 258.338 C 305.579 257.988,305.378 257.797,305.007 257.797 C 304.626 257.797,304.435 257.606,304.435 257.225 C 304.435 256.907,304.244 256.652,304.006 256.652 C 303.739 256.652,303.577 256.382,303.577 255.939 C 303.577 255.536,303.328 255.071,303.004 254.869 C 302.690 254.673,302.432 254.350,302.432 254.151 C 302.432 253.953,302.239 253.791,302.003 253.791 C 301.764 253.791,301.574 253.537,301.574 253.219 C 301.574 252.837,301.383 252.647,301.001 252.647 C 300.555 252.647,300.429 252.456,300.429 251.779 C 300.429 251.272,300.251 250.844,300.000 250.747 C 299.764 250.657,299.571 250.403,299.571 250.184 C 299.571 249.965,299.313 249.785,298.999 249.785 C 298.583 249.785,298.426 249.595,298.426 249.087 C 298.426 248.703,298.290 248.304,298.123 248.201 C 297.955 248.098,297.701 247.704,297.557 247.326 C 297.414 246.947,297.100 246.638,296.860 246.638 C 296.620 246.638,296.423 246.445,296.423 246.209 C 296.423 245.973,296.230 245.780,295.994 245.780 C 295.758 245.780,295.565 245.533,295.565 245.231 C 295.565 244.378,295.257 243.777,294.819 243.777 C 294.600 243.777,294.421 243.519,294.421 243.205 C 294.421 242.823,294.611 242.632,294.993 242.632 C 295.374 242.632,295.565 242.442,295.565 242.060 C 295.565 241.597,295.756 241.488,296.567 241.488 C 297.266 241.488,297.568 241.358,297.568 241.059 C 297.568 240.823,297.761 240.629,297.997 240.629 C 298.236 240.629,298.426 240.375,298.426 240.057 C 298.426 239.739,298.617 239.485,298.856 239.485 C 299.410 239.485,300.429 238.466,300.429 237.911 C 300.429 237.673,300.684 237.482,301.001 237.482 C 301.316 237.482,301.574 237.303,301.574 237.084 C 301.574 236.864,301.767 236.611,302.003 236.520 C 302.249 236.426,302.432 235.999,302.432 235.522 C 302.432 234.928,302.597 234.644,303.004 234.538 C 303.502 234.408,303.577 234.148,303.577 232.532 C 303.577 231.147,303.685 230.635,304.006 230.512 C 304.348 230.380,304.435 229.764,304.435 227.477 C 304.435 225.116,304.359 224.607,304.006 224.607 C 303.668 224.607,303.577 224.206,303.577 222.720 C 303.577 221.074,303.504 220.814,303.004 220.684 C 302.574 220.571,302.432 220.293,302.432 219.566 C 302.432 218.896,302.300 218.598,302.003 218.598 C 301.714 218.598,301.574 218.309,301.574 217.713 C 301.574 217.068,301.418 216.787,301.001 216.678 C 300.687 216.596,300.429 216.350,300.429 216.133 C 300.429 215.915,300.236 215.737,300.000 215.737 C 299.762 215.737,299.571 215.482,299.571 215.165 C 299.571 214.783,299.380 214.592,298.999 214.592 C 298.681 214.592,298.426 214.402,298.426 214.163 C 298.426 213.925,298.172 213.734,297.854 213.734 C 297.539 213.734,297.282 213.599,297.282 213.433 C 297.282 213.268,296.831 212.944,296.280 212.714 C 295.730 212.484,295.279 212.169,295.279 212.013 C 295.279 211.858,294.650 211.731,293.882 211.731 C 292.725 211.731,292.459 211.632,292.335 211.159 C 292.198 210.635,291.945 210.587,289.332 210.587 C 287.145 210.587,286.396 210.486,286.123 210.157 C 285.650 209.587,265.573 209.505,265.007 210.072 M200.768 213.919 C 200.661 214.027,200.572 216.798,200.572 220.076 L 200.572 226.037 198.927 226.058 C 197.908 226.071,196.955 226.270,196.423 226.582 L 195.565 227.084 195.486 231.465 L 195.407 235.845 196.201 236.656 C 196.903 237.372,197.204 237.467,198.784 237.474 L 200.572 237.482 200.572 247.362 C 200.572 255.881,200.631 257.265,201.001 257.407 C 201.279 257.514,201.431 257.957,201.431 258.662 C 201.431 260.031,201.665 260.658,202.177 260.658 C 202.419 260.658,202.577 260.965,202.580 261.445 C 202.585 262.206,203.628 263.519,204.227 263.519 C 204.383 263.519,204.579 263.777,204.661 264.092 C 204.770 264.508,205.051 264.664,205.696 264.664 C 206.292 264.664,206.581 264.804,206.581 265.093 C 206.581 265.393,206.883 265.522,207.582 265.522 C 208.247 265.522,208.584 265.656,208.584 265.921 C 208.584 266.935,219.968 267.104,220.232 266.094 C 220.349 265.646,220.622 265.522,221.493 265.522 L 222.604 265.522 222.604 260.639 C 222.604 257.821,222.479 255.522,222.308 255.203 C 221.916 254.472,220.877 254.484,220.684 255.222 C 220.486 255.980,215.451 256.117,215.451 255.365 C 215.451 255.129,215.341 254.936,215.206 254.936 C 215.072 254.936,214.621 254.620,214.205 254.234 L 213.448 253.532 213.448 245.507 L 213.448 237.482 217.404 237.482 C 222.650 237.482,222.604 237.524,222.604 232.779 C 222.604 229.808,222.656 229.444,223.033 229.757 C 223.283 229.964,223.462 230.588,223.462 231.249 C 223.462 232.145,223.583 232.417,224.034 232.535 C 224.508 232.659,224.607 232.925,224.607 234.082 C 224.607 235.133,224.713 235.479,225.036 235.479 C 225.312 235.479,225.466 235.759,225.469 236.266 C 225.475 237.491,225.780 238.340,226.214 238.340 C 226.485 238.340,226.609 238.701,226.609 239.485 C 226.609 240.312,226.729 240.629,227.039 240.629 C 227.358 240.629,227.468 240.966,227.468 241.944 C 227.468 243.018,227.573 243.286,228.040 243.408 C 228.514 243.532,228.612 243.798,228.612 244.964 C 228.612 245.950,228.741 246.419,229.041 246.535 C 229.279 246.626,229.471 247.051,229.471 247.488 C 229.471 247.922,229.728 248.605,230.043 249.005 C 230.358 249.405,230.615 250.131,230.615 250.617 C 230.615 251.213,230.755 251.502,231.044 251.502 C 231.353 251.502,231.474 251.817,231.474 252.623 C 231.474 254.021,231.705 254.649,232.219 254.649 C 232.501 254.649,232.618 255.029,232.618 255.946 C 232.618 256.835,232.753 257.294,233.047 257.407 C 233.303 257.505,233.476 257.936,233.476 258.474 C 233.476 259.066,233.673 259.499,234.049 259.733 C 234.483 260.005,234.621 260.401,234.621 261.376 C 234.621 262.327,234.732 262.661,235.050 262.661 C 235.391 262.661,235.479 263.074,235.479 264.664 C 235.479 266.253,235.391 266.667,235.050 266.667 C 234.721 266.667,234.621 267.032,234.621 268.240 C 234.621 269.623,234.552 269.814,234.049 269.814 C 233.589 269.814,233.476 270.005,233.476 270.780 C 233.476 271.312,233.283 271.907,233.047 272.103 C 232.801 272.308,232.618 272.932,232.618 273.569 C 232.618 274.353,232.495 274.678,232.199 274.678 C 231.911 274.678,231.719 275.134,231.586 276.133 C 231.479 276.944,231.221 277.654,231.004 277.737 C 230.751 277.834,230.615 278.365,230.615 279.253 C 230.615 280.379,230.514 280.646,230.043 280.770 C 229.544 280.900,229.471 281.160,229.471 282.806 L 229.471 284.692 235.479 284.692 L 241.488 284.692 241.488 283.691 C 241.488 283.071,241.706 282.472,242.060 282.117 C 242.407 281.770,242.632 281.164,242.632 280.574 C 242.632 279.975,242.797 279.540,243.062 279.439 C 243.356 279.326,243.491 278.866,243.491 277.978 C 243.491 277.060,243.607 276.681,243.889 276.681 C 244.404 276.681,244.635 276.053,244.635 274.655 C 244.635 273.849,244.756 273.534,245.064 273.534 C 245.351 273.534,245.494 273.247,245.494 272.675 C 245.494 272.198,245.748 271.563,246.066 271.245 C 246.413 270.897,246.638 270.291,246.638 269.702 C 246.638 269.103,246.802 268.668,247.067 268.566 C 247.368 268.451,247.496 267.981,247.496 266.995 C 247.496 265.830,247.594 265.563,248.069 265.439 C 248.502 265.326,248.641 265.049,248.641 264.296 C 248.641 263.750,248.834 263.143,249.070 262.947 C 249.306 262.751,249.499 262.170,249.499 261.655 C 249.499 261.087,249.668 260.655,249.928 260.555 C 250.231 260.438,250.358 259.966,250.358 258.950 C 250.358 257.701,250.433 257.511,250.930 257.511 C 251.426 257.511,251.502 257.320,251.502 256.080 C 251.502 254.999,251.607 254.649,251.931 254.649 C 252.241 254.649,252.361 254.332,252.361 253.505 C 252.361 252.717,252.485 252.361,252.759 252.361 C 253.258 252.361,253.505 251.738,253.505 250.477 C 253.505 249.799,253.636 249.499,253.934 249.499 C 254.258 249.499,254.363 249.150,254.363 248.069 C 254.363 246.829,254.440 246.638,254.936 246.638 C 255.421 246.638,255.508 246.447,255.508 245.386 C 255.508 244.621,255.675 243.994,255.937 243.777 C 256.173 243.581,256.366 243.001,256.366 242.488 C 256.366 241.795,256.514 241.516,256.938 241.405 C 257.406 241.283,257.511 241.015,257.511 239.941 C 257.511 238.963,257.621 238.627,257.940 238.627 C 258.269 238.627,258.369 238.261,258.369 237.053 C 258.369 235.670,258.438 235.479,258.941 235.479 C 259.401 235.479,259.514 235.289,259.514 234.513 C 259.514 233.981,259.707 233.386,259.943 233.190 C 260.185 232.989,260.372 232.365,260.372 231.758 C 260.372 230.923,260.500 230.648,260.944 230.532 C 261.617 230.356,261.802 227.009,261.173 226.381 C 260.738 225.945,251.054 225.892,250.787 226.323 C 250.690 226.481,250.360 226.609,250.055 226.609 C 249.690 226.609,249.499 226.806,249.499 227.182 C 249.499 227.500,249.309 227.754,249.070 227.754 C 248.747 227.754,248.641 228.100,248.641 229.151 C 248.641 230.308,248.542 230.574,248.069 230.698 C 247.635 230.811,247.496 231.088,247.496 231.841 C 247.496 232.387,247.303 232.994,247.067 233.190 C 246.821 233.395,246.638 234.019,246.638 234.656 C 246.638 235.413,246.512 235.765,246.239 235.765 C 245.744 235.765,245.494 236.387,245.494 237.618 C 245.494 238.196,245.326 238.630,245.064 238.730 C 244.762 238.846,244.635 239.319,244.635 240.334 C 244.635 241.583,244.559 241.774,244.063 241.774 C 243.561 241.774,243.491 241.965,243.491 243.317 C 243.491 244.425,243.370 244.907,243.062 245.025 C 242.767 245.138,242.632 245.597,242.632 246.486 L 242.632 247.783 242.060 247.210 C 241.640 246.791,241.488 246.257,241.488 245.207 C 241.488 244.127,241.383 243.777,241.059 243.777 C 240.741 243.777,240.629 243.443,240.629 242.492 C 240.629 241.516,240.491 241.120,240.057 240.849 C 239.615 240.573,239.485 240.182,239.485 239.130 C 239.485 238.110,239.377 237.768,239.056 237.768 C 238.747 237.768,238.627 237.453,238.627 236.647 C 238.627 235.249,238.395 234.621,237.881 234.621 C 237.593 234.621,237.482 234.222,237.482 233.190 C 237.482 232.109,237.377 231.760,237.053 231.760 C 236.744 231.760,236.624 231.444,236.624 230.639 C 236.624 229.241,236.392 228.612,235.878 228.612 C 235.613 228.612,235.479 228.276,235.479 227.611 C 235.479 226.733,235.391 226.609,234.764 226.609 C 234.371 226.609,234.049 226.481,234.049 226.323 C 234.049 225.859,223.724 225.965,223.104 226.436 C 222.588 226.827,221.285 226.736,221.009 226.289 C 220.923 226.151,219.190 226.037,217.156 226.037 L 213.459 226.037 213.382 219.957 L 213.305 213.877 207.135 213.800 C 203.741 213.758,200.876 213.811,200.768 213.919 M283.365 221.030 C 283.490 221.355,284.017 221.459,285.542 221.459 C 287.363 221.459,287.554 221.513,287.554 222.031 C 287.554 222.413,287.744 222.604,288.126 222.604 C 288.444 222.604,288.698 222.794,288.698 223.033 C 288.698 223.269,288.891 223.462,289.127 223.462 C 289.416 223.462,289.557 223.751,289.557 224.347 C 289.557 224.992,289.712 225.273,290.129 225.382 C 290.647 225.518,290.701 225.772,290.701 228.073 C 290.701 230.424,290.658 230.615,290.129 230.615 C 289.747 230.615,289.557 230.806,289.557 231.187 C 289.557 231.505,289.366 231.760,289.127 231.760 C 288.891 231.760,288.698 231.953,288.698 232.189 C 288.698 232.425,288.493 232.618,288.242 232.618 C 287.991 232.618,287.719 232.876,287.637 233.190 C 287.530 233.597,287.246 233.763,286.653 233.763 C 286.176 233.763,285.749 233.946,285.654 234.192 C 285.520 234.541,284.832 234.621,281.944 234.621 L 278.398 234.621 278.398 227.611 L 278.398 220.601 280.799 220.601 C 282.670 220.601,283.237 220.696,283.365 221.030 M61.599 225.179 C 61.468 225.681,61.209 225.751,59.480 225.751 C 57.920 225.751,57.511 225.840,57.511 226.180 C 57.511 226.499,57.174 226.609,56.196 226.609 C 55.123 226.609,54.855 226.714,54.732 227.182 C 54.650 227.496,54.354 227.754,54.074 227.754 C 53.795 227.754,53.492 227.947,53.402 228.183 C 53.311 228.419,52.899 228.612,52.486 228.612 C 51.975 228.612,51.687 228.796,51.585 229.185 C 51.503 229.499,51.257 229.757,51.040 229.757 C 50.822 229.757,50.644 229.950,50.644 230.186 C 50.644 230.424,50.389 230.615,50.072 230.615 C 49.690 230.615,49.499 230.806,49.499 231.187 C 49.499 231.505,49.309 231.760,49.070 231.760 C 48.834 231.760,48.641 231.944,48.641 232.170 C 48.641 232.395,48.383 232.661,48.069 232.761 C 47.668 232.888,47.496 233.194,47.496 233.782 C 47.496 234.337,47.351 234.621,47.067 234.621 C 46.801 234.621,46.638 234.891,46.638 235.334 C 46.638 235.737,46.389 236.202,46.066 236.404 C 45.690 236.639,45.494 237.071,45.494 237.663 C 45.494 238.201,45.320 238.632,45.064 238.730 C 44.699 238.870,44.635 239.956,44.635 246.066 C 44.635 252.176,44.699 253.261,45.064 253.402 C 45.329 253.503,45.494 253.938,45.494 254.537 C 45.494 255.317,45.606 255.508,46.066 255.508 C 46.529 255.508,46.638 255.699,46.638 256.509 C 46.638 257.209,46.767 257.511,47.067 257.511 C 47.303 257.511,47.496 257.758,47.496 258.060 C 47.496 258.912,47.805 259.514,48.242 259.514 C 48.462 259.514,48.641 259.771,48.641 260.086 C 48.641 260.404,48.832 260.658,49.070 260.658 C 49.306 260.658,49.499 260.851,49.499 261.087 C 49.499 261.326,49.754 261.516,50.072 261.516 C 50.453 261.516,50.644 261.707,50.644 262.089 C 50.644 262.403,50.823 262.661,51.042 262.661 C 51.262 262.661,51.515 262.854,51.606 263.090 C 51.696 263.326,52.031 263.519,52.349 263.519 C 52.667 263.519,53.089 263.777,53.285 264.092 C 53.482 264.406,53.869 264.664,54.146 264.664 C 54.423 264.664,54.649 264.857,54.649 265.093 C 54.649 265.387,54.944 265.522,55.587 265.522 C 56.171 265.522,56.710 265.738,57.015 266.094 C 57.393 266.536,57.859 266.667,59.051 266.667 C 60.161 266.667,60.643 266.788,60.762 267.096 C 60.898 267.452,61.680 267.525,65.335 267.525 C 68.905 267.525,69.812 267.443,70.100 267.096 C 70.329 266.820,70.963 266.667,71.879 266.667 C 73.060 266.667,73.326 266.570,73.451 266.094 C 73.562 265.670,73.841 265.522,74.533 265.522 C 75.047 265.522,75.627 265.329,75.823 265.093 C 76.019 264.857,76.433 264.664,76.743 264.664 C 77.053 264.664,77.367 264.433,77.441 264.152 C 77.573 263.646,78.081 263.294,79.614 262.650 C 80.046 262.468,80.401 262.138,80.401 261.918 C 80.401 261.697,80.572 261.516,80.782 261.516 C 80.993 261.516,81.475 260.878,81.855 260.097 C 82.285 259.214,82.736 258.673,83.047 258.666 C 83.342 258.660,83.548 258.435,83.548 258.118 C 83.548 257.823,83.741 257.421,83.977 257.225 C 84.213 257.029,84.406 256.627,84.406 256.331 C 84.406 256.036,84.664 255.536,84.979 255.222 C 85.354 254.846,85.551 254.268,85.551 253.540 C 85.551 252.903,85.734 252.279,85.980 252.074 C 86.336 251.779,86.409 250.720,86.409 245.879 C 86.409 240.952,86.342 240.014,85.980 239.875 C 85.689 239.763,85.551 239.307,85.551 238.455 C 85.551 237.511,85.409 237.113,84.979 236.843 C 84.628 236.625,84.406 236.176,84.406 235.688 C 84.406 235.242,84.217 234.816,83.977 234.724 C 83.741 234.634,83.548 234.380,83.548 234.161 C 83.548 233.942,83.290 233.763,82.976 233.763 C 82.529 233.763,82.403 233.572,82.403 232.895 C 82.403 232.388,82.225 231.959,81.974 231.863 C 81.738 231.773,81.545 231.507,81.545 231.273 C 81.545 231.039,81.288 230.780,80.973 230.698 C 80.658 230.616,80.401 230.370,80.401 230.153 C 80.401 229.935,80.236 229.757,80.035 229.757 C 79.834 229.757,79.449 229.499,79.179 229.185 C 78.910 228.870,78.431 228.612,78.114 228.612 C 77.794 228.612,77.539 228.422,77.539 228.183 C 77.539 227.947,77.302 227.754,77.011 227.754 C 76.721 227.754,76.250 227.496,75.966 227.182 C 75.644 226.827,75.084 226.609,74.491 226.609 C 73.831 226.609,73.534 226.476,73.534 226.180 C 73.534 225.841,73.128 225.751,71.600 225.751 C 69.975 225.751,69.608 225.659,69.308 225.179 C 68.982 224.656,68.641 224.607,65.350 224.607 C 61.990 224.607,61.739 224.645,61.599 225.179 M106.724 225.179 C 106.466 225.661,106.125 225.751,104.559 225.751 C 103.171 225.751,102.659 225.860,102.536 226.180 C 102.428 226.460,101.983 226.609,101.259 226.609 C 100.458 226.609,100.048 226.769,99.791 227.182 C 99.594 227.496,99.207 227.754,98.930 227.754 C 98.653 227.754,98.426 227.947,98.426 228.183 C 98.426 228.449,98.157 228.612,97.721 228.612 C 97.309 228.612,96.889 228.850,96.710 229.185 C 96.541 229.499,96.215 229.757,95.984 229.757 C 95.754 229.757,95.565 229.950,95.565 230.186 C 95.565 230.422,95.381 230.615,95.155 230.615 C 94.930 230.615,94.667 230.861,94.572 231.161 C 94.477 231.461,94.211 231.779,93.981 231.867 C 93.741 231.959,93.562 232.398,93.562 232.895 C 93.562 233.475,93.420 233.763,93.133 233.763 C 92.897 233.763,92.704 233.941,92.704 234.158 C 92.704 234.376,92.446 234.621,92.132 234.704 C 91.721 234.811,91.559 235.094,91.559 235.708 C 91.559 236.204,91.379 236.632,91.130 236.727 C 90.831 236.842,90.701 237.308,90.701 238.263 C 90.701 239.324,90.572 239.714,90.129 239.991 C 89.588 240.328,89.557 240.658,89.557 245.925 C 89.557 251.121,89.596 251.541,90.129 252.074 C 90.548 252.494,90.701 253.028,90.701 254.077 C 90.701 255.158,90.806 255.508,91.130 255.508 C 91.430 255.508,91.559 255.810,91.559 256.509 C 91.559 257.320,91.668 257.511,92.132 257.511 C 92.513 257.511,92.704 257.701,92.704 258.083 C 92.704 258.401,92.895 258.655,93.133 258.655 C 93.398 258.655,93.562 258.924,93.562 259.358 C 93.562 260.020,94.738 261.516,95.259 261.516 C 95.390 261.516,95.566 261.774,95.648 262.089 C 95.730 262.403,95.989 262.661,96.223 262.661 C 96.457 262.661,96.722 262.854,96.813 263.090 C 96.904 263.326,97.289 263.519,97.669 263.519 C 98.119 263.519,98.412 263.719,98.509 264.092 C 98.596 264.422,98.900 264.664,99.227 264.664 C 99.540 264.664,99.870 264.857,99.960 265.093 C 100.068 265.373,100.514 265.522,101.245 265.522 C 102.125 265.522,102.397 265.645,102.515 266.094 C 102.640 266.573,102.905 266.667,104.142 266.667 C 105.075 266.667,105.779 266.825,106.049 267.096 C 106.394 267.440,107.351 267.525,110.893 267.525 C 114.626 267.525,115.308 267.459,115.308 267.096 C 115.308 266.767,115.671 266.667,116.858 266.667 C 118.671 266.667,119.313 266.472,119.313 265.921 C 119.313 265.658,119.645 265.522,120.284 265.522 C 120.883 265.522,121.318 265.358,121.420 265.093 C 121.510 264.857,121.782 264.664,122.022 264.664 C 122.270 264.664,122.461 264.415,122.461 264.092 C 122.461 263.692,122.654 263.517,123.104 263.510 C 123.740 263.501,125.322 262.338,125.322 261.880 C 125.322 261.750,125.579 261.423,125.894 261.154 C 126.209 260.884,126.466 260.405,126.466 260.089 C 126.466 259.704,126.656 259.514,127.039 259.514 C 127.409 259.514,127.611 259.323,127.611 258.972 C 127.611 258.674,127.804 258.356,128.040 258.266 C 128.276 258.175,128.469 257.781,128.469 257.391 C 128.469 257.000,128.676 256.565,128.929 256.424 C 129.205 256.269,129.448 255.636,129.538 254.836 C 129.635 253.973,129.826 253.505,130.080 253.505 C 130.325 253.505,130.472 253.183,130.472 252.647 L 130.472 251.788 124.034 251.788 C 118.744 251.788,117.597 251.859,117.597 252.184 C 117.597 252.402,117.339 252.647,117.024 252.730 C 116.710 252.812,116.452 253.084,116.452 253.335 C 116.452 253.586,116.259 253.791,116.023 253.791 C 115.787 253.791,115.594 253.984,115.594 254.220 C 115.594 254.456,115.409 254.649,115.184 254.649 C 114.958 254.649,114.692 254.907,114.592 255.222 C 114.464 255.624,114.159 255.794,113.563 255.794 C 113.073 255.794,112.645 255.975,112.550 256.223 C 112.432 256.531,111.950 256.652,110.842 256.652 C 109.661 256.652,109.299 256.552,109.299 256.223 C 109.299 255.899,108.949 255.794,107.868 255.794 C 106.629 255.794,106.438 255.718,106.438 255.222 C 106.438 254.904,106.247 254.649,106.009 254.649 C 105.773 254.649,105.579 254.456,105.579 254.220 C 105.579 253.982,105.325 253.791,105.007 253.791 C 104.626 253.791,104.435 253.600,104.435 253.219 C 104.435 252.901,104.244 252.647,104.006 252.647 C 103.712 252.647,103.577 252.352,103.577 251.714 C 103.577 251.091,103.386 250.663,103.004 250.424 C 102.473 250.092,102.432 249.757,102.432 245.777 C 102.432 241.679,102.457 241.488,103.004 241.488 C 103.468 241.488,103.577 241.297,103.577 240.486 C 103.577 239.787,103.706 239.485,104.006 239.485 C 104.242 239.485,104.435 239.307,104.435 239.089 C 104.435 238.871,104.692 238.626,105.007 238.544 C 105.322 238.461,105.579 238.189,105.579 237.938 C 105.579 237.687,105.773 237.482,106.009 237.482 C 106.245 237.482,106.438 237.289,106.438 237.053 C 106.438 236.757,106.735 236.624,107.395 236.624 C 107.989 236.624,108.549 236.406,108.870 236.052 C 109.262 235.618,109.751 235.479,110.884 235.479 C 112.139 235.479,112.404 235.571,112.529 236.052 C 112.637 236.463,112.920 236.624,113.533 236.624 C 114.029 236.624,114.457 236.804,114.553 237.053 C 114.643 237.289,114.915 237.482,115.156 237.482 C 115.403 237.482,115.594 237.731,115.594 238.054 C 115.594 238.372,115.784 238.627,116.023 238.627 C 116.276 238.627,116.454 238.891,116.456 239.270 C 116.466 240.633,116.532 240.646,123.196 240.564 L 129.471 240.486 129.566 239.654 C 129.713 238.360,129.354 236.910,128.885 236.910 C 128.600 236.910,128.469 236.593,128.469 235.899 C 128.469 235.265,128.309 234.828,128.040 234.724 C 127.804 234.634,127.611 234.316,127.611 234.018 C 127.611 233.720,127.353 233.219,127.039 232.904 C 126.724 232.589,126.466 232.203,126.466 232.046 C 126.466 231.888,126.288 231.760,126.071 231.760 C 125.853 231.760,125.607 231.502,125.525 231.187 C 125.443 230.873,125.170 230.615,124.919 230.615 C 124.669 230.615,124.464 230.422,124.464 230.186 C 124.464 229.950,124.285 229.757,124.068 229.757 C 123.850 229.757,123.605 229.499,123.522 229.185 C 123.440 228.870,123.167 228.612,122.917 228.612 C 122.666 228.612,122.461 228.419,122.461 228.183 C 122.461 227.883,122.159 227.754,121.459 227.754 C 120.649 227.754,120.458 227.645,120.458 227.182 C 120.458 226.718,120.267 226.609,119.456 226.609 C 118.757 226.609,118.455 226.480,118.455 226.180 C 118.455 225.840,118.045 225.751,116.485 225.751 C 114.757 225.751,114.498 225.681,114.366 225.179 C 114.227 224.645,113.976 224.607,110.623 224.607 C 107.323 224.607,107.005 224.653,106.724 225.179 M169.957 225.179 C 169.511 225.625,169.003 225.751,167.659 225.751 C 166.389 225.751,165.890 225.864,165.769 226.180 C 165.667 226.445,165.232 226.609,164.633 226.609 C 163.853 226.609,163.662 226.722,163.662 227.182 C 163.662 227.628,163.472 227.754,162.795 227.754 C 162.315 227.754,161.859 227.933,161.774 228.155 C 161.689 228.375,161.371 228.621,161.067 228.700 C 160.764 228.780,160.515 229.050,160.515 229.301 C 160.515 229.552,160.322 229.757,160.086 229.757 C 159.850 229.757,159.657 229.935,159.657 230.153 C 159.657 230.370,159.399 230.616,159.084 230.698 C 158.770 230.780,158.512 231.053,158.512 231.304 C 158.512 231.554,158.319 231.760,158.083 231.760 C 157.845 231.760,157.654 232.014,157.654 232.332 C 157.654 232.647,157.522 232.904,157.362 232.904 C 157.201 232.904,156.914 233.258,156.724 233.691 C 156.534 234.124,156.215 234.581,156.015 234.707 C 155.815 234.832,155.651 235.284,155.651 235.711 C 155.651 236.176,155.422 236.629,155.079 236.843 C 154.610 237.136,154.506 237.511,154.506 238.915 C 154.506 240.248,154.411 240.629,154.077 240.629 C 153.711 240.629,153.648 241.409,153.648 245.932 C 153.648 250.381,153.717 251.260,154.077 251.399 C 154.379 251.515,154.506 251.986,154.506 252.990 C 154.506 254.176,154.603 254.442,155.079 254.567 C 155.503 254.678,155.651 254.957,155.651 255.649 C 155.651 256.162,155.844 256.743,156.080 256.938 C 156.316 257.134,156.509 257.548,156.509 257.859 C 156.509 258.174,156.751 258.486,157.057 258.566 C 157.359 258.645,157.677 258.987,157.765 259.326 C 158.058 260.460,161.303 263.519,162.211 263.519 C 162.343 263.519,162.518 263.777,162.601 264.092 C 162.710 264.508,162.991 264.664,163.636 264.664 C 164.232 264.664,164.521 264.804,164.521 265.093 C 164.521 265.390,164.819 265.522,165.489 265.522 C 166.216 265.522,166.494 265.664,166.607 266.094 C 166.733 266.579,166.997 266.667,168.322 266.667 C 169.364 266.667,170.006 266.810,170.243 267.096 C 170.532 267.443,171.437 267.525,174.999 267.525 C 178.720 267.525,179.399 267.459,179.399 267.096 C 179.399 266.758,179.800 266.667,181.286 266.667 C 182.932 266.667,183.191 266.594,183.322 266.094 C 183.434 265.664,183.712 265.522,184.440 265.522 C 185.109 265.522,185.408 265.390,185.408 265.093 C 185.408 264.855,185.662 264.664,185.980 264.664 C 186.295 264.664,186.810 264.406,187.124 264.092 C 187.439 263.777,187.890 263.519,188.126 263.519 C 188.362 263.519,188.555 263.326,188.555 263.090 C 188.555 262.854,188.748 262.661,188.984 262.661 C 189.223 262.661,189.413 262.407,189.413 262.089 C 189.413 261.707,189.604 261.516,189.986 261.516 C 190.300 261.516,190.558 261.337,190.558 261.118 C 190.558 260.899,190.751 260.645,190.987 260.555 C 191.238 260.458,191.416 260.030,191.416 259.523 C 191.416 258.846,191.542 258.655,191.989 258.655 C 192.400 258.655,192.561 258.464,192.561 257.975 C 192.561 257.601,192.754 257.134,192.990 256.938 C 193.264 256.711,193.419 256.078,193.419 255.187 L 193.419 253.791 187.554 253.791 C 182.531 253.791,181.688 253.853,181.688 254.220 C 181.688 254.459,181.434 254.649,181.116 254.649 C 180.764 254.649,180.541 254.843,180.536 255.150 C 180.529 255.664,178.775 256.652,177.872 256.652 C 177.607 256.652,177.170 256.910,176.901 257.225 C 176.502 257.691,176.057 257.797,174.505 257.797 C 172.840 257.797,172.580 257.725,172.449 257.225 C 172.340 256.808,172.059 256.652,171.414 256.652 C 170.818 256.652,170.529 256.512,170.529 256.223 C 170.529 255.985,170.275 255.794,169.957 255.794 C 169.576 255.794,169.385 255.603,169.385 255.222 C 169.385 254.904,169.194 254.649,168.956 254.649 C 168.720 254.649,168.526 254.456,168.526 254.220 C 168.526 253.982,168.272 253.791,167.954 253.791 C 167.573 253.791,167.382 253.600,167.382 253.219 C 167.382 252.901,167.191 252.647,166.953 252.647 C 166.623 252.647,166.524 252.281,166.524 251.073 L 166.524 249.499 180.544 249.499 L 194.564 249.499 194.564 245.491 C 194.564 241.836,194.513 241.439,193.991 240.992 C 193.557 240.620,193.419 240.148,193.419 239.027 C 193.419 238.065,193.270 237.428,192.990 237.196 C 192.754 237.000,192.561 236.470,192.561 236.019 C 192.561 235.508,192.345 235.063,191.989 234.841 C 191.674 234.644,191.416 234.337,191.416 234.158 C 191.416 233.979,191.223 233.672,190.987 233.476 C 190.751 233.280,190.558 232.814,190.558 232.440 C 190.558 231.950,190.397 231.760,189.986 231.760 C 189.604 231.760,189.413 231.569,189.413 231.187 C 189.413 230.869,189.223 230.615,188.984 230.615 C 188.748 230.615,188.555 230.422,188.555 230.186 C 188.555 229.948,188.301 229.757,187.983 229.757 C 187.601 229.757,187.411 229.566,187.411 229.185 C 187.411 228.870,187.231 228.612,187.012 228.612 C 186.793 228.612,186.539 228.419,186.449 228.183 C 186.354 227.937,185.927 227.754,185.450 227.754 C 184.857 227.754,184.573 227.589,184.466 227.182 C 184.359 226.771,184.076 226.609,183.462 226.609 C 182.967 226.609,182.539 226.429,182.443 226.180 C 182.318 225.855,181.791 225.751,180.266 225.751 C 178.744 225.751,178.255 225.655,178.255 225.355 C 178.255 224.378,170.914 224.222,169.957 225.179 M378.183 224.804 C 377.908 224.876,377.682 225.118,377.682 225.343 C 377.682 225.647,377.281 225.751,376.109 225.751 C 374.901 225.751,374.535 225.851,374.535 226.180 C 374.535 226.469,374.246 226.609,373.650 226.609 C 373.005 226.609,372.724 226.765,372.615 227.182 C 372.533 227.496,372.287 227.754,372.070 227.754 C 371.852 227.754,371.674 227.947,371.674 228.183 C 371.674 228.422,371.419 228.612,371.102 228.612 C 370.638 228.612,370.529 228.422,370.529 227.611 C 370.529 226.740,370.438 226.609,369.831 226.609 C 369.447 226.609,369.053 226.481,368.956 226.323 C 368.849 226.151,366.860 226.037,363.948 226.037 C 361.037 226.037,359.048 226.151,358.941 226.323 C 358.844 226.481,358.515 226.609,358.209 226.609 C 357.665 226.609,357.654 226.997,357.654 246.066 C 357.654 264.908,357.671 265.522,358.191 265.522 C 358.486 265.522,358.889 265.715,359.084 265.951 C 359.646 266.628,368.122 266.570,369.509 265.880 L 370.515 265.379 370.522 253.433 C 370.528 243.009,370.584 241.488,370.959 241.488 C 371.258 241.488,371.388 241.186,371.388 240.486 C 371.388 239.676,371.497 239.485,371.960 239.485 C 372.275 239.485,372.532 239.306,372.532 239.086 C 372.532 238.867,372.725 238.614,372.961 238.523 C 373.197 238.433,373.391 238.161,373.391 237.920 C 373.391 237.673,373.640 237.482,373.963 237.482 C 374.281 237.482,374.535 237.291,374.535 237.053 C 374.535 236.699,375.060 236.624,377.539 236.624 C 380.019 236.624,380.544 236.699,380.544 237.053 C 380.544 237.291,380.798 237.482,381.116 237.482 C 381.497 237.482,381.688 237.673,381.688 238.054 C 381.688 238.372,381.879 238.627,382.117 238.627 C 382.406 238.627,382.546 238.916,382.546 239.512 C 382.546 240.156,382.702 240.438,383.119 240.547 C 383.680 240.693,383.691 240.937,383.691 253.109 C 383.691 265.062,383.711 265.522,384.228 265.522 C 384.524 265.522,384.926 265.715,385.122 265.951 C 385.412 266.301,386.349 266.381,390.173 266.381 C 394.082 266.381,394.895 266.309,395.032 265.951 C 395.123 265.715,395.505 265.522,395.882 265.522 L 396.567 265.522 396.567 252.074 C 396.567 239.008,396.550 238.610,395.994 238.054 C 395.564 237.624,395.422 237.101,395.422 235.943 C 395.422 234.925,395.277 234.284,394.993 234.049 C 394.757 233.853,394.564 233.310,394.564 232.842 C 394.564 232.233,394.402 231.950,393.991 231.843 C 393.675 231.760,393.419 231.452,393.419 231.154 C 393.419 230.858,393.240 230.615,393.021 230.615 C 392.802 230.615,392.543 230.296,392.445 229.905 C 392.347 229.515,391.882 228.996,391.412 228.753 C 390.942 228.510,390.558 228.186,390.558 228.033 C 390.558 227.879,390.300 227.754,389.986 227.754 C 389.604 227.754,389.413 227.563,389.413 227.182 C 389.413 226.718,389.223 226.609,388.412 226.609 C 387.713 226.609,387.411 226.480,387.411 226.180 C 387.411 225.847,387.029 225.751,385.696 225.751 C 384.292 225.751,383.917 225.648,383.625 225.179 C 383.274 224.618,379.808 224.379,378.183 224.804 M136.910 226.323 C 136.813 226.481,136.483 226.609,136.178 226.609 C 135.633 226.609,135.622 226.997,135.622 246.066 C 135.622 262.401,135.686 265.522,136.016 265.522 C 136.233 265.522,136.571 265.715,136.767 265.951 C 137.058 266.302,138.010 266.381,141.961 266.381 C 145.998 266.381,146.826 266.309,146.964 265.951 C 147.054 265.715,147.437 265.522,147.813 265.522 L 148.498 265.522 148.498 246.066 L 148.498 226.609 147.783 226.609 C 147.389 226.609,147.067 226.481,147.067 226.323 C 147.067 226.144,145.213 226.037,142.077 226.037 C 139.059 226.037,137.017 226.150,136.910 226.323 M312.804 226.465 C 312.427 226.893,312.252 256.098,312.620 257.058 C 312.716 257.307,312.973 257.511,313.192 257.511 C 313.465 257.511,313.591 257.865,313.591 258.635 C 313.591 259.253,313.784 259.952,314.020 260.188 C 314.256 260.424,314.449 260.820,314.449 261.067 C 314.449 261.326,314.692 261.516,315.021 261.516 C 315.403 261.516,315.594 261.707,315.594 262.089 C 315.594 262.407,315.784 262.661,316.023 262.661 C 316.259 262.661,316.452 262.854,316.452 263.090 C 316.452 263.329,316.706 263.519,317.024 263.519 C 317.406 263.519,317.597 263.710,317.597 264.092 C 317.597 264.406,317.776 264.664,317.995 264.664 C 318.214 264.664,318.468 264.857,318.558 265.093 C 318.653 265.339,319.080 265.522,319.557 265.522 C 320.150 265.522,320.434 265.687,320.541 266.094 C 320.666 266.572,320.931 266.667,322.148 266.667 C 323.252 266.667,323.605 266.771,323.605 267.096 C 323.605 267.453,324.162 267.525,326.905 267.525 C 329.573 267.525,330.235 267.443,330.369 267.096 C 330.480 266.805,330.937 266.667,331.788 266.667 C 332.732 266.667,333.131 266.525,333.400 266.094 C 333.596 265.780,334.042 265.522,334.389 265.522 C 334.737 265.522,335.125 265.352,335.250 265.143 C 335.376 264.934,335.705 264.681,335.980 264.580 C 336.255 264.478,336.481 264.213,336.481 263.991 C 336.481 263.768,336.738 263.519,337.053 263.436 C 337.552 263.306,337.625 263.428,337.625 264.388 C 337.625 266.206,338.133 266.381,343.439 266.381 C 347.216 266.381,348.120 266.298,348.811 265.890 L 349.642 265.399 349.642 246.050 L 349.642 226.701 348.914 226.369 C 347.837 225.879,338.786 225.934,338.126 226.435 C 337.664 226.786,337.625 227.671,337.625 237.728 C 337.625 248.259,337.605 248.661,337.053 249.213 C 336.633 249.633,336.481 250.167,336.481 251.216 C 336.481 252.297,336.376 252.647,336.052 252.647 C 335.813 252.647,335.622 252.901,335.622 253.219 C 335.622 253.542,335.432 253.791,335.184 253.791 C 334.943 253.791,334.672 253.984,334.581 254.220 C 334.491 254.456,334.237 254.649,334.018 254.649 C 333.799 254.649,333.619 254.907,333.619 255.222 C 333.619 255.754,333.429 255.794,330.901 255.794 C 328.656 255.794,328.183 255.718,328.183 255.358 C 328.183 255.104,327.831 254.851,327.340 254.753 C 326.704 254.626,326.453 254.382,326.316 253.758 C 326.216 253.304,326.016 252.933,325.871 252.933 C 325.727 252.933,325.608 252.621,325.608 252.241 C 325.608 251.253,325.323 250.644,324.862 250.644 C 324.528 250.644,324.464 248.723,324.464 238.730 C 324.464 227.718,324.426 226.787,323.963 226.435 C 323.215 225.868,313.307 225.894,312.804 226.465 M177.682 235.050 C 177.682 235.286,177.861 235.479,178.078 235.479 C 178.296 235.479,178.541 235.737,178.624 236.052 C 178.706 236.366,178.979 236.624,179.229 236.624 C 179.480 236.624,179.685 236.817,179.685 237.053 C 179.685 237.289,179.878 237.482,180.114 237.482 C 180.352 237.482,180.544 237.736,180.544 238.052 C 180.544 238.365,180.801 238.783,181.116 238.979 C 181.431 239.176,181.688 239.627,181.688 239.983 L 181.688 240.629 174.106 240.629 L 166.524 240.629 166.524 239.628 C 166.524 238.929,166.653 238.627,166.953 238.627 C 167.191 238.627,167.382 238.372,167.382 238.054 C 167.382 237.740,167.525 237.482,167.699 237.482 C 168.139 237.482,169.374 236.273,169.380 235.837 C 169.383 235.640,169.642 235.479,169.957 235.479 C 170.275 235.479,170.529 235.289,170.529 235.050 C 170.529 234.691,171.117 234.621,174.106 234.621 C 177.094 234.621,177.682 234.691,177.682 235.050 M68.670 237.053 C 68.670 237.353,68.972 237.482,69.671 237.482 C 70.482 237.482,70.672 237.591,70.672 238.054 C 70.672 238.372,70.863 238.627,71.102 238.627 C 71.367 238.627,71.531 238.896,71.531 239.332 C 71.531 239.744,71.768 240.164,72.103 240.343 C 72.441 240.524,72.675 240.942,72.675 241.364 C 72.675 241.757,72.868 242.152,73.104 242.243 C 73.456 242.378,73.534 243.093,73.534 246.204 C 73.534 249.231,73.446 250.074,73.104 250.358 C 72.868 250.554,72.675 250.891,72.675 251.108 C 72.675 251.325,72.418 251.760,72.103 252.074 C 71.788 252.389,71.531 252.904,71.531 253.219 C 71.531 253.537,71.340 253.791,71.102 253.791 C 70.866 253.791,70.672 253.984,70.672 254.220 C 70.672 254.520,70.370 254.649,69.671 254.649 C 68.860 254.649,68.670 254.758,68.670 255.222 C 68.670 255.759,68.479 255.794,65.522 255.794 C 63.023 255.794,62.375 255.712,62.375 255.395 C 62.375 254.958,61.774 254.649,60.921 254.649 C 60.619 254.649,60.372 254.456,60.372 254.220 C 60.372 253.984,60.179 253.791,59.943 253.791 C 59.704 253.791,59.514 253.537,59.514 253.219 C 59.514 252.837,59.323 252.647,58.941 252.647 C 58.495 252.647,58.369 252.456,58.369 251.779 C 58.369 251.272,58.191 250.844,57.940 250.747 C 57.647 250.635,57.511 250.176,57.511 249.299 C 57.511 248.256,57.403 247.987,56.938 247.865 C 56.456 247.739,56.366 247.475,56.366 246.186 C 56.366 244.948,56.476 244.597,56.938 244.349 C 57.376 244.115,57.511 243.750,57.511 242.796 C 57.511 241.952,57.649 241.496,57.940 241.384 C 58.191 241.288,58.369 240.859,58.369 240.352 C 58.369 239.676,58.495 239.485,58.941 239.485 C 59.259 239.485,59.514 239.294,59.514 239.056 C 59.514 238.820,59.707 238.627,59.943 238.627 C 60.181 238.627,60.372 238.372,60.372 238.054 C 60.372 237.591,60.563 237.482,61.373 237.482 C 62.073 237.482,62.375 237.353,62.375 237.053 C 62.375 236.697,62.915 236.624,65.522 236.624 C 68.129 236.624,68.670 236.697,68.670 237.053 " stroke="none" fill="#33a424" fill-rule="evenodd"></path><path id="path1" d="M219.644 2.990 C 219.548 3.242,219.130 3.435,218.679 3.437 C 217.445 3.443,216.595 3.747,216.595 4.182 C 216.595 4.521,215.007 4.779,213.948 4.612 C 213.830 4.593,213.734 4.771,213.734 5.007 C 213.734 5.279,213.446 5.444,212.947 5.458 C 211.635 5.495,211.047 5.670,210.717 6.121 C 210.541 6.362,209.866 6.583,209.189 6.623 C 208.522 6.663,207.887 6.843,207.779 7.025 C 207.671 7.207,207.007 7.430,206.305 7.521 C 205.602 7.613,204.880 7.889,204.700 8.136 C 204.508 8.397,203.947 8.584,203.351 8.584 C 202.789 8.584,202.137 8.777,201.901 9.013 C 201.665 9.249,201.076 9.442,200.593 9.442 C 200.105 9.442,199.467 9.689,199.160 9.996 C 198.855 10.301,198.115 10.590,197.515 10.640 C 196.915 10.689,196.447 10.866,196.477 11.032 C 196.506 11.199,195.996 11.367,195.343 11.405 C 194.101 11.479,193.313 11.899,193.587 12.343 C 193.675 12.486,193.642 12.585,193.512 12.563 C 192.364 12.363,190.558 12.642,190.558 13.019 C 190.558 13.338,190.221 13.448,189.244 13.448 C 188.170 13.448,187.902 13.553,187.780 14.020 C 187.653 14.503,187.389 14.592,186.090 14.592 C 184.911 14.592,184.549 14.693,184.549 15.021 C 184.549 15.341,184.213 15.451,183.235 15.451 C 182.161 15.451,181.893 15.555,181.771 16.023 C 181.647 16.497,181.381 16.595,180.215 16.595 C 179.229 16.595,178.760 16.723,178.644 17.024 C 178.544 17.286,178.110 17.454,177.532 17.454 C 176.312 17.454,175.680 17.703,175.680 18.184 C 175.680 18.446,175.200 18.596,174.177 18.655 C 173.163 18.713,172.698 18.857,172.747 19.099 C 172.794 19.337,172.437 19.456,171.674 19.456 C 170.911 19.456,170.339 19.647,169.957 20.029 C 169.559 20.427,169.003 20.601,168.128 20.601 C 167.275 20.601,166.818 20.739,166.706 21.030 C 166.615 21.268,166.186 21.461,165.746 21.463 C 164.526 21.469,163.662 21.771,163.662 22.192 C 163.662 22.443,163.199 22.602,162.303 22.660 C 161.045 22.740,160.924 22.816,160.670 23.677 C 160.520 24.188,160.230 24.607,160.027 24.607 C 159.797 24.607,159.657 24.974,159.657 25.575 C 159.657 26.302,159.514 26.580,159.084 26.692 C 158.673 26.800,158.512 27.083,158.512 27.697 C 158.512 28.192,158.332 28.620,158.083 28.716 C 157.832 28.812,157.654 29.241,157.654 29.748 C 157.654 30.298,157.508 30.615,157.255 30.615 C 156.823 30.615,156.509 31.215,156.509 32.039 C 156.509 32.324,156.316 32.631,156.080 32.721 C 155.840 32.814,155.651 33.239,155.651 33.690 C 155.651 34.140,155.399 34.710,155.079 34.984 C 154.764 35.253,154.506 35.717,154.506 36.014 C 154.506 36.311,154.313 36.714,154.077 36.910 C 153.841 37.106,153.648 37.578,153.648 37.958 C 153.648 38.339,153.391 38.927,153.076 39.265 C 152.761 39.603,152.504 40.241,152.504 40.683 C 152.504 41.208,152.354 41.488,152.074 41.488 C 151.745 41.488,151.645 41.853,151.645 43.062 L 151.645 44.635 153.433 44.631 C 155.612 44.627,156.509 44.409,156.509 43.887 C 156.509 43.594,156.952 43.491,158.206 43.491 C 159.332 43.491,160.046 43.346,160.331 43.062 C 160.598 42.795,161.300 42.632,162.188 42.632 C 163.882 42.632,164.521 42.428,164.521 41.886 C 164.521 41.586,164.983 41.488,166.390 41.488 C 167.787 41.488,168.300 41.380,168.423 41.059 C 168.545 40.741,169.049 40.629,170.363 40.629 C 171.700 40.629,172.280 40.498,172.711 40.095 C 173.103 39.731,173.863 39.520,175.109 39.429 C 176.142 39.355,176.983 39.152,177.046 38.962 C 177.111 38.767,177.739 38.627,178.546 38.627 C 180.137 38.627,181.519 38.190,181.259 37.769 C 181.147 37.588,181.829 37.482,183.111 37.482 C 184.650 37.482,185.179 37.379,185.304 37.053 C 185.418 36.758,185.883 36.623,186.797 36.620 C 188.535 36.615,189.413 36.365,189.413 35.875 C 189.413 35.578,189.882 35.479,191.282 35.479 C 192.679 35.479,193.193 35.371,193.316 35.050 C 193.433 34.743,193.913 34.621,195.000 34.621 C 196.784 34.621,197.425 34.424,197.425 33.875 C 197.425 33.572,197.907 33.476,199.428 33.476 C 201.017 33.476,201.431 33.388,201.431 33.047 C 201.431 32.709,201.831 32.618,203.317 32.618 C 204.963 32.618,205.223 32.545,205.353 32.046 C 205.485 31.544,205.744 31.474,207.452 31.474 C 208.803 31.474,209.533 31.342,209.830 31.044 C 210.066 30.808,210.526 30.615,210.852 30.615 C 211.188 30.615,211.445 30.429,211.445 30.186 C 211.445 29.950,211.702 29.499,212.017 29.185 C 212.338 28.864,212.589 28.231,212.589 27.745 C 212.589 27.238,212.768 26.809,213.019 26.713 C 213.300 26.605,213.448 26.159,213.448 25.417 C 213.448 24.792,213.567 24.360,213.714 24.451 C 214.127 24.706,214.484 24.043,214.557 22.890 C 214.576 22.575,214.785 22.318,215.021 22.318 C 215.409 22.318,215.676 20.666,215.461 19.599 C 215.429 19.442,215.498 19.409,215.615 19.525 C 215.989 19.899,216.595 19.127,216.595 18.277 C 216.595 17.736,216.742 17.454,217.024 17.454 C 217.324 17.454,217.454 17.151,217.454 16.452 C 217.454 15.790,217.588 15.451,217.849 15.451 C 218.259 15.451,218.587 14.614,218.594 13.554 C 218.596 13.220,218.791 12.785,219.027 12.589 C 219.263 12.394,219.456 11.894,219.456 11.479 C 219.456 11.034,219.691 10.577,220.029 10.367 C 220.343 10.170,220.601 9.714,220.601 9.354 C 220.601 8.993,220.762 8.537,220.959 8.340 C 221.353 7.946,221.372 7.869,221.423 6.471 C 221.450 5.751,221.610 5.464,222.049 5.349 C 222.549 5.218,222.625 5.006,222.550 3.956 L 222.461 2.718 221.138 2.632 C 220.151 2.568,219.771 2.659,219.644 2.990 M227.468 8.982 C 227.468 9.201,227.275 9.455,227.039 9.546 C 226.779 9.645,226.608 10.082,226.605 10.649 C 226.601 11.497,226.080 12.846,226.021 12.160 C 225.974 11.611,225.505 13.025,225.485 13.775 C 225.474 14.191,225.272 14.605,225.036 14.696 C 224.743 14.808,224.607 15.267,224.607 16.143 C 224.607 17.008,224.461 17.506,224.159 17.675 C 223.694 17.936,223.521 18.483,223.484 19.814 C 223.470 20.313,223.305 20.601,223.033 20.601 C 222.710 20.601,222.604 20.947,222.604 21.998 C 222.604 23.155,222.505 23.421,222.031 23.545 C 221.576 23.664,221.459 23.935,221.459 24.875 C 221.459 25.660,221.316 26.110,221.030 26.220 C 220.761 26.323,220.601 26.761,220.601 27.395 C 220.601 27.994,220.413 28.543,220.140 28.743 C 219.336 29.331,219.298 31.315,220.076 32.093 C 220.443 32.461,220.750 32.890,220.757 33.047 C 220.764 33.205,220.917 33.304,221.097 33.268 C 221.277 33.231,221.501 33.445,221.596 33.742 C 221.690 34.039,221.955 34.354,222.185 34.442 C 222.415 34.531,222.604 34.800,222.604 35.041 C 222.604 35.282,222.722 35.479,222.867 35.479 C 223.223 35.479,225.335 37.590,225.557 38.166 C 225.654 38.420,225.930 38.627,226.171 38.627 C 226.412 38.627,226.609 38.820,226.609 39.056 C 226.609 39.292,226.803 39.485,227.039 39.485 C 227.275 39.485,227.468 39.674,227.468 39.904 C 227.468 40.135,227.725 40.461,228.040 40.629 C 228.355 40.798,228.612 41.124,228.612 41.355 C 228.612 41.585,228.738 41.774,228.891 41.774 C 229.044 41.774,229.372 42.164,229.619 42.642 C 229.865 43.119,230.191 43.433,230.341 43.340 C 230.492 43.247,230.615 43.436,230.615 43.760 C 230.615 44.084,230.800 44.349,231.025 44.349 C 231.251 44.349,231.517 44.607,231.617 44.921 C 231.716 45.236,231.968 45.494,232.175 45.494 C 232.382 45.494,232.622 45.764,232.708 46.095 C 232.795 46.425,232.988 46.620,233.138 46.527 C 233.289 46.434,233.478 46.614,233.560 46.927 C 233.642 47.240,233.914 47.496,234.165 47.496 C 234.430 47.496,234.621 47.736,234.621 48.069 C 234.621 48.383,234.800 48.641,235.019 48.641 C 235.239 48.641,235.492 48.834,235.583 49.070 C 235.673 49.306,235.945 49.499,236.186 49.499 C 236.427 49.499,236.624 49.696,236.624 49.937 C 236.624 50.178,236.817 50.450,237.053 50.540 C 237.289 50.631,237.482 50.884,237.482 51.104 C 237.482 51.323,237.618 51.502,237.785 51.502 C 237.952 51.502,238.013 51.624,237.920 51.774 C 237.828 51.923,238.017 52.187,238.340 52.361 C 238.664 52.534,238.859 52.788,238.774 52.927 C 238.688 53.065,238.880 53.261,239.199 53.362 C 239.518 53.463,239.711 53.656,239.628 53.791 C 239.545 53.926,239.736 54.118,240.053 54.219 C 240.370 54.320,240.629 54.651,240.629 54.955 C 240.629 55.259,240.823 55.508,241.059 55.508 C 241.295 55.508,241.488 55.692,241.488 55.918 C 241.488 56.143,241.745 56.409,242.060 56.509 C 242.375 56.609,242.632 56.875,242.632 57.101 C 242.632 57.326,242.810 57.511,243.028 57.511 C 243.246 57.511,243.491 57.768,243.574 58.083 C 243.656 58.398,243.928 58.655,244.179 58.655 C 244.430 58.655,244.635 58.848,244.635 59.084 C 244.635 59.320,244.813 59.514,245.031 59.514 C 245.249 59.514,245.494 59.771,245.576 60.086 C 245.659 60.401,245.931 60.658,246.182 60.658 C 246.911 60.658,246.805 62.551,246.066 62.744 C 245.598 62.866,245.494 63.134,245.494 64.217 C 245.494 65.129,245.360 65.591,245.064 65.705 C 244.828 65.795,244.635 66.101,244.635 66.384 C 244.635 66.758,244.479 66.858,244.063 66.750 C 243.748 66.667,243.491 66.410,243.491 66.177 C 243.491 65.945,243.233 65.687,242.918 65.605 C 242.604 65.523,242.346 65.277,242.346 65.060 C 242.346 64.842,242.217 64.664,242.060 64.664 C 241.903 64.664,241.532 64.438,241.236 64.163 C 240.275 63.269,239.376 62.661,239.017 62.661 C 238.823 62.661,238.583 62.403,238.484 62.089 C 238.384 61.774,238.117 61.516,237.892 61.516 C 237.667 61.516,237.482 61.323,237.482 61.087 C 237.482 60.851,237.304 60.658,237.086 60.658 C 236.869 60.658,236.623 60.401,236.541 60.086 C 236.459 59.771,236.186 59.514,235.935 59.514 C 235.684 59.514,235.479 59.320,235.479 59.084 C 235.479 58.848,235.295 58.655,235.069 58.655 C 234.844 58.655,234.578 58.398,234.478 58.083 C 234.378 57.768,234.126 57.511,233.917 57.511 C 233.708 57.511,233.464 57.318,233.373 57.082 C 233.282 56.845,233.070 56.652,232.901 56.652 C 232.731 56.652,232.253 56.337,231.838 55.952 C 231.423 55.567,230.975 55.319,230.842 55.401 C 230.709 55.483,230.636 55.383,230.680 55.178 C 230.723 54.974,230.469 54.762,230.114 54.708 C 229.760 54.654,229.471 54.421,229.471 54.191 C 229.471 53.961,229.278 53.699,229.041 53.608 C 228.805 53.518,228.612 53.264,228.612 53.045 C 228.612 52.826,228.370 52.647,228.073 52.647 C 227.775 52.647,227.468 52.391,227.385 52.074 C 227.303 51.760,227.022 51.502,226.762 51.502 C 226.500 51.502,226.374 51.366,226.478 51.197 C 226.582 51.029,226.397 50.821,226.066 50.734 C 225.735 50.648,225.465 50.408,225.465 50.201 C 225.465 49.993,225.207 49.742,224.893 49.642 C 224.578 49.542,224.320 49.276,224.320 49.051 C 224.320 48.825,224.127 48.641,223.891 48.641 C 223.655 48.641,223.462 48.525,223.462 48.383 C 223.462 48.169,221.916 47.064,221.085 46.685 C 220.653 46.488,219.456 45.182,219.456 44.908 C 219.456 44.758,219.263 44.635,219.027 44.635 C 218.791 44.635,218.598 44.438,218.598 44.197 C 218.598 43.956,218.373 43.674,218.097 43.571 C 217.822 43.468,217.468 43.218,217.310 43.017 C 216.837 42.412,215.932 42.759,215.638 43.659 C 215.488 44.117,215.223 44.584,215.050 44.696 C 214.685 44.933,214.675 44.986,214.628 47.067 C 214.601 48.259,214.488 48.641,214.163 48.641 C 213.927 48.641,213.718 48.770,213.698 48.927 C 213.678 49.084,213.630 49.342,213.591 49.499 C 213.552 49.657,213.503 50.308,213.484 50.947 C 213.464 51.586,213.333 52.037,213.192 51.950 C 212.823 51.722,212.589 52.502,212.589 53.958 C 212.589 54.794,212.415 55.396,212.074 55.738 C 211.742 56.070,211.534 56.758,211.490 57.669 C 211.450 58.506,211.252 59.214,211.005 59.402 C 210.733 59.608,210.587 60.236,210.587 61.190 C 210.587 61.999,210.470 62.661,210.328 62.661 C 209.944 62.661,209.462 64.250,209.640 64.930 C 209.728 65.264,210.030 65.522,210.334 65.522 C 210.630 65.522,210.873 65.657,210.873 65.823 C 210.873 65.988,211.323 66.312,211.874 66.542 C 212.425 66.772,212.876 67.087,212.876 67.243 C 212.876 67.398,213.262 67.525,213.734 67.525 C 214.314 67.525,214.592 67.667,214.592 67.963 C 214.592 68.204,214.818 68.487,215.093 68.591 C 215.368 68.695,215.764 68.949,215.972 69.154 C 216.180 69.360,216.567 69.528,216.833 69.528 C 217.099 69.528,217.477 69.785,217.673 70.100 C 217.877 70.427,218.340 70.672,218.752 70.672 C 219.149 70.672,219.548 70.866,219.639 71.102 C 219.730 71.338,220.047 71.531,220.345 71.531 C 220.643 71.531,220.855 71.692,220.815 71.888 C 220.773 72.103,221.117 72.282,221.674 72.336 C 222.372 72.403,222.604 72.563,222.604 72.980 C 222.604 73.422,222.805 73.534,223.605 73.534 C 224.267 73.534,224.607 73.668,224.607 73.929 C 224.607 74.147,224.864 74.393,225.179 74.475 C 225.494 74.557,225.751 74.802,225.751 75.018 C 225.751 75.240,226.090 75.440,226.528 75.476 C 226.955 75.511,227.412 75.732,227.543 75.968 C 227.675 76.203,228.090 76.395,228.467 76.395 C 228.843 76.395,229.243 76.543,229.355 76.725 C 229.494 76.949,229.430 76.978,229.157 76.813 C 228.815 76.607,228.814 76.643,229.148 77.055 C 229.364 77.321,229.782 77.539,230.078 77.539 C 230.373 77.539,230.615 77.732,230.615 77.969 C 230.615 78.268,230.917 78.398,231.617 78.398 C 232.427 78.398,232.618 78.507,232.618 78.970 C 232.618 79.390,232.809 79.542,233.333 79.542 C 233.753 79.542,234.019 79.690,233.977 79.900 C 233.937 80.100,234.247 80.297,234.679 80.347 C 235.141 80.400,235.523 80.659,235.628 80.991 C 235.749 81.373,236.064 81.545,236.643 81.545 C 237.198 81.545,237.482 81.690,237.482 81.974 C 237.482 82.210,237.711 82.403,237.991 82.403 C 238.271 82.403,238.686 82.661,238.913 82.976 C 239.140 83.290,239.619 83.548,239.977 83.548 C 241.040 83.548,240.974 88.900,239.898 89.976 C 239.251 90.623,237.487 90.960,237.536 90.427 C 237.591 89.820,237.407 89.557,236.930 89.557 C 236.627 89.557,236.185 89.363,235.949 89.127 C 235.713 88.891,235.253 88.698,234.927 88.698 C 234.601 88.698,234.335 88.519,234.335 88.300 C 234.335 87.862,233.734 87.554,232.881 87.554 C 232.579 87.554,232.332 87.361,232.332 87.124 C 232.332 86.839,232.047 86.695,231.484 86.695 C 230.928 86.695,230.530 86.498,230.329 86.123 C 230.148 85.785,229.730 85.551,229.309 85.551 C 228.916 85.551,228.520 85.358,228.430 85.122 C 228.337 84.880,227.911 84.692,227.456 84.692 C 226.899 84.692,226.592 84.515,226.466 84.120 C 226.341 83.726,226.033 83.548,225.476 83.548 C 225.022 83.548,224.596 83.360,224.503 83.119 C 224.409 82.873,223.982 82.690,223.504 82.690 C 222.911 82.690,222.627 82.524,222.521 82.117 C 222.412 81.701,222.131 81.545,221.486 81.545 C 220.890 81.545,220.601 81.405,220.601 81.116 C 220.601 80.861,220.338 80.687,219.954 80.687 C 219.599 80.687,219.147 80.429,218.951 80.114 C 218.754 79.800,218.351 79.542,218.054 79.542 C 217.757 79.542,217.441 79.349,217.350 79.113 C 217.254 78.862,216.825 78.684,216.318 78.684 C 215.767 78.684,215.451 78.538,215.451 78.285 C 215.451 77.848,214.849 77.539,213.997 77.539 C 213.695 77.539,213.448 77.346,213.448 77.110 C 213.448 76.813,213.149 76.681,212.480 76.681 C 211.752 76.681,211.474 76.539,211.362 76.109 C 211.253 75.692,210.972 75.536,210.327 75.536 C 209.716 75.536,209.442 75.398,209.442 75.090 C 209.442 74.749,209.188 74.665,208.369 74.732 C 207.698 74.788,207.323 74.955,207.368 75.179 C 207.407 75.376,207.278 75.504,207.082 75.465 C 206.821 75.413,206.702 76.103,206.642 78.009 C 206.569 80.331,206.497 80.642,205.998 80.772 C 205.499 80.903,205.436 81.174,205.436 83.204 C 205.436 84.972,205.339 85.527,205.007 85.654 C 204.673 85.782,204.578 86.346,204.578 88.191 C 204.578 90.280,204.507 90.608,203.986 90.933 C 203.437 91.276,203.401 91.526,203.485 94.364 L 203.577 97.425 205.079 97.511 C 206.159 97.574,206.581 97.714,206.581 98.012 C 206.581 98.329,206.996 98.426,208.345 98.426 C 209.316 98.426,210.026 98.510,209.923 98.613 C 209.536 99.000,210.781 99.553,212.058 99.562 C 212.969 99.568,213.438 99.706,213.551 100.000 C 213.665 100.297,214.128 100.429,215.052 100.429 C 215.995 100.429,216.497 100.577,216.755 100.930 C 217.163 101.487,217.165 101.488,219.170 101.538 C 220.235 101.565,220.601 101.683,220.601 102.003 C 220.601 102.327,220.949 102.432,222.021 102.432 C 223.149 102.432,223.505 102.550,223.748 103.004 C 223.982 103.442,224.347 103.577,225.297 103.577 C 226.052 103.577,226.679 103.745,226.896 104.006 C 227.137 104.296,227.784 104.435,228.900 104.435 C 230.308 104.435,230.570 104.518,230.698 105.007 C 230.823 105.485,231.088 105.579,232.305 105.579 C 233.410 105.579,233.763 105.683,233.763 106.009 C 233.763 106.346,234.160 106.438,235.622 106.438 C 237.046 106.438,237.482 106.534,237.482 106.848 C 237.482 107.073,237.740 107.339,238.054 107.439 C 238.796 107.675,238.929 110.730,238.197 110.730 C 237.961 110.730,237.749 110.891,237.725 111.087 C 237.701 111.284,237.651 111.574,237.615 111.731 C 237.578 111.888,237.533 112.371,237.515 112.804 C 237.476 113.733,234.335 114.086,234.335 113.162 C 234.335 112.824,233.937 112.732,232.475 112.732 C 230.997 112.732,230.498 112.615,230.043 112.160 C 229.581 111.699,229.089 111.588,227.498 111.588 C 226.009 111.588,225.486 111.483,225.361 111.159 C 225.234 110.827,224.679 110.730,222.909 110.730 C 220.914 110.730,220.582 110.656,220.315 110.157 C 220.048 109.659,219.716 109.585,217.730 109.585 C 215.895 109.585,215.451 109.502,215.451 109.156 C 215.451 108.819,215.056 108.727,213.614 108.727 C 211.566 108.727,210.784 108.529,211.062 108.080 C 211.166 107.912,211.111 107.864,210.937 107.972 C 210.766 108.077,210.545 108.033,210.446 107.873 C 210.348 107.713,209.373 107.582,208.281 107.582 C 206.706 107.582,206.295 107.493,206.295 107.153 C 206.295 106.805,205.834 106.724,203.863 106.724 L 201.431 106.724 201.397 108.512 C 201.378 109.496,201.378 110.397,201.397 110.515 C 201.415 110.633,201.270 110.697,201.073 110.658 C 200.804 110.604,200.696 111.561,200.636 114.529 C 200.565 118.027,200.492 118.536,199.984 119.043 C 199.459 119.569,199.418 119.938,199.491 123.542 L 199.571 127.468 201.717 127.631 C 202.897 127.721,203.734 127.819,203.577 127.850 C 202.406 128.079,204.722 128.461,207.299 128.465 C 210.136 128.469,210.484 128.526,210.806 129.041 C 211.128 129.557,211.474 129.614,214.276 129.614 C 216.480 129.614,217.627 129.738,218.208 130.041 C 218.797 130.348,219.962 130.469,222.356 130.470 C 225.443 130.472,225.695 130.514,225.834 131.044 C 225.973 131.575,226.224 131.617,229.280 131.617 C 232.039 131.617,232.659 131.698,233.078 132.117 C 233.353 132.393,233.620 132.586,233.671 132.546 C 233.721 132.507,234.599 132.475,235.622 132.475 L 237.482 132.475 237.482 134.433 C 237.482 136.029,237.588 136.488,238.054 136.910 C 238.491 137.305,238.627 137.791,238.627 138.957 L 238.627 140.486 236.511 140.486 C 234.895 140.486,234.357 140.385,234.231 140.057 C 234.095 139.701,233.311 139.628,229.643 139.628 C 225.812 139.628,225.153 139.561,224.720 139.127 C 224.296 138.703,223.552 138.613,219.854 138.535 C 216.502 138.465,215.409 138.349,215.148 138.034 C 214.879 137.710,213.837 137.625,210.122 137.625 C 206.323 137.625,205.436 137.550,205.436 137.229 C 205.436 136.660,204.512 136.489,201.403 136.485 C 197.234 136.479,197.468 135.874,197.442 146.689 C 197.428 152.441,197.353 153.680,196.996 154.036 C 196.341 154.691,196.483 157.916,197.148 157.505 C 197.278 157.425,197.466 157.619,197.567 157.936 C 197.744 158.495,197.982 158.512,205.639 158.512 C 212.523 158.512,213.570 158.570,213.861 158.968 C 214.272 159.530,215.488 159.609,224.249 159.636 C 229.277 159.652,230.884 159.741,230.830 160.001 C 230.738 160.444,230.665 160.437,236.052 160.479 L 240.629 160.515 240.629 163.487 L 240.629 166.460 239.557 166.684 C 238.966 166.808,238.355 166.924,238.197 166.944 C 238.040 166.963,237.943 167.134,237.983 167.323 C 238.037 167.585,236.398 167.668,231.218 167.668 C 225.405 167.668,224.357 167.732,224.217 168.097 C 224.078 168.461,223.093 168.526,217.791 168.526 C 211.836 168.526,209.728 168.758,209.728 169.413 C 209.728 169.558,207.113 169.671,203.750 169.671 C 196.740 169.671,197.425 169.194,197.425 174.082 C 197.425 176.010,197.328 177.684,197.210 177.802 C 197.092 177.920,196.985 178.102,196.971 178.207 C 196.957 178.312,196.864 178.591,196.763 178.827 C 196.662 179.063,196.609 181.767,196.644 184.835 L 196.710 190.415 200.254 190.496 C 203.042 190.559,203.896 190.487,204.259 190.159 C 204.610 189.842,205.764 189.720,209.073 189.649 C 212.802 189.570,213.477 189.485,213.794 189.060 C 214.113 188.631,214.784 188.553,218.741 188.488 C 222.219 188.430,223.302 188.326,223.247 188.054 C 223.193 187.782,224.151 187.697,227.289 187.697 C 231.482 187.697,233.289 187.515,233.044 187.120 C 232.780 186.693,233.784 186.575,238.027 186.537 C 241.292 186.508,242.340 186.409,242.451 186.119 C 242.560 185.836,243.579 185.715,246.448 185.645 C 249.593 185.568,250.399 185.461,250.840 185.061 C 251.263 184.677,252.031 184.553,254.374 184.489 L 257.368 184.406 257.458 183.142 C 257.570 181.568,257.324 180.525,256.862 180.617 C 256.605 180.668,256.487 179.891,256.428 177.754 C 256.362 175.406,256.263 174.821,255.927 174.821 C 255.584 174.821,255.508 174.247,255.508 171.671 C 255.508 168.875,255.444 168.466,254.936 168.031 C 254.430 167.598,254.363 167.187,254.363 164.481 C 254.363 161.348,254.213 160.397,253.761 160.677 C 253.615 160.767,253.505 158.939,253.505 156.402 C 253.505 152.221,253.473 151.960,252.933 151.788 C 252.385 151.614,252.359 151.339,252.325 145.331 C 252.284 138.113,252.298 138.319,251.856 138.409 C 251.285 138.526,251.355 106.555,251.927 106.336 C 252.295 106.195,252.361 105.279,252.361 100.295 C 252.361 94.611,252.379 94.421,252.933 94.421 C 253.247 94.421,253.490 94.324,253.471 94.206 C 253.234 92.705,253.575 87.525,253.934 87.165 C 254.253 86.847,254.363 86.066,254.363 84.141 C 254.363 81.927,254.447 81.461,254.936 80.973 C 255.406 80.502,255.508 80.019,255.508 78.255 C 255.508 76.732,255.608 76.130,255.853 76.180 C 256.261 76.265,256.284 76.135,256.330 73.534 C 256.363 71.733,256.424 71.531,256.938 71.531 C 257.456 71.531,257.511 71.340,257.511 69.528 C 257.511 67.938,257.599 67.525,257.940 67.525 C 258.265 67.525,258.369 67.172,258.369 66.068 C 258.369 64.851,258.464 64.586,258.941 64.461 C 259.413 64.337,259.514 64.070,259.514 62.944 C 259.514 61.993,259.644 61.528,259.943 61.413 C 260.239 61.299,260.372 60.837,260.372 59.925 C 260.372 58.842,260.476 58.574,260.944 58.452 C 261.418 58.328,261.516 58.062,261.516 56.905 C 261.516 55.854,261.623 55.508,261.946 55.508 C 262.243 55.508,262.375 55.210,262.375 54.540 C 262.375 53.812,262.517 53.535,262.947 53.422 C 263.442 53.293,263.519 53.032,263.519 51.502 C 263.519 49.972,263.442 49.711,262.947 49.582 C 262.452 49.453,262.211 48.821,262.341 47.997 C 262.360 47.879,262.217 47.815,262.024 47.854 C 261.831 47.893,261.629 47.636,261.575 47.282 C 261.512 46.870,261.277 46.638,260.924 46.638 C 260.619 46.638,260.372 46.442,260.372 46.200 C 260.372 45.959,260.179 45.688,259.943 45.597 C 259.707 45.506,259.514 45.253,259.514 45.034 C 259.514 44.815,259.256 44.635,258.941 44.635 C 258.572 44.635,258.369 44.444,258.369 44.098 C 258.369 43.803,258.176 43.400,257.940 43.205 C 257.704 43.009,257.511 42.607,257.511 42.311 C 257.511 41.965,257.308 41.774,256.938 41.774 C 256.557 41.774,256.366 41.583,256.366 41.202 C 256.366 40.887,256.188 40.629,255.970 40.629 C 255.753 40.629,255.507 40.372,255.425 40.057 C 255.343 39.742,255.070 39.485,254.819 39.485 C 254.569 39.485,254.363 39.292,254.363 39.056 C 254.363 38.820,254.170 38.627,253.934 38.627 C 253.673 38.627,253.505 38.360,253.505 37.946 C 253.505 37.236,252.874 36.491,252.549 36.817 C 252.445 36.921,252.361 36.740,252.361 36.416 C 252.361 36.092,252.167 35.752,251.931 35.662 C 251.695 35.571,251.502 35.300,251.502 35.059 C 251.502 34.812,251.253 34.621,250.930 34.621 C 250.548 34.621,250.358 34.430,250.358 34.049 C 250.358 33.731,250.167 33.476,249.928 33.476 C 249.692 33.476,249.499 33.283,249.499 33.047 C 249.499 32.811,249.372 32.618,249.217 32.618 C 249.062 32.618,248.743 32.158,248.508 31.596 C 248.273 31.034,247.949 30.655,247.789 30.755 C 247.628 30.854,247.496 30.793,247.496 30.620 C 247.496 30.114,246.279 28.612,245.869 28.612 C 245.662 28.612,245.494 28.415,245.494 28.174 C 245.494 27.933,245.300 27.662,245.064 27.571 C 244.828 27.481,244.635 27.223,244.635 26.999 C 244.635 26.775,244.443 26.518,244.208 26.427 C 243.973 26.337,243.851 26.148,243.938 26.007 C 244.025 25.866,243.960 25.751,243.794 25.751 C 243.627 25.751,243.491 25.611,243.491 25.439 C 243.491 24.990,241.994 23.469,241.719 23.639 C 241.592 23.718,241.488 23.517,241.488 23.193 C 241.488 22.860,241.301 22.604,241.059 22.604 C 240.823 22.604,240.629 22.399,240.629 22.148 C 240.629 21.897,240.372 21.624,240.057 21.542 C 239.684 21.445,239.485 21.152,239.485 20.702 C 239.485 20.322,239.297 19.938,239.067 19.850 C 238.837 19.762,238.570 19.444,238.475 19.144 C 238.380 18.844,238.117 18.598,237.892 18.598 C 237.667 18.598,237.482 18.455,237.482 18.281 C 237.482 17.852,236.278 16.606,235.857 16.600 C 235.671 16.597,235.475 16.305,235.421 15.951 C 235.367 15.597,235.165 15.340,234.972 15.379 C 234.779 15.418,234.635 15.354,234.652 15.236 C 234.729 14.698,234.229 13.734,233.872 13.734 C 233.655 13.734,233.476 13.476,233.476 13.162 C 233.476 12.847,233.298 12.589,233.081 12.589 C 232.863 12.589,232.617 12.332,232.535 12.017 C 232.453 11.702,232.180 11.445,231.930 11.445 C 231.679 11.445,231.474 11.252,231.474 11.016 C 231.474 10.780,231.295 10.587,231.078 10.587 C 230.712 10.587,230.217 9.610,230.305 9.063 C 230.326 8.933,230.211 8.909,230.050 9.008 C 229.889 9.108,229.757 9.053,229.757 8.887 C 229.757 8.720,229.242 8.584,228.612 8.584 C 227.825 8.584,227.468 8.708,227.468 8.982 M201.198 43.787 C 200.833 43.936,200.616 44.188,200.714 44.347 C 200.829 44.534,199.834 44.635,197.885 44.635 C 195.551 44.635,194.826 44.728,194.645 45.052 C 194.470 45.364,193.745 45.480,191.750 45.517 C 189.488 45.558,189.037 45.646,188.752 46.102 C 188.459 46.571,188.040 46.638,185.374 46.638 C 183.083 46.638,182.246 46.739,181.991 47.047 C 181.759 47.326,180.813 47.501,179.023 47.596 C 175.859 47.763,175.696 47.793,175.767 48.188 C 175.803 48.391,174.758 48.526,172.747 48.579 C 170.272 48.644,169.671 48.742,169.671 49.080 C 169.671 49.417,169.171 49.499,167.119 49.499 C 164.325 49.499,163.662 49.642,163.662 50.245 C 163.662 50.561,163.020 50.644,160.550 50.644 C 158.248 50.644,157.352 50.747,157.109 51.040 C 156.882 51.313,155.887 51.472,153.900 51.552 C 151.559 51.646,150.969 51.759,150.746 52.157 C 150.533 52.539,150.073 52.647,148.657 52.647 C 146.658 52.647,146.495 52.789,146.495 54.530 C 146.495 55.208,146.364 55.508,146.066 55.508 C 145.766 55.508,145.637 55.810,145.637 56.509 C 145.637 57.129,145.419 57.729,145.064 58.083 C 144.710 58.437,144.492 59.037,144.492 59.657 C 144.492 60.356,144.363 60.658,144.063 60.658 C 143.740 60.658,143.634 61.004,143.634 62.055 C 143.634 63.212,143.535 63.478,143.062 63.602 C 142.647 63.711,142.489 63.992,142.489 64.623 C 142.489 65.121,142.295 65.603,142.034 65.748 C 141.784 65.888,141.591 66.088,141.605 66.192 C 141.798 67.608,141.576 68.617,141.041 68.757 C 140.541 68.888,140.465 69.099,140.540 70.149 L 140.629 71.388 142.769 71.473 C 144.415 71.539,144.981 71.459,145.223 71.129 C 145.472 70.788,146.313 70.690,149.251 70.656 C 153.539 70.608,154.506 70.473,154.506 69.924 C 154.506 69.604,155.356 69.528,158.941 69.528 C 162.557 69.528,163.376 69.454,163.376 69.126 C 163.376 68.802,164.174 68.717,167.533 68.685 C 171.770 68.645,172.387 68.557,173.053 67.899 C 173.330 67.625,174.569 67.525,177.689 67.525 C 181.115 67.525,181.991 67.444,182.179 67.109 C 182.361 66.782,183.209 66.684,186.143 66.651 C 190.449 66.602,191.416 66.468,191.416 65.918 C 191.416 65.599,192.226 65.522,195.586 65.522 C 200.017 65.522,200.572 65.365,200.572 64.112 C 200.572 63.776,200.758 63.519,201.001 63.519 C 201.330 63.519,201.431 63.157,201.431 61.979 C 201.431 60.679,201.520 60.415,202.003 60.289 C 202.471 60.167,202.575 59.899,202.575 58.816 C 202.575 57.986,202.715 57.439,202.951 57.348 C 203.170 57.265,203.356 56.663,203.394 55.913 C 203.437 55.083,203.661 54.422,204.020 54.063 C 204.425 53.658,204.578 53.112,204.578 52.065 C 204.578 51.050,204.704 50.577,205.007 50.461 C 205.306 50.347,205.436 49.881,205.436 48.930 C 205.436 47.793,205.535 47.537,206.023 47.410 C 206.548 47.272,206.600 47.068,206.524 45.445 L 206.438 43.634 204.149 43.575 C 202.890 43.542,201.562 43.638,201.198 43.787 M193.902 75.095 C 193.573 75.424,192.468 75.520,188.684 75.550 C 184.469 75.584,183.792 75.655,183.143 76.129 C 182.486 76.608,181.817 76.672,177.164 76.698 C 172.926 76.723,171.894 76.806,171.768 77.134 C 171.642 77.463,170.647 77.539,166.490 77.539 C 161.722 77.539,161.334 77.579,160.878 78.112 C 160.421 78.645,160.034 78.684,155.149 78.684 C 150.757 78.684,149.884 78.753,149.746 79.113 C 149.608 79.473,148.734 79.542,144.329 79.542 C 139.426 79.542,139.056 79.579,138.779 80.096 C 138.601 80.429,138.114 80.686,137.561 80.740 C 136.691 80.825,136.633 80.902,136.534 82.117 C 136.476 82.830,136.249 83.507,136.026 83.634 C 135.770 83.778,135.622 84.345,135.622 85.176 C 135.622 86.074,135.471 86.600,135.143 86.840 C 134.814 87.080,134.623 87.744,134.536 88.946 C 134.449 90.150,134.290 90.701,134.029 90.701 C 133.773 90.701,133.621 91.189,133.563 92.203 C 133.506 93.187,133.357 93.682,133.131 93.638 C 132.720 93.558,132.393 95.067,132.524 96.443 L 132.618 97.425 147.162 97.425 C 160.683 97.425,161.732 97.390,162.072 96.924 C 162.412 96.459,163.436 96.423,176.463 96.423 C 188.580 96.423,190.536 96.365,190.844 95.994 C 191.040 95.758,191.667 95.563,192.238 95.560 C 193.895 95.552,194.564 94.627,194.564 92.341 C 194.564 91.040,194.692 90.378,194.993 90.129 C 195.307 89.868,195.422 89.176,195.422 87.549 C 195.422 85.797,195.517 85.290,195.869 85.154 C 196.115 85.060,196.237 84.853,196.139 84.694 C 196.041 84.536,196.097 84.406,196.264 84.406 C 196.446 84.406,196.567 83.659,196.567 82.526 C 196.567 81.236,196.701 80.511,196.996 80.217 C 197.313 79.899,197.425 79.122,197.425 77.233 L 197.425 74.678 195.872 74.678 C 194.893 74.678,194.164 74.832,193.902 75.095 M166.228 107.164 C 165.931 107.523,163.307 107.582,147.748 107.582 C 131.819 107.582,129.614 107.634,129.614 108.011 C 129.614 108.247,129.356 108.698,129.041 109.013 C 128.610 109.445,128.469 109.967,128.469 111.138 C 128.469 112.138,128.316 112.845,128.040 113.121 C 127.739 113.421,127.611 114.156,127.611 115.573 C 127.611 117.112,127.515 117.597,127.212 117.597 C 126.671 117.597,126.466 118.235,126.466 119.929 C 126.466 120.817,126.304 121.519,126.037 121.786 C 125.437 122.386,125.445 125.198,126.047 125.429 C 126.288 125.522,132.344 125.605,139.505 125.614 C 146.665 125.623,152.456 125.740,152.372 125.875 C 152.045 126.404,153.606 126.466,167.242 126.466 C 180.308 126.466,181.398 126.504,181.861 126.967 C 182.282 127.389,182.907 127.468,185.816 127.468 L 189.270 127.468 189.357 125.468 C 189.417 124.076,189.571 123.397,189.863 123.233 C 190.095 123.104,190.209 122.877,190.118 122.729 C 190.027 122.582,190.088 122.461,190.255 122.461 C 190.452 122.461,190.558 121.221,190.558 118.919 C 190.558 116.120,190.648 115.303,190.987 115.021 C 191.331 114.736,191.416 113.874,191.416 110.690 L 191.416 106.714 178.996 106.730 C 168.463 106.743,166.523 106.809,166.228 107.164 M123.824 133.820 C 123.758 133.946,123.670 134.628,123.628 135.336 C 123.544 136.749,123.401 137.137,123.046 136.918 C 122.727 136.721,122.562 137.733,122.486 140.357 C 122.443 141.821,122.282 142.708,122.012 142.979 C 121.714 143.276,121.602 144.128,121.602 146.086 C 121.602 148.092,121.511 148.766,121.245 148.712 C 121.031 148.670,120.851 149.014,120.797 149.571 L 120.708 150.501 122.123 150.501 C 123.298 150.501,123.564 150.598,123.688 151.073 C 123.830 151.614,124.078 151.645,128.308 151.645 C 132.018 151.645,132.807 151.718,132.944 152.074 C 133.080 152.429,133.844 152.504,137.349 152.504 C 141.007 152.504,141.659 152.572,142.090 153.004 C 142.515 153.430,143.265 153.519,147.118 153.596 C 150.812 153.671,151.645 153.763,151.645 154.097 C 151.645 154.434,152.410 154.506,155.977 154.506 C 159.773 154.506,160.354 154.568,160.674 155.007 C 160.990 155.440,161.650 155.520,165.515 155.600 C 169.068 155.673,170.023 155.776,170.148 156.101 C 170.274 156.429,171.134 156.509,174.545 156.509 C 178.203 156.509,178.855 156.578,179.286 157.010 C 179.712 157.436,180.346 157.511,183.527 157.511 L 187.268 157.511 187.346 152.082 C 187.410 147.614,187.500 146.611,187.852 146.414 C 188.088 146.282,188.212 146.062,188.127 145.925 C 188.043 145.788,188.104 145.595,188.264 145.496 C 188.653 145.256,188.649 136.904,188.259 136.176 C 187.972 135.640,187.508 135.622,173.658 135.622 C 162.001 135.622,159.325 135.552,159.206 135.241 C 158.994 134.689,159.654 134.716,143.348 134.581 C 131.479 134.482,128.266 134.378,128.040 134.084 C 127.723 133.672,124.021 133.440,123.824 133.820 M119.599 160.707 C 119.599 161.285,119.399 161.979,119.154 162.250 C 118.593 162.870,118.499 163.606,118.475 167.597 C 118.460 170.011,118.366 170.798,118.097 170.744 C 117.834 170.691,117.718 171.445,117.658 173.605 L 117.577 176.538 118.588 176.538 C 119.262 176.538,119.599 176.671,119.599 176.936 C 119.599 177.485,120.241 177.682,122.020 177.682 C 122.999 177.682,123.658 177.830,123.882 178.100 C 124.117 178.384,124.931 178.544,126.420 178.601 C 127.626 178.646,128.569 178.798,128.516 178.938 C 128.338 179.411,129.178 179.676,130.870 179.681 C 132.007 179.684,132.658 179.821,132.873 180.103 C 133.092 180.392,133.835 180.538,135.275 180.576 C 136.421 180.606,137.439 180.760,137.536 180.918 C 137.642 181.088,137.551 181.120,137.312 180.996 C 137.091 180.881,137.160 180.990,137.465 181.238 C 137.837 181.539,138.607 181.688,139.795 181.688 C 141.109 181.688,141.612 181.800,141.734 182.117 C 141.858 182.438,142.372 182.546,143.777 182.546 C 145.179 182.546,145.696 182.655,145.819 182.974 C 145.909 183.209,146.089 183.336,146.219 183.255 C 146.349 183.175,146.523 183.219,146.606 183.353 C 146.689 183.487,147.566 183.625,148.555 183.661 C 149.769 183.705,150.429 183.860,150.585 184.138 C 150.748 184.429,151.351 184.549,152.647 184.549 C 153.961 184.549,154.544 184.668,154.714 184.970 C 154.995 185.473,155.800 185.644,158.011 185.673 C 159.274 185.689,159.657 185.794,159.657 186.123 C 159.657 186.464,160.070 186.552,161.660 186.552 C 163.174 186.552,163.662 186.649,163.662 186.948 C 163.662 187.426,164.173 187.569,166.237 187.667 C 167.103 187.708,167.854 187.861,167.907 188.007 C 167.960 188.153,168.121 188.200,168.265 188.111 C 168.409 188.022,168.526 188.085,168.526 188.252 C 168.526 188.434,169.268 188.555,170.386 188.555 C 171.804 188.555,172.370 188.679,172.767 189.076 C 173.133 189.442,173.794 189.618,174.983 189.666 C 176.102 189.711,176.756 189.874,176.908 190.146 C 177.079 190.451,177.732 190.558,179.413 190.558 C 181.167 190.558,181.688 190.649,181.688 190.957 C 181.688 191.506,182.330 191.702,184.120 191.702 C 185.009 191.702,185.692 191.839,185.755 192.029 C 185.895 192.450,187.426 192.619,187.983 192.275 C 188.642 191.867,188.532 182.106,187.861 181.493 C 187.712 181.357,187.703 181.438,187.840 181.688 C 187.979 181.943,187.969 182.020,187.814 181.879 C 187.469 181.563,187.487 181.857,187.446 175.823 L 187.411 170.529 186.074 170.529 C 185.310 170.529,184.542 170.352,184.281 170.116 C 183.962 169.828,183.020 169.686,181.173 169.649 C 179.714 169.619,178.589 169.527,178.672 169.444 C 179.131 168.985,177.516 168.552,175.165 168.505 C 173.421 168.469,172.577 168.346,172.616 168.131 C 172.656 167.917,171.733 167.784,169.825 167.729 C 167.428 167.659,166.892 167.557,166.452 167.085 C 166.022 166.623,165.539 166.522,163.723 166.515 C 162.238 166.508,161.335 166.368,160.961 166.085 C 160.572 165.791,159.662 165.665,157.916 165.665 C 155.922 165.665,155.392 165.576,155.254 165.218 C 155.160 164.972,154.962 164.845,154.814 164.936 C 154.667 165.028,154.465 164.971,154.366 164.812 C 154.267 164.652,153.124 164.521,151.826 164.521 C 150.194 164.521,149.294 164.391,148.910 164.101 C 148.523 163.808,147.598 163.678,145.851 163.671 C 144.474 163.666,143.348 163.554,143.348 163.422 C 143.348 162.900,141.781 162.518,139.645 162.518 C 137.914 162.518,137.363 162.420,137.236 162.089 C 137.104 161.747,136.488 161.660,134.201 161.660 C 131.948 161.660,131.330 161.574,131.330 161.264 C 131.330 160.733,130.739 160.609,127.884 160.540 C 126.125 160.498,125.406 160.370,125.238 160.069 C 125.063 159.755,124.361 159.657,122.303 159.657 L 119.599 159.657 119.599 160.707 " stroke="none" fill="#34a424" fill-rule="evenodd"></path></g></svg>