<svg xmlns="http://www.w3.org/2000/svg" width="23.871" height="16" viewBox="0 0 23.871 16">
  <path id="Icon_map-night-club" data-name="Icon map-night-club" d="M24.462,6.48H16.72a25.477,25.477,0,0,0,.516,8.258A3.291,3.291,0,0,0,19.817,15.9v5.035h-.172L17.752,22.48H23.43l-1.85-1.548h-.215V15.859a4.076,4.076,0,0,0,2.581-1.121,25.4,25.4,0,0,0,.516-8.258Zm-.516,3.1h-6.71V7h6.71ZM11.3,20.932H8.462V16.545l5.677-8.516H.72L6.4,16.545v4.387H3.559a.774.774,0,0,0,0,1.548H11.3a.774.774,0,1,0,0-1.548Z" transform="translate(-0.72 -6.48)" fill="#fff"/>
</svg>
