<svg xmlns="http://www.w3.org/2000/svg" width="12.8" height="16" viewBox="0 0 12.8 16">
  <path id="Icon_metro-local-service" data-name="Icon metro-local-service" d="M11.848,17.005a3.2,3.2,0,0,0,4.524-4.524ZM18.912,5.149l-9.6-.008a1.6,1.6,0,0,0-1.6,1.6v12.8a1.6,1.6,0,0,0,1.6,1.6h9.6a1.6,1.6,0,0,0,1.6-1.6V6.741a1.593,1.593,0,0,0-1.6-1.592Zm-6.4,1.592a.8.8,0,1,1-.8.8A.8.8,0,0,1,12.512,6.741Zm-2.4,0a.8.8,0,1,1-.8.8A.8.8,0,0,1,10.112,6.741Zm4,12.8a4.8,4.8,0,1,1,4.8-4.8A4.8,4.8,0,0,1,14.112,19.541Z" transform="translate(-7.712 -5.141)" fill="#fff"/>
</svg>
